<svg width="48" height="48" viewBox="0 0 48 48" fill="none" xmlns="http://www.w3.org/2000/svg">
<path d="M38.1279 19.3337C39.9739 19.3337 41.7784 18.7863 43.3132 17.7607C44.8481 16.7352 46.0444 15.2775 46.7508 13.572C47.4572 11.8666 47.642 9.98998 47.2819 8.17949C46.9218 6.369 46.0328 4.70596 44.7276 3.40067C43.4223 2.09538 41.7592 1.20646 39.9487 0.846334C38.1382 0.486205 36.2616 0.671036 34.5562 1.37745C32.8507 2.08387 31.3931 3.28015 30.3675 4.81501C29.342 6.34987 28.7946 8.15437 28.7946 10.0003C28.7946 12.4757 29.7779 14.8497 31.5282 16.6C33.2786 18.3503 35.6525 19.3337 38.1279 19.3337ZM38.1279 5.33366C39.0509 5.33366 39.9531 5.60736 40.7206 6.12014C41.488 6.63292 42.0861 7.36175 42.4393 8.21447C42.7925 9.06719 42.885 10.0055 42.7049 10.9108C42.5248 11.816 42.0804 12.6475 41.4277 13.3002C40.7751 13.9528 39.9436 14.3973 39.0383 14.5773C38.1331 14.7574 37.1948 14.665 36.342 14.3118C35.4893 13.9586 34.7605 13.3604 34.2477 12.593C33.7349 11.8256 33.4612 10.9233 33.4612 10.0003C33.4612 8.76265 33.9529 7.57567 34.8281 6.7005C35.7032 5.82533 36.8902 5.33366 38.1279 5.33366V5.33366ZM35.4446 25.097C35.2353 24.7593 34.9433 24.4807 34.5962 24.2875C34.2491 24.0942 33.8585 23.9928 33.4612 23.9928C33.064 23.9928 32.6733 24.0942 32.3262 24.2875C31.9792 24.4807 31.6872 24.7593 31.4779 25.097L29.1446 28.9003L21.4679 15.8337C21.2613 15.4855 20.9676 15.197 20.6158 14.9967C20.264 14.7964 19.8661 14.691 19.4612 14.691C19.0564 14.691 18.6585 14.7964 18.3066 14.9967C17.9548 15.197 17.6612 15.4855 17.4546 15.8337L1.12123 43.8337C0.917019 44.1873 0.809217 44.5884 0.808596 44.9968C0.807976 45.4052 0.914558 45.8066 1.11769 46.1609C1.32082 46.5152 1.61339 46.81 1.96615 47.0158C2.31891 47.2216 2.7195 47.3312 3.12789 47.3337H45.1279C45.5448 47.3345 45.9543 47.2236 46.3139 47.0126C46.6734 46.8015 46.9698 46.4979 47.1723 46.1335C47.3747 45.7691 47.4759 45.357 47.4651 44.9403C47.4544 44.5235 47.3322 44.1172 47.1112 43.7637L35.4446 25.097ZM20.5112 42.667H7.18789L19.4612 21.667L26.3212 33.3337L23.4046 38.0003L20.5112 42.667ZM25.9946 42.667L29.4712 37.137L31.1279 34.6637L33.4612 30.7437L40.9279 42.667H25.9946Z" fill="#2274FF"/>
</svg>
