<svg width="26" height="19" viewBox="0 0 26 19" fill="none" xmlns="http://www.w3.org/2000/svg">
<path d="M1.40234 6.89355C8.93583 6.89355 16.4351 6.89355 23.9626 6.89355C23.9626 7 23.9626 7.09378 23.9626 7.18831C23.9626 9.7027 23.9626 12.2178 23.9619 14.7322C23.9619 15.021 23.9738 15.3113 23.9477 15.5979C23.8941 16.1911 23.5569 16.5127 22.96 16.5663C22.8573 16.5752 22.7538 16.5737 22.6503 16.5737C17.6007 16.5722 12.5504 16.5693 7.50074 16.5685C5.89594 16.5685 4.29039 16.5737 2.68559 16.5722C2.49429 16.5722 2.29928 16.5588 2.1117 16.5209C1.66956 16.4323 1.43361 16.1502 1.42095 15.6961C1.40681 15.1803 1.40383 14.663 1.40383 14.1472C1.40234 11.8114 1.40309 9.47642 1.40309 7.14068C1.40234 7.06401 1.40234 6.98957 1.40234 6.89355ZM8.38874 8.65839C8.30463 8.65467 8.2302 8.64797 8.15651 8.64797C6.4341 8.64723 4.71243 8.65095 2.99003 8.64276C2.79501 8.64201 2.75109 8.70231 2.75184 8.8869C2.75854 10.5952 2.75556 12.3034 2.75556 14.0124C2.75556 14.0869 2.75556 14.1606 2.75556 14.241C4.64768 14.241 6.51597 14.241 8.38874 14.241C8.38874 12.3756 8.38874 10.5252 8.38874 8.65839ZM9.89678 8.64722C9.89678 10.5192 9.89678 12.36 9.89678 14.2015C11.7673 14.2015 13.6222 14.2015 15.489 14.2015C15.4927 14.1211 15.498 14.0534 15.498 13.9856C15.4987 12.2848 15.495 10.584 15.5024 8.88393C15.5032 8.69412 15.4503 8.64201 15.2613 8.64276C13.547 8.64946 11.8321 8.64722 10.1178 8.64722C10.0501 8.64722 9.98238 8.64722 9.89678 8.64722ZM22.5997 8.67998C20.7165 8.67998 18.8557 8.67998 16.9918 8.67998C16.9918 10.5319 16.9918 12.3667 16.9918 14.1993C18.8683 14.1993 20.7299 14.1993 22.5997 14.1993C22.5997 12.3548 22.5997 10.5252 22.5997 8.67998Z" fill="#2274FF"/>
<path d="M12.6615 6.10731C8.86681 6.10731 5.07141 6.10806 1.27676 6.10582C1.07132 6.10582 0.863646 6.09168 0.659696 6.06563C0.393966 6.03139 0.283803 5.88848 0.367169 5.63391C0.529436 5.13818 0.717755 4.65064 0.903096 4.16235C1.20158 3.37855 1.5142 2.59997 1.80822 1.81469C2.03673 1.20433 2.27269 1.00038 2.91952 0.998892C4.51688 0.995915 6.11424 1.01229 7.71159 1.02048C7.78752 1.02122 7.86344 1.02197 7.93862 1.02197C11.4996 1.02197 15.0597 1.02271 18.6207 1.02122C19.9017 1.02048 21.1827 1.01303 22.463 1.01006C23.1359 1.00857 23.3391 1.17307 23.578 1.79683C23.9978 2.89473 24.4414 3.98371 24.8724 5.07714C24.9253 5.21113 24.9796 5.34734 25.0079 5.48728C25.0741 5.81776 24.9513 6.02171 24.6193 6.06637C24.2941 6.11029 23.9613 6.11104 23.6316 6.11104C21.4968 6.11252 19.3613 6.10806 17.2265 6.10731C15.7058 6.10657 14.1837 6.10731 12.6615 6.10731Z" fill="#2274FF"/>
<path d="M12.7038 17.5164C16.596 17.5164 20.4889 17.5164 24.381 17.5164C24.4503 17.5164 24.5187 17.5134 24.588 17.5187C24.8209 17.5373 24.9981 17.7144 25.0182 17.9452C25.0375 18.1647 24.9006 18.3702 24.684 18.4312C24.6058 18.4528 24.521 18.4588 24.4398 18.4588C16.5997 18.4602 8.76027 18.4602 0.920109 18.4595C0.608229 18.4595 0.432565 18.3412 0.37004 18.0948C0.30156 17.8246 0.481691 17.5559 0.758586 17.5209C0.833021 17.5112 0.909688 17.5157 0.985611 17.5157C4.89192 17.5157 8.79748 17.5164 12.7038 17.5164Z" fill="#2274FF"/>
</svg>
