<svg width="625" height="658" viewBox="0 0 625 658" fill="none" xmlns="http://www.w3.org/2000/svg">
<path d="M613.764 302.879C611.863 300.572 611.041 297.643 609.761 294.979C597.901 270.393 581.389 249.609 561.036 231.966C554.17 226.009 547.137 220.235 539.137 215.62C541.836 219.465 544.548 223.288 547.212 227.141C567.057 255.793 582.071 286.908 590.831 321.248C598.051 349.553 600.122 378.332 595.39 407.792C594.8 411.488 594.024 415.154 593.228 419.423C597.979 415.208 602.173 411.145 605.67 406.383C621.302 385.149 625.609 361.582 622.295 336.463C622.141 335.264 621.883 334.087 622.173 332.861C624.209 338.378 624.125 344.266 624.215 350.071C624.443 364.908 621.809 379.312 614.913 392.822C607.854 406.641 598.157 418.199 585.18 426.757C567.291 438.56 547.652 443.738 526.98 444.983C526.294 445.018 525.605 444.881 524.914 444.835C524.913 444.726 524.905 444.628 524.904 444.519C535.03 443.563 545.112 442.253 555.004 439.489C567.407 436.012 578.963 430.609 589.382 422.592C591.136 421.249 592.034 419.689 592.486 417.583C594.777 406.903 596.274 396.154 596.723 385.322C597.483 367.162 595.884 349.291 592.182 331.68C588.552 314.379 583.171 297.759 576.327 281.672C567.722 261.442 556.99 242.474 544.29 224.752C539.913 218.64 535.877 212.263 528.982 208.372C511.19 198.343 492.845 189.688 472.939 184.466C451.527 178.853 429.756 176.613 407.384 179.56C404.538 179.94 401.719 180.585 398.89 181.115C398.863 181.375 398.837 181.635 398.81 181.895C403.712 183.989 407.866 187.264 412.303 190.096C427.005 199.462 441.17 209.564 454.048 221.368C471.284 237.155 487.005 254.368 500.004 274.02C502.856 278.338 506.176 282.399 507.881 287.463C506.932 286.858 506.445 285.868 505.889 284.94C493.741 264.962 479.209 246.986 462.603 230.74C448.35 216.811 432.894 204.393 416.238 193.503C411.809 190.615 407.258 187.953 402.811 185.115C399.334 182.895 396.073 180.835 391.674 182.259C392.194 181.372 393.616 181.645 393.998 180.217C388.742 177.486 383.586 174.497 378.18 172.035C362.117 164.723 345.674 158.376 328.487 153.909C313.313 149.956 297.917 147.214 282.167 146.211C280.658 146.111 279.265 146.321 277.862 147.142C268.133 152.873 258.873 159.334 250.101 166.539C235.128 178.827 221.889 192.769 210.078 208.254C199.005 222.767 189.796 238.28 182.9 255.111C173.882 277.114 168.289 299.897 165.898 323.373C165.563 326.623 166.251 329.137 167.973 331.757C179.77 349.662 187.437 369.249 188.424 391.42C188.507 393.297 189.35 394.634 190.467 395.891C204.146 411.227 219.226 425 235.551 437.397C244.359 444.083 253.481 450.299 263.075 455.812C265.861 457.414 268.708 458.904 272.151 460.777C271.119 457.832 270.336 455.702 269.637 453.535C266.823 444.825 263.94 436.132 263.033 426.862C264.192 428.101 264.179 429.791 264.483 431.338C266.423 440.759 269.134 449.909 272.424 458.875C273.071 460.636 274.065 461.966 275.665 462.898C283.553 467.439 291.838 471.211 300.197 474.785C325.392 485.525 351.569 492.954 379.16 495.431C387.314 496.166 395.551 496.292 403.746 496.699L403.771 496.948C396.308 497.756 388.914 497.206 381.543 496.579C350.321 493.894 320.78 485.463 292.659 472.471C287.608 470.138 282.442 467.977 277.673 465.046C276.93 464.595 276.119 464.222 274.846 464.342C276.562 469.675 278.962 474.494 281.383 479.281C292.718 501.725 307.266 521.658 325.916 538.237C346.65 556.676 370.12 570.059 397.799 575.529C402.964 576.548 408.071 575.783 413.184 574.944C421.165 573.649 429.111 572.098 437.068 570.662C433.743 572.945 429.864 573.019 426.204 573.734C413.643 576.194 400.994 577.73 388.292 577.872C380.094 577.973 371.842 578.331 363.78 576.778C363.779 576.669 363.771 576.571 363.771 576.462C369.403 576.651 375.029 576.959 380.664 577.011C385.58 577.06 390.513 576.842 395.429 576.737C390.857 574.942 386.251 573.881 381.778 572.445C364.52 566.896 349.039 558.167 334.788 547.05C325.402 539.731 316.838 531.603 309.062 522.628C294.113 505.361 282.215 486.045 273.621 464.587C272.906 462.796 271.727 461.697 270.112 460.832C266.327 458.808 262.454 456.894 258.87 454.525C248.095 447.434 237.373 440.285 227.293 432.177C214.53 421.917 202.631 410.784 191.533 398.721C190.781 397.908 190.276 396.705 189.006 396.534C188.377 397.055 188.516 397.705 188.492 398.291C188.154 409.089 186.252 419.629 182.432 429.887C181.77 431.667 180.376 433.266 180.661 435.326C180.56 435.366 180.449 435.4 180.349 435.44C178.797 431.576 175.018 430.049 172.094 427.752C157.659 416.403 147.511 401.887 141.126 384.456C140.718 383.349 140.119 382.33 139.61 381.264C139.341 380.126 138.999 379.032 138.193 378.168C137.403 374.706 136.362 371.291 136.485 367.235C137.894 368.21 137.701 369.532 137.948 370.593C142.429 389.328 150.559 405.936 164.014 419.407C168.094 423.498 172.425 427.324 177.39 430.356C180.316 432.145 180.482 432.117 181.688 428.755C189.828 406.041 189.116 383.699 181.703 361.688C174.534 340.412 161.839 322.925 146.638 307.157C144.853 305.313 143.517 305.746 141.94 307.485C128.99 321.745 118.961 337.558 115.275 356.723C115.134 357.417 114.874 358.092 114.668 358.773C114.15 357.963 114.234 357.046 114.428 356.141C117.671 341.157 124.122 327.673 133.806 315.674C135.154 314.013 136.539 312.362 137.951 310.759C139.041 309.528 139.022 308.28 138.606 306.812C136.568 299.627 134.891 292.343 133.824 284.896C133.638 283.613 133.237 282.341 133.922 281.055C135.496 288.888 136.572 296.85 138.922 304.492C139.891 307.642 140.022 307.776 142.388 305.562C144.019 304.029 145.262 304.151 146.705 305.626C152.199 311.235 157.394 317.092 162.117 323.389C162.678 324.135 163.023 325.555 164.083 325.292C165.212 325.014 164.899 323.568 164.979 322.634C166.24 309.38 168.656 296.313 172.242 283.412C176.897 266.672 182.893 250.458 191.361 235.128C195.124 228.321 198.897 221.52 203.477 215.23C214.581 199.966 226.811 185.749 240.855 173.134C251.444 163.609 262.762 155.175 274.803 147.75C275.38 147.395 276.064 147.143 276.436 146.125C269.996 145.009 263.506 146.3 257.198 145.535C262.214 144.292 267.299 144.439 272.24 144.891C277.318 145.357 281.8 144.405 286.138 141.643C287.579 140.724 289.13 139.925 290.847 139.67C288.498 142.034 285.085 142.513 282.55 144.583C282.954 145.564 283.763 145.257 284.392 145.307C306.288 147.075 327.498 151.626 348.088 158.819C358.842 162.576 369.345 166.907 379.648 171.69C384.886 174.117 389.97 176.841 395.096 179.501C396.389 180.166 397.632 180.288 399.085 180.01C424.119 175.155 448.572 176.998 472.651 183.378C486.103 186.934 499.043 191.738 511.489 197.786C516.592 200.261 521.479 203.147 526.441 205.898C527.974 206.755 529.445 207.725 531.577 208.303C526.326 201.297 520.567 195.248 514.741 189.278C504.863 179.174 494.032 170.208 482.739 161.735C465.461 148.761 446.532 138.866 426.132 131.831C404.297 124.298 381.661 120.908 358.206 122.481C354.243 122.746 350.273 123.022 346.311 123.287C350.996 121.283 355.919 121.63 360.727 121.421C392.14 120.018 421.588 126.827 449.31 140.371C461.183 146.175 472.631 152.79 483.196 160.744C501.519 174.557 518.395 189.98 532.784 208.061C534.393 210.08 536.237 211.747 538.368 213.205C565.002 231.41 587.412 253.811 603.952 282.01C607.348 287.805 610.266 293.851 612.988 300.013C613.402 300.892 613.525 301.917 613.764 302.879Z" fill="#003287"/>
<path d="M515.588 454.507C514.961 453.331 515.089 451.996 514.965 450.708C514.87 449.75 515.232 448.308 514.237 448.013C513.088 447.66 512.377 449.053 511.768 449.896C508.491 454.372 504.675 458.333 500.604 462.016C490.72 470.947 479.888 478.348 467.56 483.188C467.532 483.076 467.497 482.975 467.468 482.864C473.665 479.416 480.078 476.437 486.003 472.406C496.107 465.521 505.018 457.359 512.44 447.551C514.348 445.03 514.081 444.681 510.979 444.519C500.583 443.966 490.302 442.626 480.204 440.373C454.875 434.716 431.649 424.245 410.027 410.323C400.333 404.079 391.264 396.926 382.607 389.245C361.828 370.808 345.175 349.157 333.645 323.463C331.064 317.704 328.339 311.942 327.479 305.483C328.29 306.274 328.509 307.377 328.849 308.408C332.509 319.506 337.34 329.998 343.142 340.029C357.118 364.226 375.925 383.937 397.827 400.563C409.027 409.066 421.006 416.516 433.755 422.705C456.717 433.834 480.709 441.468 506.519 443.262C515.271 443.872 514.729 445.517 513.32 435.787C512.459 429.837 511.165 423.983 510.061 418.087C512.013 422.034 512.422 426.461 513.395 430.726C514.332 434.782 515.44 438.781 516.47 442.807C515.945 442.887 516.308 442.698 516.487 442.386C521.965 433.237 526.89 423.858 529.943 413.58C531.693 407.71 532.549 401.659 534.32 395.803C534.923 398.663 533.839 401.426 533.279 404.155C530.594 417.227 525.67 429.464 518.415 440.804C517.95 441.543 517.03 442.301 517.614 443.233C518.148 444.085 519.22 443.737 520.087 443.762C521.866 443.81 523.65 443.831 525.426 443.862C525.427 443.971 525.435 444.069 525.435 444.177C523.092 444.862 520.709 444.703 518.366 444.617C515.854 444.541 515.261 445.625 515.568 447.916C515.85 450.112 516.274 452.295 515.588 454.507Z" fill="#003287"/>
<path d="M363.789 576.768C356.798 576.936 350.043 575.454 343.256 574.307C324.578 571.143 306.883 565.038 289.856 557.143C280.061 552.591 271.453 546.024 262.578 539.943C242.265 526.002 224.782 509 209.917 489.21C198.163 473.573 188.652 456.565 181.178 438.296C180.813 437.388 180.606 436.4 180.332 435.445C180.433 435.405 180.544 435.371 180.645 435.33C183.796 442.15 186.735 449.089 190.141 455.771C202.706 480.382 219.258 501.765 239.446 520.27C252.914 532.623 267.59 543.237 283.329 552.417C298.678 561.366 315.437 566.736 332.63 571.083C342.848 573.663 353.322 574.978 363.769 576.446C363.78 576.561 363.788 576.659 363.789 576.768Z" fill="#003287"/>
<path d="M257.244 145.535C253.148 146.637 248.959 146.535 244.825 147.056C224.324 149.651 204.622 155.188 186.551 166.251C161.559 181.557 144.891 203.349 137.172 231.858C135.98 236.278 135.143 240.783 134.146 245.242C133.558 244.339 133.73 243.311 133.899 242.312C136.924 224.465 143.549 207.993 154.618 193.463C166.473 177.914 181.609 166.57 199.131 158.615C216.921 150.546 235.507 146.499 254.616 145.258C255.488 145.209 256.364 145.44 257.244 145.535Z" fill="#003287"/>
<path d="M138.185 378.179C138.991 379.043 139.333 380.137 139.602 381.275C140.914 389.874 143.987 397.845 147.613 405.539C154.449 420.075 163.956 432.448 176.848 441.899C177.322 442.247 177.736 442.663 178.156 443.068C178.641 443.532 179.112 444.017 179.6 444.498C178.816 445.471 178.026 444.957 177.337 444.82C153.796 440.098 134.867 428.489 122.437 407.504C119.043 401.773 115.917 395.773 115.561 388.694C116.916 392.412 118.075 396.246 119.671 399.846C127.546 417.581 140.403 430.142 157.978 437.834C163.745 440.352 169.667 442.263 176.625 443.618C173.251 440.54 170.356 438.046 167.619 435.38C154.048 422.17 145.16 406.012 139.995 387.529C139.162 384.485 138.152 381.461 138.185 378.179Z" fill="#003287"/>
<path d="M74.7885 292.03C71.844 289.719 68.3302 286.872 66.018 282.869C61.8667 275.673 63.4822 267.057 69.884 261.786C75.2292 257.366 84.2257 257.985 89.8861 263.104C92.4886 265.464 94.2557 268.346 95.381 271.724C97.5221 278.161 100.043 284.404 104.256 289.726C105.406 291.176 106.505 292.746 108.299 293.499C110.082 294.245 109.588 295.18 108.412 296.123C105.847 298.172 102.899 299.055 99.7507 299.248C91.6199 299.733 82.4559 297.164 74.7885 292.03ZM75.4961 291.083C81.7661 295.467 88.2477 297.599 95.1963 298.329C98.9402 298.721 102.749 298.553 106.241 296.506C107.243 295.911 108.708 295.131 107.096 293.821C100.294 288.34 97.3797 280.397 94.6524 272.394C93.1742 268.069 90.8457 264.75 86.9874 262.352C80.5266 258.319 73.6913 258.915 68.521 264.239C63.9367 268.952 63.283 276.791 67.0859 282.703C69.3762 286.322 72.3504 289.27 75.4961 291.083Z" fill="#003287"/>
<path d="M445.4 568.382C451.641 566.122 457.79 563.537 464.118 561.675C476.871 557.938 485.696 549.07 493.063 538.53C507.685 517.639 513.777 494.155 514.77 469.311C514.958 464.588 515 459.861 515.105 455.129C516.336 459.427 515.848 463.918 515.72 468.31C515.133 487.62 511.203 506.313 502.614 524.002C496.648 536.299 488.585 547.021 478.213 555.934C475.834 557.97 472.923 558.908 470.154 560.096C463.572 562.931 456.887 565.48 450.075 567.559C448.539 568.028 447.021 568.71 445.4 568.382Z" fill="#003287"/>
<path d="M256.649 60.6563C269.182 52.3869 286.353 61.0123 287.542 76.1529C288.449 87.7087 280.997 97.8049 269.633 100.325C262.205 101.96 254.73 103.379 247.787 106.93C244.337 108.696 241.019 110.659 238.76 114.01C237.739 115.535 236.923 115.236 236.022 114.03C233.599 110.786 233.076 106.992 233.278 102.974L233.543 102.951C234.339 105.723 234.25 108.736 235.475 111.394C236.343 113.287 237.122 114.103 239.02 112.038C242.342 108.441 246.568 106.221 251.03 104.484C256.966 102.174 263.103 100.817 269.268 99.463C279.614 97.1874 286.23 89.11 286.669 78.6878C287.06 69.2834 280.619 61.0639 271.256 58.902C266.218 57.7371 261.442 58.909 256.728 60.9562C256.717 60.8408 256.692 60.7466 256.649 60.6563Z" fill="#003287"/>
<path d="M233.287 102.965C232.681 94.9619 235.103 87.4732 238.796 80.5272C242.515 73.521 246.954 66.8266 253.776 62.2688C254.703 61.6542 255.507 60.8492 256.651 60.658C256.677 60.7522 256.712 60.8532 256.748 60.9541C246.04 68.7627 238.853 78.9903 235.347 91.8371C234.348 95.507 234.29 99.2668 233.563 102.949L233.287 102.965Z" fill="#003287"/>
<path d="M467.071 483.819C460.819 487.261 454.087 489.285 447.356 491.156C433.818 494.922 420.025 496.758 406.127 497.211C405.349 497.231 404.568 497.032 403.796 496.932C403.796 496.932 403.771 496.684 403.781 496.69C405.658 496.527 407.523 496.293 409.402 496.192C423.101 495.42 436.632 493.425 449.965 489.459C455.735 487.748 461.242 485.243 466.986 483.484C467.014 483.596 467.042 483.707 467.071 483.819Z" fill="#003287"/>
<path d="M372.873 281.188C368.709 281.797 364.652 280.841 360.528 280.797C348.848 280.666 337.379 282.066 326.154 286.162C323.879 286.986 323.13 288.059 323.663 290.408C324.604 294.481 325.322 298.622 326.134 302.732C324.059 299.166 323.727 295.021 322.919 291.037C322.235 287.615 322.274 287.579 318.98 289.11C305.632 295.32 294.401 304.307 285.143 316.02C273.16 331.19 266.638 348.564 262.996 367.156C261.629 374.147 261.282 381.219 260.372 388.253C259.278 384.586 260.173 380.831 260.579 377.166C262.948 356.361 269.206 336.787 281.525 319.357C291.133 305.778 303.33 295.261 318.374 288.519C321.51 287.114 322.161 285.526 321.838 282.269C319.473 258.372 323.992 235.873 338.864 215.906C347.847 203.854 359.482 194.968 372.944 188.742C378.985 185.946 385.051 183.09 391.698 182.291C388.928 184.096 385.695 184.525 382.691 185.602C367.303 191.141 353.76 199.599 343.007 212.38C332.634 224.705 325.962 238.783 323.383 254.644C321.928 263.614 321.809 272.567 322.579 281.514C322.99 286.267 323.096 286.307 327.567 284.777C341.533 279.999 355.708 279.021 370.007 280.52C370.969 280.623 371.918 280.965 372.873 281.188Z" fill="#003287"/>
<path d="M500.849 392.326C498.113 388.209 496.461 383.505 494.275 379.092C483.311 357.128 469.22 337.656 451.195 321.309C433.254 305.035 413.186 292.246 389.679 285.384C384.508 283.868 379.177 282.877 373.911 281.636C375.089 280.866 376.219 281.421 377.368 281.619C400.11 285.467 420.042 295.446 438.177 309.01C455.951 322.301 470.653 338.661 482.84 357.414C489.351 367.441 495.082 377.887 499.887 388.902C500.346 389.998 500.813 391.082 500.849 392.326Z" fill="#003287"/>
<path d="M507.881 287.462C510.802 290.468 512.296 294.418 514.207 298.075C523.188 315.346 529.625 333.646 533.278 353.046C533.535 354.422 533.871 355.79 533.52 357.238C532.118 351.435 530.768 345.621 529.314 339.83C525.816 325.829 520.596 312.575 514.061 299.877C511.954 295.764 509.946 291.593 507.881 287.462Z" fill="#003287"/>
</svg>
