<svg width="53" height="52" viewBox="0 0 53 52" fill="none" xmlns="http://www.w3.org/2000/svg">
<path d="M33.7112 17.7078L22.6287 28.8162L18.3662 24.5537C18.1346 24.2832 17.8496 24.0636 17.5291 23.9085C17.2086 23.7535 16.8595 23.6663 16.5038 23.6526C16.148 23.6389 15.7932 23.6988 15.4617 23.8287C15.1302 23.9586 14.8291 24.1556 14.5774 24.4073C14.3256 24.6591 14.1286 24.9602 13.9987 25.2917C13.8689 25.6232 13.8089 25.9779 13.8226 26.3337C13.8364 26.6895 13.9235 27.0386 14.0786 27.3591C14.2336 27.6796 14.4533 27.9646 14.7237 28.1962L20.7945 34.2928C21.0359 34.5323 21.3222 34.7217 21.6369 34.8502C21.9517 34.9788 22.2887 35.044 22.6287 35.042C23.3064 35.0391 23.9559 34.7701 24.437 34.2928L37.3537 21.3762C37.5958 21.136 37.788 20.8503 37.9192 20.5355C38.0503 20.2207 38.1179 19.883 38.1179 19.542C38.1179 19.201 38.0503 18.8633 37.9192 18.5485C37.788 18.2337 37.5958 17.948 37.3537 17.7078C36.8697 17.2267 36.2149 16.9566 35.5325 16.9566C34.85 16.9566 34.1952 17.2267 33.7112 17.7078ZM26.6845 0.166992C21.5752 0.166992 16.5806 1.68209 12.3323 4.52069C8.08404 7.3593 4.77292 11.3939 2.81765 16.1143C0.862389 20.8348 0.350803 26.029 1.34759 31.0402C2.34437 36.0513 4.80476 40.6544 8.41762 44.2673C12.0305 47.8801 16.6335 50.3405 21.6447 51.3373C26.6559 52.3341 31.8501 51.8225 36.5705 49.8672C41.291 47.912 45.3256 44.6008 48.1642 40.3526C51.0028 36.1043 52.5179 31.1097 52.5179 26.0003C52.5179 22.6078 51.8497 19.2486 50.5514 16.1143C49.2532 12.9801 47.3503 10.1322 44.9515 7.7334C42.5526 5.33455 39.7048 3.43168 36.5705 2.13344C33.4363 0.835191 30.077 0.166992 26.6845 0.166992ZM26.6845 46.667C22.5971 46.667 18.6014 45.4549 15.2028 43.184C11.8041 40.9132 9.15524 37.6855 7.59103 33.9091C6.02682 30.1328 5.61755 25.9774 6.41498 21.9685C7.21241 17.9595 9.18072 14.2771 12.071 11.3868C14.9613 8.4965 18.6437 6.52819 22.6527 5.73076C26.6616 4.93334 30.817 5.34261 34.5933 6.90682C38.3697 8.47103 41.5974 11.1199 43.8682 14.5185C46.1391 17.9172 47.3512 21.9128 47.3512 26.0003C47.3512 31.4815 45.1738 36.7381 41.2981 40.6139C37.4223 44.4896 32.1657 46.667 26.6845 46.667Z" fill="#2274FF"/>
</svg>
