<svg width="29" height="30" viewBox="0 0 29 30" fill="none" xmlns="http://www.w3.org/2000/svg">
<path d="M28.3016 26.7503L23.0572 21.5483C25.0929 19.0101 26.0787 15.7884 25.812 12.5456C25.5452 9.30281 24.0462 6.28547 21.6231 4.114C19.2 1.94253 16.037 0.781976 12.7845 0.870976C9.53197 0.959976 6.43717 2.29176 4.13644 4.5925C1.83571 6.89323 0.503922 9.98803 0.414921 13.2405C0.325921 16.493 1.48647 19.656 3.65795 22.0792C5.82942 24.5023 8.84675 26.0013 12.0895 26.268C15.3323 26.5348 18.554 25.5489 21.0923 23.5132L26.2943 28.7152C26.4257 28.8477 26.582 28.9529 26.7543 29.0247C26.9266 29.0964 27.1113 29.1334 27.2979 29.1334C27.4845 29.1334 27.6693 29.0964 27.8416 29.0247C28.0138 28.9529 28.1702 28.8477 28.3016 28.7152C28.5564 28.4516 28.6988 28.0994 28.6988 27.7328C28.6988 27.3662 28.5564 27.0139 28.3016 26.7503ZM13.162 23.5132C11.2049 23.5132 9.29182 22.9329 7.66458 21.8456C6.03733 20.7583 4.76905 19.2129 4.02011 17.4048C3.27117 15.5967 3.07521 13.6071 3.45702 11.6876C3.83882 9.76816 4.78124 8.00502 6.1651 6.62116C7.54896 5.2373 9.31211 4.29488 11.2316 3.91307C13.151 3.53126 15.1406 3.72722 16.9487 4.47616C18.7568 5.2251 20.3022 6.49338 21.3895 8.12063C22.4768 9.74788 23.0572 11.661 23.0572 13.6181C23.0572 16.2424 22.0146 18.7593 20.1589 20.615C18.3032 22.4707 15.7864 23.5132 13.162 23.5132Z" fill="white"/>
</svg>
