<svg width="26" height="24" viewBox="0 0 26 24" fill="none" xmlns="http://www.w3.org/2000/svg">
<path d="M24.704 2.59137H23.4083V1.29569C23.4083 0.952049 23.2718 0.622486 23.0288 0.379498C22.7858 0.136509 22.4562 0 22.1126 0C21.769 0 21.4394 0.136509 21.1964 0.379498C20.9534 0.622486 20.8169 0.952049 20.8169 1.29569V2.59137H5.26868V1.29569C5.26868 0.952049 5.13217 0.622486 4.88919 0.379498C4.6462 0.136509 4.31663 0 3.973 0C3.62936 0 3.2998 0.136509 3.05681 0.379498C2.81382 0.622486 2.67731 0.952049 2.67731 1.29569V2.59137H1.38162C1.03799 2.59137 0.708424 2.72788 0.465435 2.97087C0.222447 3.21386 0.0859375 3.54342 0.0859375 3.88706V11.6612C0.0859375 12.0048 0.222447 12.3344 0.465435 12.5774C0.708424 12.8204 1.03799 12.9569 1.38162 12.9569H2.67731V22.0267C2.67731 22.3703 2.81382 22.6999 3.05681 22.9429C3.2998 23.1858 3.62936 23.3224 3.973 23.3224C4.31663 23.3224 4.6462 23.1858 4.88919 22.9429C5.13217 22.6999 5.26868 22.3703 5.26868 22.0267V12.9569H20.8169V22.0267C20.8169 22.3703 20.9534 22.6999 21.1964 22.9429C21.4394 23.1858 21.769 23.3224 22.1126 23.3224C22.4562 23.3224 22.7858 23.1858 23.0288 22.9429C23.2718 22.6999 23.4083 22.3703 23.4083 22.0267V12.9569H24.704C25.0476 12.9569 25.3772 12.8204 25.6202 12.5774C25.8632 12.3344 25.9997 12.0048 25.9997 11.6612V3.88706C25.9997 3.54342 25.8632 3.21386 25.6202 2.97087C25.3772 2.72788 25.0476 2.59137 24.704 2.59137ZM2.67731 8.44788V5.18275H5.94244L2.67731 8.44788ZM4.41353 10.3655L9.59628 5.18275H13.9109L8.72817 10.3655H4.41353ZM12.382 10.3655L17.5647 5.18275H21.685L16.5023 10.3655H12.382ZM23.4083 10.3655H20.1561L23.4083 7.11332V10.3655Z" fill="#2274FF"/>
</svg>
