<svg width="52" height="50" viewBox="0 0 52 50" fill="none" xmlns="http://www.w3.org/2000/svg">
<path d="M0.849609 25C0.849609 11.1929 12.0425 0 25.8496 0H26.9991C40.8063 0 51.9991 11.1929 51.9991 25C51.9991 38.8071 40.8063 50 26.9991 50H25.8496C12.0425 50 0.849609 38.8071 0.849609 25Z" fill="#2274FF"/>
<path d="M36.7934 33.3109L33.0834 29.6309C34.5235 27.8353 35.2209 25.5562 35.0322 23.2622C34.8435 20.9682 33.7831 18.8337 32.0689 17.2975C30.3548 15.7614 28.1172 14.9404 25.8163 15.0034C23.5154 15.0663 21.3261 16.0085 19.6985 17.636C18.071 19.2636 17.1288 21.4529 17.0659 23.7538C17.0029 26.0547 17.8239 28.2923 19.36 30.0064C20.8962 31.7206 23.0307 32.781 25.3247 32.9697C27.6187 33.1584 29.8978 32.461 31.6934 31.0209L35.3734 34.7009C35.4664 34.7946 35.577 34.869 35.6988 34.9198C35.8207 34.9706 35.9514 34.9967 36.0834 34.9967C36.2154 34.9967 36.3461 34.9706 36.468 34.9198C36.5898 34.869 36.7004 34.7946 36.7934 34.7009C36.9736 34.5144 37.0744 34.2652 37.0744 34.0059C37.0744 33.7466 36.9736 33.4974 36.7934 33.3109ZM26.0834 31.0209C24.6989 31.0209 23.3456 30.6104 22.1944 29.8412C21.0433 29.072 20.1461 27.9788 19.6162 26.6997C19.0864 25.4206 18.9478 24.0131 19.2179 22.6553C19.488 21.2974 20.1547 20.0501 21.1337 19.0712C22.1126 18.0922 23.3599 17.4255 24.7178 17.1554C26.0756 16.8853 27.4831 17.0239 28.7622 17.5537C30.0413 18.0836 31.1345 18.9808 31.9037 20.1319C32.6729 21.2831 33.0834 22.6364 33.0834 24.0209C33.0834 25.8774 32.3459 27.6579 31.0331 28.9706C29.7204 30.2834 27.9399 31.0209 26.0834 31.0209Z" fill="white"/>
</svg>
