<svg width="22" height="26" viewBox="0 0 22 26" fill="none" xmlns="http://www.w3.org/2000/svg">
<path d="M11.0005 10.5002C10.6689 10.5002 10.351 10.6319 10.1166 10.8663C9.88216 11.1007 9.75046 11.4186 9.75046 11.7502V14.2502C9.75046 14.5817 9.88216 14.8996 10.1166 15.134C10.351 15.3685 10.6689 15.5002 11.0005 15.5002C11.332 15.5002 11.6499 15.3685 11.8843 15.134C12.1188 14.8996 12.2505 14.5817 12.2505 14.2502V11.7502C12.2505 11.4186 12.1188 11.1007 11.8843 10.8663C11.6499 10.6319 11.332 10.5002 11.0005 10.5002ZM21.5755 10.1002C21.4097 8.26842 20.7713 6.51108 19.7227 5.00005C18.6742 3.48902 17.2513 2.27606 15.5933 1.47985C13.9354 0.68363 12.0992 0.331424 10.2643 0.457686C8.4294 0.583949 6.65872 1.18435 5.12546 2.20016C3.81196 3.07847 2.70928 4.23679 1.89664 5.5919C1.084 6.94702 0.58158 8.46529 0.425462 10.0377C0.272315 11.5997 0.468804 13.1763 1.00067 14.653C1.53254 16.1297 2.38646 17.4695 3.50046 18.5752L10.1255 25.2127C10.2417 25.3298 10.3799 25.4228 10.5322 25.4863C10.6846 25.5497 10.8479 25.5824 11.013 25.5824C11.178 25.5824 11.3414 25.5497 11.4937 25.4863C11.646 25.4228 11.7843 25.3298 11.9005 25.2127L18.5005 18.5752C19.6145 17.4695 20.4684 16.1297 21.0002 14.653C21.5321 13.1763 21.7286 11.5997 21.5755 10.0377V10.1002ZM16.7505 16.8127L11.0005 22.5627L5.25046 16.8127C4.40307 15.9652 3.75396 14.9406 3.3498 13.8124C2.94563 12.6842 2.79644 11.4804 2.91296 10.2877C3.03023 9.07654 3.41517 7.90661 4.03992 6.86247C4.66468 5.81832 5.51366 4.92605 6.52546 4.25016C7.85164 3.36921 9.40834 2.89928 11.0005 2.89928C12.5926 2.89928 14.1493 3.36921 15.4755 4.25016C16.4842 4.92344 17.3313 5.81177 17.9559 6.85134C18.5805 7.89091 18.9671 9.05592 19.088 10.2627C19.2083 11.4594 19.061 12.668 18.6567 13.8008C18.2524 14.9337 17.6013 15.9625 16.7505 16.8127ZM12.1505 7.46266C12.1255 7.38587 12.0874 7.31398 12.038 7.25016L11.888 7.06266C11.7387 6.92097 11.5568 6.81831 11.3584 6.76379C11.16 6.70928 10.9511 6.7046 10.7505 6.75016H10.5255L10.3005 6.86266L10.113 7.02516L9.96296 7.21266C9.91348 7.27648 9.87542 7.34837 9.85046 7.42516C9.8124 7.4996 9.78705 7.57987 9.77546 7.66266C9.75473 7.7739 9.74635 7.88709 9.75046 8.00016C9.74611 8.16817 9.78032 8.33494 9.85046 8.48766C9.91414 8.63519 10.003 8.77054 10.113 8.88766C10.2319 9.00447 10.3719 9.09777 10.5255 9.16266C10.8315 9.27891 11.1695 9.27891 11.4755 9.16266C11.6274 9.09472 11.7668 9.00176 11.888 8.88766C11.998 8.77054 12.0868 8.63519 12.1505 8.48766C12.2161 8.33351 12.2501 8.16772 12.2505 8.00016C12.2566 7.92112 12.2566 7.84171 12.2505 7.76266C12.2388 7.65669 12.2047 7.55442 12.1505 7.46266Z" fill="#003287"/>
</svg>
