<svg width="26" height="30" viewBox="0 0 26 30" fill="none" xmlns="http://www.w3.org/2000/svg">
<path d="M24.2969 15.0625H23.293V14.0586C23.293 13.5732 22.8995 13.1797 22.4141 13.1797H19.5273V11.1718H19.5898C20.0752 11.1718 20.4687 10.7783 20.4687 10.2929V6.52734C20.4687 6.04195 20.0752 5.64844 19.5898 5.64844H19.443C19.0312 3.50648 17.1436 1.88279 14.8828 1.88279H13.8789V0.878906C13.8789 0.393516 13.4854 0 13 0C12.5146 0 12.1211 0.393516 12.1211 0.878906V1.88279H11.1171C8.8566 1.88279 6.96918 3.50613 6.55709 5.64844H6.41014C5.92475 5.64844 5.53123 6.04195 5.53123 6.52734V10.293C5.53123 10.7784 5.92475 11.1719 6.41014 11.1719H6.4726V13.1797H3.58592C3.10053 13.1797 2.70701 13.5732 2.70701 14.0586V15.0626H1.70312C1.21773 15.0626 0.824219 15.4561 0.824219 15.9415C0.824219 16.4269 1.21773 16.8204 1.70312 16.8204H2.70701V17.8242C2.70701 18.3096 3.10053 18.7031 3.58592 18.7031H6.47266V24.4765H6.41019C5.9248 24.4765 5.53129 24.8701 5.53129 25.3554V29.1211C5.53129 29.6065 5.9248 30 6.41019 30H19.5899C20.0753 30 20.4688 29.6065 20.4688 29.1211V25.3554C20.4688 24.8701 20.0753 24.4765 19.5899 24.4765H19.5273V18.7031H22.4141C22.8995 18.7031 23.293 18.3096 23.293 17.8242V16.8203H24.2969C24.7823 16.8203 25.1758 16.4268 25.1758 15.9414C25.1758 15.456 24.7823 15.0625 24.2969 15.0625ZM6.47266 16.9453H4.46482V14.9375H6.47266V16.9453ZM11.1171 3.64061H14.8828C16.1685 3.64061 17.2605 4.48523 17.633 5.64844H8.36705C8.73947 4.48523 9.83154 3.64061 11.1171 3.64061ZM18.711 28.2422H7.28904V26.2344H18.711V28.2422ZM17.7695 22.4688V24.4766H8.23047V22.4688H17.7695ZM8.23047 20.711V11.1719H17.7695V20.711H8.23047ZM18.711 9.41408H7.28904V7.40625H18.711V9.41408ZM21.5352 16.9453H19.5273V14.9375H21.5352V16.9453Z" fill="#003287"/>
<path d="M13 13.1797C11.4772 13.1797 10.2383 14.4186 10.2383 15.9414C10.2383 17.4642 11.4772 18.7031 13 18.7031C14.5228 18.7031 15.7618 17.4642 15.7618 15.9414C15.7618 14.4186 14.5228 13.1797 13 13.1797ZM13 16.9453C12.4465 16.9453 11.9961 16.495 11.9961 15.9414C11.9961 15.3878 12.4465 14.9375 13 14.9375C13.5536 14.9375 14.004 15.3878 14.004 15.9414C14.004 16.495 13.5536 16.9453 13 16.9453Z" fill="#003287"/>
</svg>
