<svg width="33" height="31" viewBox="0 0 33 31" fill="none" xmlns="http://www.w3.org/2000/svg">
<path d="M18.218 15.7838C18.9295 15.1873 19.5001 14.4494 19.8912 13.6203C20.2823 12.7913 20.4847 11.8904 20.4847 10.9788C20.4847 9.26599 19.7823 7.62328 18.5321 6.41211C17.2818 5.20094 15.5861 4.52051 13.818 4.52051C12.0499 4.52051 10.3542 5.20094 9.10399 6.41211C7.85375 7.62328 7.15137 9.26599 7.15137 10.9788C7.15136 11.8904 7.35377 12.7913 7.74487 13.6203C8.13597 14.4494 8.7066 15.1873 9.41803 15.7838C7.55155 16.6026 5.96799 17.9248 4.85667 19.5924C3.74536 21.2599 3.15333 23.2023 3.15137 25.1872C3.15137 25.5297 3.29184 25.8583 3.54189 26.1005C3.79194 26.3428 4.13108 26.4788 4.4847 26.4788C4.83832 26.4788 5.17746 26.3428 5.42751 26.1005C5.67756 25.8583 5.81803 25.5297 5.81803 25.1872C5.81803 23.1318 6.66089 21.1605 8.16118 19.7071C9.66147 18.2537 11.6963 17.4372 13.818 17.4372C15.9398 17.4372 17.9746 18.2537 19.4749 19.7071C20.9752 21.1605 21.818 23.1318 21.818 25.1872C21.818 25.5297 21.9585 25.8583 22.2086 26.1005C22.4586 26.3428 22.7977 26.4788 23.1514 26.4788C23.505 26.4788 23.8441 26.3428 24.0942 26.1005C24.3442 25.8583 24.4847 25.5297 24.4847 25.1872C24.4827 23.2023 23.8907 21.2599 22.7794 19.5924C21.6681 17.9248 20.0845 16.6026 18.218 15.7838ZM13.818 14.8538C13.0269 14.8538 12.2535 14.6266 11.5958 14.2008C10.938 13.775 10.4253 13.1698 10.1225 12.4617C9.81977 11.7537 9.74055 10.9745 9.89489 10.2229C10.0492 9.47119 10.4302 8.78073 10.9896 8.2388C11.549 7.69687 12.2617 7.32782 13.0377 7.1783C13.8136 7.02878 14.6179 7.10552 15.3488 7.39881C16.0797 7.6921 16.7044 8.18877 17.1439 8.82601C17.5834 9.46325 17.818 10.2124 17.818 10.9788C17.818 12.0066 17.3966 12.9922 16.6465 13.7189C15.8963 14.4456 14.8789 14.8538 13.818 14.8538ZM29.4314 11.7926C29.3074 11.6715 29.16 11.5754 28.9975 11.5099C28.835 11.4443 28.6607 11.4105 28.4847 11.4105C28.3087 11.4105 28.1344 11.4443 27.9719 11.5099C27.8095 11.5754 27.662 11.6715 27.538 11.7926L24.8714 14.3759L24.0447 13.5622C23.9207 13.4411 23.7733 13.345 23.6108 13.2794C23.4483 13.2139 23.274 13.1801 23.098 13.1801C22.922 13.1801 22.7477 13.2139 22.5853 13.2794C22.4228 13.345 22.2753 13.4411 22.1514 13.5622C21.903 13.8042 21.7636 14.1316 21.7636 14.4728C21.7636 14.814 21.903 15.1414 22.1514 15.3834L23.938 17.1143C24.1879 17.3548 24.5258 17.4899 24.878 17.4899C25.2303 17.4899 25.5682 17.3548 25.818 17.1143L29.378 13.6655C29.5127 13.5484 29.6213 13.4059 29.6972 13.2469C29.7732 13.0878 29.8149 12.9154 29.8199 12.7401C29.8249 12.5649 29.793 12.3906 29.7262 12.2277C29.6594 12.0648 29.5591 11.9167 29.4314 11.7926Z" fill="#2274FF"/>
</svg>
