<svg width="48" height="59" viewBox="0 0 48 59" fill="none" xmlns="http://www.w3.org/2000/svg">
<path d="M46.198 29.623H44.2237V27.6485C44.2237 26.6939 43.4498 25.92 42.4952 25.92H36.818V21.9713H36.9408C37.8954 21.9713 38.6693 21.1974 38.6693 20.2428V12.8371C38.6693 11.8825 37.8954 11.1086 36.9408 11.1086H36.652C35.8422 6.89609 32.1299 3.70283 27.6837 3.70283H25.7094V1.72852C25.7094 0.773914 24.9355 0 23.9809 0C23.0263 0 22.2523 0.773914 22.2523 1.72852V3.70283H20.2779C15.8322 3.70283 12.1202 6.89539 11.3098 11.1086H11.0208C10.0662 11.1086 9.29228 11.8825 9.29228 12.8371V20.2429C9.29228 21.1975 10.0662 21.9714 11.0208 21.9714H11.1436V25.9201H5.4665C4.5119 25.9201 3.73798 26.694 3.73798 27.6486V29.6231H1.76367C0.80907 29.6231 0.0351562 30.397 0.0351562 31.3516C0.0351562 32.3062 0.80907 33.0801 1.76367 33.0801H3.73798V35.0543C3.73798 36.0089 4.5119 36.7828 5.4665 36.7828H11.1437V48.1372H11.0209C10.0663 48.1372 9.29239 48.9111 9.29239 49.8657V57.2715C9.29239 58.2261 10.0663 59 11.0209 59H36.941C37.8956 59 38.6695 58.2261 38.6695 57.2715V49.8657C38.6695 48.9111 37.8956 48.1372 36.941 48.1372H36.818V36.7828H42.4952C43.4498 36.7828 44.2237 36.0089 44.2237 35.0543V33.08H46.198C47.1526 33.08 47.9266 32.3061 47.9266 31.3515C47.9266 30.3969 47.1526 29.623 46.198 29.623V29.623ZM11.1437 33.3258H7.19501V29.377H11.1437V33.3258ZM20.2779 7.15986H27.6838C30.2122 7.15986 32.3599 8.82096 33.0924 11.1086H14.8694C15.6018 8.82096 17.7496 7.15986 20.2779 7.15986V7.15986ZM35.2124 55.543H12.7493V51.5942H35.2124V55.543ZM33.3609 44.1886V48.1373H14.6008V44.1886H33.3609ZM14.6008 40.7316V21.9714H33.3609V40.7316H14.6008ZM35.2124 18.5144H12.7493V14.5656H35.2124V18.5144ZM40.7667 33.3258H36.818V29.377H40.7667V33.3258Z" fill="#2274FF"/>
</svg>
