<svg width="28" height="27" viewBox="0 0 28 27" fill="none" xmlns="http://www.w3.org/2000/svg">
<path d="M13.0309 20.6211C13.1582 20.7484 13.3092 20.8493 13.4755 20.9182C13.6418 20.9871 13.82 21.0225 14 21.0225C14.18 21.0225 14.3582 20.9871 14.5245 20.9182C14.6908 20.8493 14.8419 20.7484 14.9692 20.6211L20.1377 15.4525C20.3947 15.1955 20.5391 14.8469 20.5391 14.4834C20.5391 14.12 20.3947 13.7714 20.1377 13.5143C19.8807 13.2573 19.5321 13.1129 19.1686 13.1129C18.8051 13.1129 18.4565 13.2573 18.1995 13.5143L15.3705 16.3433V1.37834C15.3705 1.01485 15.2262 0.666254 14.9691 0.40923C14.7121 0.152207 14.3635 0.0078125 14 0.0078125C13.6365 0.0078125 13.2879 0.152207 13.0309 0.40923C12.7739 0.666254 12.6295 1.01485 12.6295 1.37834V16.3433L9.80056 13.5143C9.54354 13.2573 9.19494 13.1129 8.83146 13.1129C8.46797 13.1129 8.11937 13.2573 7.86235 13.5143C7.60533 13.7714 7.46094 14.12 7.46094 14.4834C7.46094 14.8469 7.60533 15.1955 7.86235 15.4525L13.0309 20.6211Z" fill="#003287"/>
<path d="M25.8783 11.8857C25.5148 11.8857 25.1662 12.0301 24.9091 12.2872C24.6521 12.5442 24.5077 12.8928 24.5077 13.2563V23.7636H3.493V13.2563C3.493 12.8928 3.34861 12.5442 3.09159 12.2872C2.83456 12.0301 2.48596 11.8857 2.12248 11.8857C1.75899 11.8857 1.41039 12.0301 1.15337 12.2872C0.896347 12.5442 0.751953 12.8928 0.751953 13.2563V24.2205C0.751953 24.8263 0.99261 25.4073 1.42098 25.8357C1.84935 26.264 2.43035 26.5047 3.03616 26.5047H24.9646C25.5704 26.5047 26.1514 26.264 26.5797 25.8357C27.0081 25.4073 27.2488 24.8263 27.2488 24.2205V13.2563C27.2488 12.8928 27.1044 12.5442 26.8474 12.2872C26.5903 12.0301 26.2417 11.8857 25.8783 11.8857Z" fill="#003287"/>
</svg>
