<svg width="38" height="38" viewBox="0 0 38 38" fill="none" xmlns="http://www.w3.org/2000/svg">
<path d="M18.75 2C9.22406 2 1.5 9.72406 1.5 19.25C1.5 28.7759 9.22406 36.5 18.75 36.5C28.2759 36.5 36 28.7759 36 19.25C36 9.72406 28.2759 2 18.75 2Z" stroke="#003DA5" stroke-width="3" stroke-miterlimit="10"/>
<path d="M16.125 16.625H19.125V27.5" stroke="#003DA5" stroke-width="3" stroke-linecap="round" stroke-linejoin="round"/>
<path d="M15 27.875H23.25" stroke="#003DA5" stroke-width="3" stroke-miterlimit="10" stroke-linecap="round"/>
<path d="M18.75 8.1875C18.2679 8.1875 17.7966 8.33046 17.3958 8.59829C16.995 8.86613 16.6825 9.24681 16.498 9.69221C16.3136 10.1376 16.2653 10.6277 16.3593 11.1005C16.4534 11.5734 16.6855 12.0077 17.0264 12.3486C17.3673 12.6895 17.8016 12.9216 18.2745 13.0157C18.7473 13.1097 19.2374 13.0614 19.6828 12.877C20.1282 12.6925 20.5089 12.38 20.7767 11.9792C21.0445 11.5784 21.1875 11.1071 21.1875 10.625C21.1875 9.97853 20.9307 9.35855 20.4736 8.90143C20.0165 8.44431 19.3965 8.1875 18.75 8.1875V8.1875Z" fill="#003DA5"/>
</svg>
