<svg width="32" height="26" viewBox="0 0 32 26" fill="none" xmlns="http://www.w3.org/2000/svg">
<path d="M31.0244 3.81773C29.8767 4.31565 28.6629 4.6448 27.4209 4.79495C28.7312 4.01214 29.7132 2.78063 30.1846 1.32888C28.9532 2.06189 27.6053 2.57834 26.1994 2.85578C25.2596 1.83669 24.0082 1.15832 22.6414 0.927079C21.2746 0.695837 19.8697 0.924799 18.647 1.57806C17.4243 2.23131 16.4531 3.27191 15.8855 4.53666C15.318 5.8014 15.1863 7.21874 15.5111 8.5664C13.0213 8.44047 10.5859 7.79219 8.36309 6.66367C6.14025 5.53515 4.17967 3.95163 2.60872 2.01599C2.05772 2.97819 1.76819 4.06787 1.76893 5.17668C1.76697 6.20639 2.01967 7.22062 2.50452 8.12904C2.98937 9.03747 3.69133 9.81191 4.54789 10.3834C3.55232 10.3563 2.57801 10.0892 1.70785 9.6047V9.68104C1.71531 11.1238 2.22088 12.5197 3.13904 13.6326C4.0572 14.7455 5.33158 15.5072 6.74663 15.7887C6.20192 15.9544 5.63638 16.0418 5.06704 16.0482C4.67293 16.0436 4.2798 16.0079 3.89132 15.9413C4.29429 17.1824 5.0741 18.267 6.12224 19.0443C7.17039 19.8215 8.43474 20.2526 9.73936 20.2778C7.53635 22.0112 4.81645 22.9572 2.01323 22.9651C1.50284 22.9668 0.992856 22.9362 0.486328 22.8735C3.3484 24.7214 6.68374 25.7024 10.0905 25.6983C12.4415 25.7227 14.7738 25.2784 16.9511 24.3914C19.1284 23.5043 21.1072 22.1923 22.7718 20.532C24.4364 18.8716 25.7535 16.8963 26.6461 14.7212C27.5387 12.5462 27.989 10.215 27.9706 7.86403C27.9706 7.60445 27.9706 7.32961 27.9706 7.05477C29.1687 6.16124 30.2021 5.06586 31.0244 3.81773Z" fill="white"/>
</svg>
