<svg width="19" height="23" viewBox="0 0 19 23" fill="none" xmlns="http://www.w3.org/2000/svg">
<path d="M18.2266 1.30367C18.1228 1.18858 17.9957 1.0968 17.8538 1.03436C17.7119 0.971927 17.5584 0.940258 17.4034 0.941438H2.03615C1.88113 0.940258 1.72762 0.971927 1.58573 1.03436C1.44383 1.0968 1.31677 1.18858 1.21291 1.30367C1.10932 1.41892 1.03132 1.5548 0.984018 1.70237C0.936721 1.84994 0.921205 2.00585 0.938492 2.15984L2.91428 19.9639C3.00382 20.773 3.3899 21.5203 3.99802 22.0616C4.60614 22.6028 5.39319 22.8996 6.20726 22.8947H13.2542C14.0683 22.8996 14.8554 22.6028 15.4635 22.0616C16.0716 21.5203 16.4577 20.773 16.5472 19.9639L18.5011 2.15984C18.5183 2.00585 18.5028 1.84994 18.4555 1.70237C18.4082 1.5548 18.3302 1.41892 18.2266 1.30367ZM14.33 19.7224C14.3001 19.9921 14.1714 20.2412 13.9687 20.4216C13.766 20.602 13.5036 20.701 13.2323 20.6993H6.19629C5.92493 20.701 5.66258 20.602 5.45987 20.4216C5.25717 20.2412 5.12847 19.9921 5.09863 19.7224L3.98999 9.72272H15.4496L14.33 19.7224ZM15.6911 7.5274H3.7485L3.26553 3.13676H16.174L15.6911 7.5274Z" fill="#003287"/>
</svg>
