<svg width="39" height="38" viewBox="0 0 39 38" fill="none" xmlns="http://www.w3.org/2000/svg">
<path d="M14.2894 14.2503C13.9762 14.2503 13.6701 14.3432 13.4097 14.5172C13.1494 14.6911 12.9464 14.9384 12.8266 15.2277C12.7067 15.5171 12.6754 15.8354 12.7365 16.1426C12.7976 16.4497 12.9484 16.7318 13.1698 16.9532C13.3912 17.1747 13.6734 17.3255 13.9805 17.3866C14.2876 17.4477 14.606 17.4163 14.8953 17.2965C15.1846 17.1766 15.4319 16.9737 15.6059 16.7133C15.7799 16.4529 15.8727 16.1468 15.8727 15.8337C15.8727 15.4137 15.7059 15.011 15.409 14.7141C15.112 14.4171 14.7093 14.2503 14.2894 14.2503ZM23.7894 20.5837C22.3781 20.5836 20.9924 20.9608 19.7758 21.6763C18.5593 22.3917 17.5561 23.4194 16.8702 24.6528C16.6638 25.0164 16.6096 25.4468 16.7193 25.8502C16.8291 26.2537 17.0939 26.5973 17.4561 26.8062C17.6927 26.9403 17.9599 27.0112 18.2319 27.012C18.5125 27.0115 18.7879 26.9365 19.0299 26.7946C19.2719 26.6527 19.4719 26.4491 19.6094 26.2045C20.0216 25.4578 20.6273 24.8359 21.3628 24.4041C22.0983 23.9723 22.9365 23.7464 23.7894 23.7503C24.2093 23.7503 24.612 23.5835 24.909 23.2866C25.2059 22.9896 25.3727 22.5869 25.3727 22.167C25.3727 21.7471 25.2059 21.3443 24.909 21.0474C24.612 20.7505 24.2093 20.5837 23.7894 20.5837ZM23.7894 14.2503C23.4762 14.2503 23.1701 14.3432 22.9097 14.5172C22.6494 14.6911 22.4464 14.9384 22.3266 15.2277C22.2067 15.5171 22.1754 15.8354 22.2365 16.1426C22.2976 16.4497 22.4484 16.7318 22.6698 16.9532C22.8912 17.1747 23.1734 17.3255 23.4805 17.3866C23.7876 17.4477 24.106 17.4163 24.3953 17.2965C24.6846 17.1766 24.9319 16.9737 25.1059 16.7133C25.2799 16.4529 25.3727 16.1468 25.3727 15.8337C25.3727 15.4137 25.2059 15.011 24.909 14.7141C24.612 14.4171 24.2093 14.2503 23.7894 14.2503ZM19.0394 3.16699C15.9079 3.16699 12.8466 4.0956 10.2429 5.83539C7.63909 7.57518 5.60969 10.048 4.4113 12.9412C3.21292 15.8343 2.89936 19.0179 3.51029 22.0893C4.12123 25.1606 5.62921 27.9819 7.84354 30.1962C10.0579 32.4105 12.8791 33.9185 15.9505 34.5294C19.0218 35.1404 22.2054 34.8268 25.0986 33.6284C27.9917 32.43 30.4645 30.4006 32.2043 27.7969C33.9441 25.1931 34.8727 22.1319 34.8727 19.0003C34.8727 16.9211 34.4632 14.8622 33.6675 12.9412C32.8718 11.0202 31.7055 9.27473 30.2353 7.80447C28.765 6.33421 27.0195 5.16793 25.0986 4.37223C23.1776 3.57653 21.1187 3.16699 19.0394 3.16699ZM19.0394 31.667C16.5342 31.667 14.0852 30.9241 12.0022 29.5323C9.91915 28.1404 8.29563 26.1622 7.33692 23.8476C6.37821 21.5331 6.12737 18.9863 6.61612 16.5292C7.10486 14.0721 8.31124 11.8151 10.0827 10.0436C11.8542 8.27217 14.1112 7.06579 16.5683 6.57705C19.0253 6.0883 21.5722 6.33914 23.8867 7.29785C26.2013 8.25656 28.1795 9.88008 29.5713 11.9631C30.9632 14.0461 31.7061 16.4951 31.7061 19.0003C31.7061 22.3597 30.3715 25.5816 27.9961 27.957C25.6206 30.3325 22.3988 31.667 19.0394 31.667Z" fill="white"/>
</svg>
