<svg width="23" height="17" viewBox="0 0 23 17" fill="none" xmlns="http://www.w3.org/2000/svg">
<path d="M12.2238 8.72C12.7574 8.25813 13.1854 7.68688 13.4787 7.04502C13.772 6.40316 13.9238 5.70571 13.9238 5C13.9238 3.67392 13.397 2.40215 12.4594 1.46447C11.5217 0.526784 10.2499 1.78911e-07 8.92383 1.78911e-07C7.59775 1.78911e-07 6.32598 0.526784 5.38829 1.46447C4.45061 2.40215 3.92383 3.67392 3.92383 5C3.92382 5.70571 4.07563 6.40316 4.36895 7.04502C4.66228 7.68688 5.09025 8.25813 5.62383 8.72C4.22397 9.35388 3.03629 10.3775 2.20281 11.6685C1.36932 12.9596 0.9253 14.4633 0.923828 16C0.923828 16.2652 1.02918 16.5196 1.21672 16.7071C1.40426 16.8946 1.65861 17 1.92383 17C2.18904 17 2.4434 16.8946 2.63093 16.7071C2.81847 16.5196 2.92383 16.2652 2.92383 16C2.92383 14.4087 3.55597 12.8826 4.68119 11.7574C5.80641 10.6321 7.33253 10 8.92383 10C10.5151 10 12.0413 10.6321 13.1665 11.7574C14.2917 12.8826 14.9238 14.4087 14.9238 16C14.9238 16.2652 15.0292 16.5196 15.2167 16.7071C15.4043 16.8946 15.6586 17 15.9238 17C16.189 17 16.4434 16.8946 16.6309 16.7071C16.8185 16.5196 16.9238 16.2652 16.9238 16C16.9224 14.4633 16.4783 12.9596 15.6448 11.6685C14.8114 10.3775 13.6237 9.35388 12.2238 8.72ZM8.92383 8C8.33048 8 7.75046 7.82405 7.25712 7.49441C6.76377 7.16476 6.37925 6.69623 6.15219 6.14805C5.92513 5.59987 5.86572 4.99667 5.98147 4.41473C6.09723 3.83279 6.38295 3.29824 6.80251 2.87868C7.22207 2.45912 7.75661 2.1734 8.33856 2.05764C8.9205 1.94189 9.5237 2.0013 10.0719 2.22836C10.6201 2.45542 11.0886 2.83994 11.4182 3.33329C11.7479 3.82664 11.9238 4.40666 11.9238 5C11.9238 5.79565 11.6078 6.55871 11.0451 7.12132C10.4825 7.68393 9.71948 8 8.92383 8ZM18.6638 8.32C19.3038 7.59933 19.7218 6.70905 19.8676 5.75634C20.0134 4.80362 19.8808 3.82907 19.4856 2.95C19.0904 2.07093 18.4496 1.3248 17.6403 0.801423C16.831 0.27805 15.8876 -0.0002576 14.9238 1.78911e-07C14.6586 1.78911e-07 14.4043 0.105357 14.2167 0.292893C14.0292 0.48043 13.9238 0.734784 13.9238 1C13.9238 1.26522 14.0292 1.51957 14.2167 1.70711C14.4043 1.89464 14.6586 2 14.9238 2C15.7195 2 16.4825 2.31607 17.0451 2.87868C17.6078 3.44129 17.9238 4.20435 17.9238 5C17.9224 5.52524 17.7831 6.0409 17.5199 6.49542C17.2567 6.94994 16.8787 7.32738 16.4238 7.59C16.2756 7.67552 16.1517 7.79766 16.0642 7.94474C15.9766 8.09182 15.9283 8.2589 15.9238 8.43C15.9196 8.59976 15.9588 8.7678 16.0375 8.91826C16.1162 9.06872 16.232 9.19665 16.3738 9.29L16.7638 9.55L16.8938 9.62C18.0992 10.1917 19.1161 11.096 19.8248 12.2263C20.5335 13.3566 20.9044 14.6659 20.8938 16C20.8938 16.2652 20.9992 16.5196 21.1867 16.7071C21.3743 16.8946 21.6286 17 21.8938 17C22.159 17 22.4134 16.8946 22.6009 16.7071C22.7885 16.5196 22.8938 16.2652 22.8938 16C22.902 14.4654 22.5177 12.9543 21.7773 11.6101C21.0369 10.2659 19.9652 9.13331 18.6638 8.32Z" fill="white"/>
</svg>
