<svg width="15" height="14" viewBox="0 0 15 14" fill="none" xmlns="http://www.w3.org/2000/svg">
<path d="M11.7613 6.0506C11.5702 6.0506 11.3868 6.12288 11.2516 6.25153C11.1165 6.38018 11.0405 6.55467 11.0405 6.73661V11.6622C11.0405 11.8441 10.9646 12.0186 10.8294 12.1472C10.6942 12.2759 10.5109 12.3482 10.3197 12.3482H2.39092C2.19975 12.3482 2.01641 12.2759 1.88124 12.1472C1.74606 12.0186 1.67012 11.8441 1.67012 11.6622V4.11606C1.67012 3.93411 1.74606 3.75963 1.88124 3.63097C2.01641 3.50232 2.19975 3.43005 2.39092 3.43005H7.56627C7.75744 3.43005 7.94078 3.35777 8.07595 3.22912C8.21113 3.10047 8.28707 2.92598 8.28707 2.74404C8.28707 2.5621 8.21113 2.38761 8.07595 2.25896C7.94078 2.1303 7.75744 2.05803 7.56627 2.05803H2.39092C1.81741 2.05803 1.2674 2.27486 0.861869 2.66081C0.45634 3.04677 0.228516 3.57023 0.228516 4.11606V11.6622C0.228516 12.208 0.45634 12.7314 0.861869 13.1174C1.2674 13.5034 1.81741 13.7202 2.39092 13.7202H10.3197C10.8932 13.7202 11.4432 13.5034 11.8488 13.1174C12.2543 12.7314 12.4821 12.208 12.4821 11.6622V6.73661C12.4821 6.55467 12.4062 6.38018 12.271 6.25153C12.1358 6.12288 11.9525 6.0506 11.7613 6.0506ZM14.5869 0.425326C14.5137 0.2577 14.3738 0.124493 14.1976 0.0548807C14.111 0.0197289 14.0179 0.00108389 13.9237 0H9.59893C9.40776 0 9.22442 0.0722757 9.08924 0.200927C8.95407 0.329579 8.87813 0.504068 8.87813 0.686009C8.87813 0.86795 8.95407 1.04244 9.08924 1.17109C9.22442 1.29974 9.40776 1.37202 9.59893 1.37202H12.1866L4.76235 8.43105C4.69479 8.49483 4.64117 8.5707 4.60458 8.6543C4.56798 8.73789 4.54914 8.82756 4.54914 8.91812C4.54914 9.00868 4.56798 9.09835 4.60458 9.18194C4.64117 9.26554 4.69479 9.34141 4.76235 9.40519C4.82936 9.46949 4.90908 9.52052 4.99692 9.55535C5.08475 9.59018 5.17897 9.60811 5.27412 9.60811C5.36928 9.60811 5.46349 9.59018 5.55133 9.55535C5.63916 9.52052 5.71888 9.46949 5.78589 9.40519L13.2029 2.33929V4.80206C13.2029 4.98401 13.2789 5.15849 13.4141 5.28715C13.5492 5.4158 13.7326 5.48807 13.9237 5.48807C14.1149 5.48807 14.2982 5.4158 14.4334 5.28715C14.5686 5.15849 14.6445 4.98401 14.6445 4.80206V0.686009C14.6434 0.596363 14.6238 0.507799 14.5869 0.425326Z" fill="#2274FF"/>
</svg>
