<svg width="28" height="23" viewBox="0 0 28 23" fill="none" xmlns="http://www.w3.org/2000/svg">
<path d="M18.3296 8.67557L14.4987 12.5065C14.2693 12.4455 14.0332 12.4131 13.7959 12.41C13.0649 12.41 12.3639 12.7004 11.8471 13.2172C11.3302 13.7341 11.0398 14.4351 11.0398 15.1661C11.0429 15.4034 11.0753 15.6395 11.1363 15.8688L10.0614 16.9437C9.93229 17.0718 9.82977 17.2242 9.75981 17.3921C9.68985 17.5601 9.65383 17.7402 9.65383 17.9221C9.65383 18.104 9.68985 18.2841 9.75981 18.4521C9.82977 18.62 9.93229 18.7724 10.0614 18.9005C10.1896 19.0297 10.342 19.1322 10.5099 19.2021C10.6778 19.2721 10.8579 19.3081 11.0398 19.3081C11.2218 19.3081 11.4019 19.2721 11.5698 19.2021C11.7377 19.1322 11.8901 19.0297 12.0182 18.9005L13.0931 17.8256C13.3225 17.8866 13.5585 17.919 13.7959 17.9221C14.5268 17.9221 15.2278 17.6317 15.7447 17.1149C16.2616 16.598 16.5519 15.897 16.5519 15.1661C16.5489 14.9287 16.5165 14.6927 16.4555 14.4633L20.2864 10.6324C20.5459 10.3729 20.6916 10.0209 20.6916 9.65397C20.6916 9.287 20.5459 8.93506 20.2864 8.67557C20.0269 8.41609 19.6749 8.27031 19.308 8.27031C18.941 8.27031 18.5891 8.41609 18.3296 8.67557ZM13.7959 0.0078125C11.9862 0.0078125 10.1943 0.364249 8.52243 1.05677C6.85053 1.74929 5.33141 2.76433 4.0518 4.04395C1.46751 6.62824 0.0156672 10.1333 0.0156672 13.788C0.00888105 16.5173 0.82005 19.186 2.34452 21.4498C2.54919 21.7532 2.86598 21.9628 3.22519 22.0326C3.58441 22.1023 3.95663 22.0266 4.25998 21.8219C4.56332 21.6172 4.77294 21.3005 4.84271 20.9412C4.91249 20.582 4.83671 20.2098 4.63204 19.9065C3.52207 18.2467 2.88372 16.3166 2.78515 14.3223C2.68659 12.328 3.13151 10.3444 4.07241 8.58329C5.01331 6.82215 6.41485 5.34962 8.1274 4.32293C9.83994 3.29625 11.7992 2.75395 13.7959 2.75395C15.7926 2.75395 17.7518 3.29625 19.4644 4.32293C21.1769 5.34962 22.5785 6.82215 23.5194 8.58329C24.4603 10.3444 24.9052 12.328 24.8066 14.3223C24.7081 16.3166 24.0697 18.2467 22.9597 19.9065C22.8582 20.0566 22.7872 20.2253 22.751 20.4029C22.7147 20.5804 22.7138 20.7634 22.7484 20.9414C22.7829 21.1193 22.8523 21.2887 22.9524 21.4398C23.0525 21.5909 23.1814 21.7207 23.3318 21.8219C23.5599 21.9752 23.8287 22.0568 24.1035 22.0562C24.3292 22.0565 24.5516 22.0014 24.751 21.8957C24.9504 21.7899 25.1208 21.6368 25.2473 21.4498C26.7717 19.186 27.5829 16.5173 27.5761 13.788C27.5761 10.1333 26.1243 6.62824 23.54 4.04395C20.9557 1.45965 17.4506 0.0078125 13.7959 0.0078125Z" fill="#003287"/>
</svg>
