<svg width="21" height="20" viewBox="0 0 21 20" fill="none" xmlns="http://www.w3.org/2000/svg">
<path d="M19.7934 18.3109L16.0834 14.6309C17.5235 12.8353 18.2209 10.5562 18.0322 8.2622C17.8435 5.9682 16.7831 3.83368 15.0689 2.29754C13.3548 0.761407 11.1172 -0.0595894 8.81632 0.00337096C6.51544 0.0663314 4.32612 1.00846 2.69854 2.63604C1.07096 4.26362 0.128831 6.45294 0.065871 8.75382C0.00291055 11.0547 0.823907 13.2923 2.36004 15.0064C3.89618 16.7206 6.0307 17.781 8.3247 17.9697C10.6187 18.1584 12.8978 17.461 14.6934 16.0209L18.3734 19.7009C18.4664 19.7946 18.577 19.869 18.6988 19.9198C18.8207 19.9706 18.9514 19.9967 19.0834 19.9967C19.2154 19.9967 19.3461 19.9706 19.468 19.9198C19.5898 19.869 19.7004 19.7946 19.7934 19.7009C19.9736 19.5144 20.0744 19.2652 20.0744 19.0059C20.0744 18.7466 19.9736 18.4974 19.7934 18.3109ZM9.0834 16.0209C7.69893 16.0209 6.34555 15.6104 5.19441 14.8412C4.04326 14.072 3.14606 12.9788 2.61624 11.6997C2.08643 10.4206 1.94781 9.01314 2.2179 7.65527C2.488 6.2974 3.15469 5.05012 4.13365 4.07115C5.11262 3.09219 6.3599 2.4255 7.71777 2.1554C9.07564 1.88531 10.4831 2.02393 11.7622 2.55374C13.0413 3.08356 14.1345 3.98076 14.9037 5.13191C15.6729 6.28305 16.0834 7.63643 16.0834 9.0209C16.0834 10.8774 15.3459 12.6579 14.0331 13.9706C12.7204 15.2834 10.9399 16.0209 9.0834 16.0209Z" fill="white"/>
</svg>
