<svg width="25" height="24" viewBox="0 0 25 24" fill="none" xmlns="http://www.w3.org/2000/svg">
<path d="M23.9926 6.90406C23.9984 6.82907 23.9984 6.75376 23.9926 6.67877L21.6211 0.749941C21.5285 0.515582 21.3636 0.316825 21.1504 0.1825C20.9372 0.0481759 20.6867 -0.0147295 20.4354 0.00290915H3.83464C3.59716 0.00267925 3.36507 0.0737642 3.16846 0.206957C2.97184 0.340149 2.81975 0.529311 2.73188 0.749941L0.360347 6.67877C0.354631 6.75376 0.354631 6.82907 0.360347 6.90406C0.320945 6.97007 0.292889 7.04222 0.277344 7.1175C0.290542 7.93715 0.51595 8.73939 0.931583 9.44596C1.34722 10.1525 1.93888 10.7393 2.64887 11.1491V22.5324C2.64887 22.8469 2.7738 23.1485 2.99618 23.3709C3.21855 23.5933 3.52015 23.7182 3.83464 23.7182H20.4354C20.7498 23.7182 21.0514 23.5933 21.2738 23.3709C21.4962 23.1485 21.6211 22.8469 21.6211 22.5324V11.1965C22.338 10.7827 22.934 10.1884 23.3501 9.47283C23.7661 8.75724 23.9876 7.94523 23.9926 7.1175C24.0038 7.04679 24.0038 6.97477 23.9926 6.90406ZM13.3208 21.3467H10.9492V16.6036H13.3208V21.3467ZM19.2496 21.3467H15.6923V15.4179C15.6923 15.1034 15.5674 14.8018 15.345 14.5794C15.1226 14.357 14.821 14.2321 14.5065 14.2321H9.76346C9.44898 14.2321 9.14738 14.357 8.925 14.5794C8.70263 14.8018 8.5777 15.1034 8.5777 15.4179V21.3467H5.0204V11.8606C5.69566 11.8568 6.36232 11.7088 6.97579 11.4266C7.58927 11.1444 8.13541 10.7345 8.5777 10.2242C9.0228 10.7289 9.57019 11.1331 10.1835 11.41C10.7968 11.6868 11.4621 11.83 12.135 11.83C12.8079 11.83 13.4731 11.6868 14.0865 11.41C14.6998 11.1331 15.2472 10.7289 15.6923 10.2242C16.1346 10.7345 16.6807 11.1444 17.2942 11.4266C17.9077 11.7088 18.5743 11.8568 19.2496 11.8606V21.3467ZM19.2496 9.48903C18.6206 9.48903 18.0174 9.23917 17.5727 8.79443C17.1279 8.34968 16.8781 7.74647 16.8781 7.1175C16.8781 6.80302 16.7531 6.50141 16.5308 6.27904C16.3084 6.05666 16.0068 5.93174 15.6923 5.93174C15.3778 5.93174 15.0762 6.05666 14.8538 6.27904C14.6315 6.50141 14.5065 6.80302 14.5065 7.1175C14.5065 7.74647 14.2567 8.34968 13.8119 8.79443C13.3672 9.23917 12.764 9.48903 12.135 9.48903C11.506 9.48903 10.9028 9.23917 10.4581 8.79443C10.0133 8.34968 9.76346 7.74647 9.76346 7.1175C9.76346 6.80302 9.63854 6.50141 9.41616 6.27904C9.19379 6.05666 8.89218 5.93174 8.5777 5.93174C8.26322 5.93174 7.96161 6.05666 7.73924 6.27904C7.51686 6.50141 7.39193 6.80302 7.39193 7.1175C7.40361 7.42893 7.35384 7.73962 7.24545 8.03182C7.13705 8.32401 6.97217 8.592 6.76021 8.82047C6.54826 9.04895 6.29337 9.23344 6.01011 9.36341C5.72685 9.49338 5.42077 9.56628 5.10934 9.57796C4.48037 9.60155 3.86779 9.37431 3.40636 8.94624C3.17789 8.73428 2.9934 8.4794 2.86343 8.19614C2.73346 7.91288 2.66055 7.6068 2.64887 7.29536L4.64096 2.37444H19.629L21.6211 7.29536C21.5762 7.89301 21.3066 8.45148 20.8666 8.85845C20.4267 9.26542 19.8489 9.49072 19.2496 9.48903Z" fill="#003287"/>
</svg>
