<svg width="40" height="48" viewBox="0 0 40 48" fill="none" xmlns="http://www.w3.org/2000/svg">
<path d="M21.542 35.4805C21.4374 35.3844 21.3235 35.2989 21.202 35.2255C21.0935 35.1414 20.9712 35.0767 20.8407 35.0343C20.7142 34.9696 20.5777 34.9265 20.437 34.9068C20.0298 34.8207 19.606 34.8653 19.2257 35.0343C18.962 35.1297 18.7225 35.282 18.5242 35.4803C18.3259 35.6786 18.1736 35.9181 18.0782 36.1818C17.9592 36.434 17.901 36.7105 17.9082 36.9893C17.9048 37.2655 17.9553 37.5398 18.057 37.7968C18.1802 38.0507 18.3374 38.2866 18.5245 38.498C18.723 38.695 18.9585 38.8508 19.2174 38.9565C19.4763 39.0623 19.7535 39.1159 20.0332 39.1143C20.312 39.1214 20.5885 39.0632 20.8407 38.9443C21.0982 38.8366 21.3354 38.6857 21.542 38.498C21.7389 38.2994 21.8947 38.064 22.0005 37.8051C22.1062 37.5462 22.1598 37.2689 22.1582 36.9893C22.1548 36.7116 22.0971 36.4372 21.9882 36.1818C21.8871 35.9209 21.7354 35.6826 21.542 35.4805V35.4805ZM12.702 26.7255C12.5935 26.6414 12.4712 26.5767 12.3407 26.5343C12.2169 26.4547 12.0803 26.3972 11.937 26.3643C11.6643 26.3008 11.3808 26.3008 11.1082 26.3643L10.7257 26.4918L10.3432 26.683L10.0245 26.938C9.62608 27.3559 9.40519 27.9119 9.4082 28.4893C9.40659 28.7689 9.46019 29.0462 9.56594 29.3051C9.67169 29.564 9.82751 29.7994 10.0245 29.998C10.231 30.1857 10.4682 30.3366 10.7257 30.4443C11.0476 30.5765 11.3971 30.6277 11.7435 30.5932C12.0898 30.5588 12.4224 30.4398 12.712 30.2468C13.0016 30.0537 13.2393 29.7925 13.4043 29.486C13.5693 29.1796 13.6565 28.8373 13.6582 28.4893C13.6504 27.9266 13.4303 27.3877 13.042 26.9805L12.702 26.7255ZM13.042 35.4805C12.8399 35.287 12.6015 35.1354 12.3407 35.0343C11.956 34.8559 11.5268 34.7967 11.1082 34.8643L10.7257 34.9918C10.5903 35.0383 10.4617 35.1026 10.3432 35.183C10.2319 35.2615 10.1254 35.3466 10.0245 35.438C9.83099 35.6401 9.67934 35.8784 9.5782 36.1393C9.46578 36.3936 9.40771 36.6687 9.40771 36.9468C9.40771 37.2249 9.46578 37.4999 9.5782 37.7543C9.68582 38.0118 9.83675 38.249 10.0245 38.4555C10.2195 38.6601 10.4534 38.8238 10.7124 38.9369C10.9715 39.05 11.2505 39.1103 11.5332 39.1143C11.812 39.1214 12.0885 39.0632 12.3407 38.9443C12.5982 38.8366 12.8354 38.6857 13.042 38.498C13.2297 38.2915 13.3806 38.0543 13.4882 37.7968C13.6006 37.5424 13.6587 37.2674 13.6587 36.9893C13.6587 36.7112 13.6006 36.4361 13.4882 36.1818C13.3871 35.9209 13.2354 35.6826 13.042 35.4805V35.4805ZM19.2257 26.5343C18.9649 26.6354 18.7265 26.787 18.5245 26.9805C18.1361 27.3877 17.916 27.9266 17.9082 28.4893C17.9099 28.8373 17.9971 29.1796 18.1621 29.486C18.3271 29.7925 18.5648 30.0537 18.8544 30.2468C19.144 30.4398 19.4766 30.5588 19.8229 30.5932C20.1693 30.6277 20.5188 30.5765 20.8407 30.4443C21.0982 30.3366 21.3354 30.1857 21.542 29.998C21.7389 29.7994 21.8947 29.564 22.0005 29.3051C22.1062 29.0462 22.1598 28.7689 22.1582 28.4893C22.1504 27.9266 21.9303 27.3877 21.542 26.9805C21.2431 26.6856 20.8637 26.4859 20.4514 26.4065C20.0392 26.3271 19.6127 26.3715 19.2257 26.5343V26.5343ZM30.042 35.4805C29.8354 35.2928 29.5982 35.1419 29.3407 35.0343C28.9537 34.8715 28.5272 34.8271 28.115 34.9065C27.7027 34.9859 27.3233 35.1856 27.0245 35.4805C26.831 35.6826 26.6793 35.9209 26.5782 36.1818C26.4658 36.4361 26.4077 36.7112 26.4077 36.9893C26.4077 37.2674 26.4658 37.5424 26.5782 37.7968C26.6858 38.0543 26.8367 38.2915 27.0245 38.498C27.223 38.695 27.4585 38.8508 27.7174 38.9565C27.9763 39.0623 28.2535 39.1159 28.5332 39.1143C28.812 39.1214 29.0885 39.0632 29.3407 38.9443C29.5982 38.8366 29.8354 38.6857 30.042 38.498C30.3368 38.1992 30.5366 37.8197 30.616 37.4075C30.6954 36.9953 30.6509 36.5687 30.4882 36.1818C30.3871 35.9209 30.2354 35.6826 30.042 35.4805ZM28.5332 9.36426H11.5332C10.9696 9.36426 10.4291 9.58814 10.0306 9.98666C9.63209 10.3852 9.4082 10.9257 9.4082 11.4893V19.9893C9.4082 20.5528 9.63209 21.0933 10.0306 21.4919C10.4291 21.8904 10.9696 22.1143 11.5332 22.1143H28.5332C29.0968 22.1143 29.6373 21.8904 30.0358 21.4919C30.4343 21.0933 30.6582 20.5528 30.6582 19.9893V11.4893C30.6582 10.9257 30.4343 10.3852 30.0358 9.98666C29.6373 9.58814 29.0968 9.36426 28.5332 9.36426ZM26.4082 17.8643H13.6582V13.6143H26.4082V17.8643ZM32.7832 0.864258H7.2832C5.59245 0.864258 3.97094 1.53591 2.7754 2.73145C1.57985 3.927 0.908203 5.5485 0.908203 7.23926V41.2393C0.908203 42.93 1.57985 44.5515 2.7754 45.7471C3.97094 46.9426 5.59245 47.6143 7.2832 47.6143H32.7832C34.474 47.6143 36.0955 46.9426 37.291 45.7471C38.4866 44.5515 39.1582 42.93 39.1582 41.2393V7.23926C39.1582 5.5485 38.4866 3.927 37.291 2.73145C36.0955 1.53591 34.474 0.864258 32.7832 0.864258V0.864258ZM34.9082 41.2393C34.9082 41.8028 34.6843 42.3433 34.2858 42.7419C33.8873 43.1404 33.3468 43.3643 32.7832 43.3643H7.2832C6.71962 43.3643 6.17912 43.1404 5.7806 42.7419C5.38209 42.3433 5.1582 41.8028 5.1582 41.2393V7.23926C5.1582 6.67567 5.38209 6.13517 5.7806 5.73666C6.17912 5.33814 6.71962 5.11426 7.2832 5.11426H32.7832C33.3468 5.11426 33.8873 5.33814 34.2858 5.73666C34.6843 6.13517 34.9082 6.67567 34.9082 7.23926V41.2393ZM29.702 26.7255C29.5935 26.6414 29.4712 26.5767 29.3407 26.5343C29.2142 26.4696 29.0777 26.4265 28.937 26.4068C28.6643 26.3433 28.3808 26.3433 28.1082 26.4068L27.7257 26.5343L27.3432 26.7255L27.0245 26.9805C26.6361 27.3877 26.416 27.9266 26.4082 28.4893C26.4099 28.8373 26.4971 29.1796 26.6621 29.486C26.8271 29.7925 27.0648 30.0537 27.3544 30.2468C27.644 30.4398 27.9766 30.5588 28.3229 30.5932C28.6693 30.6277 29.0188 30.5765 29.3407 30.4443C29.5982 30.3366 29.8354 30.1857 30.042 29.998C30.2389 29.7994 30.3947 29.564 30.5005 29.3051C30.6062 29.0462 30.6598 28.7689 30.6582 28.4893C30.6504 27.9266 30.4303 27.3877 30.042 26.9805L29.702 26.7255Z" fill="#2274FF"/>
</svg>
