<svg width="41" height="41" viewBox="0 0 41 41" fill="none" xmlns="http://www.w3.org/2000/svg">
<circle cx="20.0229" cy="20.0229" r="20.0229" fill="#19CE74"/>
<path d="M27.5623 11.2575C27.4463 11.0969 27.2557 11.0011 27.0524 11H14.1915C13.994 11 13.8079 11.0903 13.6908 11.2421L9.12172 17.1789C9.04249 17.2812 9 17.4056 9 17.5333C8.99771 18.8375 9.9795 19.9513 11.3219 20.1682L11.4045 20.1825V27.9495C11.408 29.0821 12.3668 29.9989 13.5484 30H27.6335C28.8151 29.9978 29.7728 29.0821 29.7774 27.9495V20.1417L29.852 20.1241C30.9808 19.8446 31.811 18.9245 31.9373 17.8128V17.7974L31.9442 17.7831C32.0349 17.5916 32.0142 17.3671 31.8879 17.1943L27.5623 11.2575ZM26.0764 28.808H22.8611V22.7117H26.0764V28.808ZM28.5337 27.9495C28.5337 28.4261 28.1307 28.8124 27.6335 28.8135H27.3142V22.1163C27.3131 21.7872 27.0352 21.5208 26.6919 21.5208H22.2445C21.9012 21.5208 21.6233 21.7872 21.6221 22.1163V28.808H13.5484C13.0535 28.8069 12.6505 28.4239 12.647 27.9495V20.0812L12.7136 20.0581C13.1672 19.9062 13.5714 19.6443 13.8895 19.2998L13.9641 19.2183L14.0387 19.2998C15.0538 20.4092 16.8142 20.5204 17.9717 19.5474C18.0635 19.4704 18.1497 19.3878 18.23 19.2998L18.3047 19.2183L18.3793 19.2998C19.3944 20.4092 21.1559 20.5204 22.3134 19.5474C22.4053 19.4704 22.4914 19.3878 22.5718 19.2998L22.6464 19.2183L22.7222 19.2998C23.7373 20.4092 25.4976 20.5204 26.6551 19.5474C26.747 19.4704 26.8331 19.3878 26.9135 19.2998L26.9881 19.2183L27.0628 19.2998C27.4314 19.7015 27.9183 19.9877 28.4591 20.1208L28.5337 20.1395V27.9495ZM30.7006 17.6874C30.6133 18.5029 29.8531 19.0973 29.0022 19.0136C28.2134 18.9366 27.6117 18.2993 27.6105 17.5388C27.6254 17.2097 27.359 16.9312 27.0157 16.9169C26.6723 16.9026 26.3818 17.158 26.3669 17.4871C26.3658 17.5047 26.3658 17.5212 26.3669 17.5388C26.3669 18.3598 25.6733 19.0246 24.8167 19.0246C23.9601 19.0246 23.2665 18.3598 23.2665 17.5388C23.2814 17.2097 23.015 16.9312 22.6717 16.9169C22.3283 16.9026 22.0378 17.158 22.0229 17.4871C22.0217 17.5047 22.0217 17.5212 22.0229 17.5388C22.0229 18.3598 21.3293 19.0246 20.4727 19.0246C19.616 19.0246 18.9225 18.3598 18.9225 17.5388C18.9374 17.2097 18.671 16.9312 18.3276 16.9169C17.9843 16.9026 17.6938 17.158 17.6789 17.4871C17.6777 17.5047 17.6777 17.5212 17.6789 17.5388C17.6789 18.3598 16.9853 19.0246 16.1287 19.0246C15.272 19.0246 14.5784 18.3598 14.5784 17.5388C14.5934 17.2097 14.327 16.9312 13.9836 16.9169C13.6403 16.9026 13.3498 17.158 13.3348 17.4871C13.3337 17.5047 13.3337 17.5212 13.3348 17.5388C13.3348 18.3587 12.6401 19.0235 11.7846 19.0224C11.0187 19.0224 10.3676 18.4853 10.2539 17.7589L10.2471 17.7193L14.4958 12.1997H26.7286L26.7585 12.2404L30.7052 17.651L30.7006 17.6874Z" fill="white"/>
<path d="M17.4992 23.4462H16.2502C16.184 23.4462 16.1204 23.4749 16.0736 23.5261C16.0267 23.5772 16.0004 23.6466 16.0004 23.7189C16.0004 23.7913 16.0267 23.8606 16.0736 23.9118C16.1204 23.9629 16.184 23.9917 16.2502 23.9917H16.7498C17.0595 23.9913 17.3583 24.1166 17.5882 24.3433C17.818 24.57 17.9625 24.8818 17.9937 25.2182C18.0248 25.5547 17.9403 25.8918 17.7566 26.1641C17.5729 26.4363 17.3031 26.6244 16.9996 26.6917V26.9917C16.9996 27.1363 16.9469 27.2751 16.8533 27.3773C16.7596 27.4796 16.6325 27.5371 16.5 27.5371C16.3675 27.5371 16.2404 27.4796 16.1467 27.3773C16.0531 27.2751 16.0004 27.1363 16.0004 26.9917V26.7189H15.5008C15.3683 26.7189 15.2413 26.6615 15.1476 26.5592C15.0539 26.4569 15.0013 26.3181 15.0013 26.1735C15.0013 26.0288 15.0539 25.8901 15.1476 25.7878C15.2413 25.6855 15.3683 25.628 15.5008 25.628H16.7498C16.816 25.628 16.8796 25.5993 16.9264 25.5481C16.9733 25.497 16.9996 25.4276 16.9996 25.3553C16.9996 25.283 16.9733 25.2136 16.9264 25.1624C16.8796 25.1113 16.816 25.0826 16.7498 25.0826H16.2502C15.9405 25.0829 15.6417 24.9576 15.4118 24.7309C15.182 24.5043 15.0375 24.1924 15.0063 23.856C14.9752 23.5195 15.0597 23.1824 15.2434 22.9102C15.4271 22.6379 15.6969 22.4499 16.0004 22.3826V22.0826C16.0004 21.9379 16.0531 21.7992 16.1467 21.6969C16.2404 21.5946 16.3675 21.5371 16.5 21.5371C16.6325 21.5371 16.7596 21.5946 16.8533 21.6969C16.9469 21.7992 16.9996 21.9379 16.9996 22.0826V22.3553H17.4992C17.6317 22.3553 17.7587 22.4128 17.8524 22.5151C17.9461 22.6173 17.9987 22.7561 17.9987 22.9007C17.9987 23.0454 17.9461 23.1841 17.8524 23.2864C17.7587 23.3887 17.6317 23.4462 17.4992 23.4462Z" fill="white"/>
</svg>
