<svg width="49" height="48" viewBox="0 0 49 48" fill="none" xmlns="http://www.w3.org/2000/svg">
<path d="M23.75 6C14.2241 6 6.5 13.7241 6.5 23.25C6.5 32.7759 14.2241 40.5 23.75 40.5C33.2759 40.5 41 32.7759 41 23.25C41 13.7241 33.2759 6 23.75 6Z" stroke="#003DA5" stroke-width="3" stroke-miterlimit="10"/>
<path d="M21.125 20.625H24.125V31.5" stroke="#003DA5" stroke-width="3" stroke-linecap="round" stroke-linejoin="round"/>
<path d="M20 31.875H28.25" stroke="#003DA5" stroke-width="3" stroke-miterlimit="10" stroke-linecap="round"/>
<path d="M23.75 12.1875C23.2679 12.1875 22.7966 12.3305 22.3958 12.5983C21.995 12.8661 21.6825 13.2468 21.498 13.6922C21.3136 14.1376 21.2653 14.6277 21.3593 15.1005C21.4534 15.5734 21.6855 16.0077 22.0264 16.3486C22.3673 16.6895 22.8016 16.9216 23.2745 17.0157C23.7473 17.1097 24.2374 17.0614 24.6828 16.877C25.1282 16.6925 25.5089 16.38 25.7767 15.9792C26.0445 15.5784 26.1875 15.1071 26.1875 14.625C26.1875 13.9785 25.9307 13.3585 25.4736 12.9014C25.0165 12.4443 24.3965 12.1875 23.75 12.1875Z" fill="#003DA5"/>
</svg>
