<svg width="27" height="26" viewBox="0 0 27 26" fill="none" xmlns="http://www.w3.org/2000/svg">
<path d="M12.1849 9.10518H17.3834C17.7281 9.10518 18.0586 8.96825 18.3024 8.72453C18.5461 8.4808 18.683 8.15024 18.683 7.80555C18.683 7.46087 18.5461 7.13031 18.3024 6.88658C18.0586 6.64286 17.7281 6.50593 17.3834 6.50593H14.7841V5.20631C14.7841 4.86163 14.6472 4.53106 14.4035 4.28733C14.1598 4.04361 13.8292 3.90668 13.4845 3.90668C13.1398 3.90668 12.8093 4.04361 12.5655 4.28733C12.3218 4.53106 12.1849 4.86163 12.1849 5.20631V6.50593C11.1509 6.50593 10.1592 6.9167 9.42798 7.64788C8.6968 8.37906 8.28602 9.37076 8.28602 10.4048C8.28602 11.4388 8.6968 12.4305 9.42798 13.1617C10.1592 13.8929 11.1509 14.3037 12.1849 14.3037H14.7841C15.1288 14.3037 15.4594 14.4406 15.7031 14.6843C15.9468 14.9281 16.0838 15.2586 16.0838 15.6033C16.0838 15.948 15.9468 16.2785 15.7031 16.5223C15.4594 16.766 15.1288 16.9029 14.7841 16.9029H9.58565C9.24097 16.9029 8.9104 17.0398 8.66667 17.2836C8.42295 17.5273 8.28602 17.8579 8.28602 18.2025C8.28602 18.5472 8.42295 18.8778 8.66667 19.1215C8.9104 19.3652 9.24097 19.5022 9.58565 19.5022H12.1849V20.8018C12.1849 21.1465 12.3218 21.477 12.5655 21.7208C12.8093 21.9645 13.1398 22.1014 13.4845 22.1014C13.8292 22.1014 14.1598 21.9645 14.4035 21.7208C14.6472 21.477 14.7841 21.1465 14.7841 20.8018V19.5022C15.8182 19.5022 16.8099 19.0914 17.5411 18.3602C18.2722 17.629 18.683 16.6373 18.683 15.6033C18.683 14.5693 18.2722 13.5776 17.5411 12.8464C16.8099 12.1152 15.8182 11.7044 14.7841 11.7044H12.1849C11.8402 11.7044 11.5096 11.5675 11.2659 11.3238C11.0222 11.08 10.8853 10.7495 10.8853 10.4048C10.8853 10.0601 11.0222 9.72956 11.2659 9.48583C11.5096 9.2421 11.8402 9.10518 12.1849 9.10518ZM22.5819 0.0078125H4.38715C3.35311 0.0078125 2.36141 0.418585 1.63023 1.14977C0.899054 1.88095 0.488281 2.87264 0.488281 3.90668V22.1014C0.488281 23.1355 0.899054 24.1272 1.63023 24.8583C2.36141 25.5895 3.35311 26.0003 4.38715 26.0003H22.5819C23.6159 26.0003 24.6076 25.5895 25.3388 24.8583C26.07 24.1272 26.4808 23.1355 26.4808 22.1014V3.90668C26.4808 2.87264 26.07 1.88095 25.3388 1.14977C24.6076 0.418585 23.6159 0.0078125 22.5819 0.0078125ZM23.8815 22.1014C23.8815 22.4461 23.7446 22.7767 23.5009 23.0204C23.2571 23.2641 22.9266 23.401 22.5819 23.401H4.38715C4.04247 23.401 3.71191 23.2641 3.46818 23.0204C3.22445 22.7767 3.08753 22.4461 3.08753 22.1014V3.90668C3.08753 3.562 3.22445 3.23144 3.46818 2.98771C3.71191 2.74398 4.04247 2.60706 4.38715 2.60706H22.5819C22.9266 2.60706 23.2571 2.74398 23.5009 2.98771C23.7446 3.23144 23.8815 3.562 23.8815 3.90668V22.1014Z" fill="#003287"/>
</svg>
