<svg width="35" height="25" viewBox="0 0 35 25" fill="none" xmlns="http://www.w3.org/2000/svg">
<path d="M34.1366 8.78367C34.2121 6.59814 33.7341 4.42896 32.7471 2.47756C32.0774 1.67684 31.148 1.13649 30.1208 0.950652C25.8723 0.565147 21.6061 0.407142 17.3406 0.477312C13.0907 0.403957 8.83993 0.556864 4.60627 0.935383C3.76926 1.08764 2.99465 1.48025 2.37699 2.06529C1.00278 3.33262 0.850092 5.50082 0.697401 7.33311C0.475866 10.6275 0.475866 13.933 0.697401 17.2274C0.741575 18.2587 0.895126 19.2824 1.15547 20.2812C1.33958 21.0524 1.71206 21.7659 2.23957 22.3578C2.86143 22.9739 3.65407 23.3888 4.51466 23.5488C7.80653 23.9552 11.1234 24.1236 14.4395 24.0527C19.7837 24.129 24.4713 24.0527 30.0139 23.6252C30.8957 23.475 31.7106 23.0595 32.3501 22.4342C32.7776 22.0065 33.0969 21.4831 33.2815 20.9073C33.8276 19.2317 34.0958 17.478 34.0755 15.7158C34.1366 14.8607 34.1366 9.69981 34.1366 8.78367ZM13.8898 16.6319V7.18042L22.9291 11.9291C20.3945 13.3338 17.0505 14.9218 13.8898 16.6319Z" fill="white"/>
</svg>
