<svg width="21" height="21" viewBox="0 0 21 21" fill="none" xmlns="http://www.w3.org/2000/svg">
<path d="M20.1508 18.7132L16.4408 15.0332C17.8809 13.2377 18.5783 10.9585 18.3896 8.66454C18.2009 6.37055 17.1405 4.23603 15.4263 2.69989C13.7122 1.16375 11.4746 0.342754 9.17375 0.405715C6.87286 0.468675 4.68354 1.41081 3.05596 3.03839C1.42838 4.66597 0.486253 6.85528 0.423293 9.15617C0.360332 11.4571 1.18133 13.6946 2.71747 15.4088C4.2536 17.1229 6.38812 18.1834 8.68212 18.3721C10.9761 18.5607 13.2552 17.8633 15.0508 16.4232L18.7308 20.1032C18.8238 20.197 18.9344 20.2714 19.0562 20.3221C19.1781 20.3729 19.3088 20.399 19.4408 20.399C19.5728 20.399 19.7035 20.3729 19.8254 20.3221C19.9473 20.2714 20.0579 20.197 20.1508 20.1032C20.3311 19.9168 20.4318 19.6676 20.4318 19.4082C20.4318 19.1489 20.3311 18.8997 20.1508 18.7132ZM9.44082 16.4232C8.05635 16.4232 6.70297 16.0127 5.55183 15.2435C4.40069 14.4744 3.50348 13.3811 2.97367 12.102C2.44385 10.8229 2.30523 9.41548 2.57533 8.05761C2.84542 6.69975 3.51211 5.45246 4.49108 4.4735C5.47004 3.49453 6.71732 2.82784 8.07519 2.55775C9.43306 2.28765 10.8405 2.42627 12.1196 2.95609C13.3987 3.4859 14.4919 4.38311 15.2611 5.53425C16.0303 6.6854 16.4408 8.03878 16.4408 9.42324C16.4408 11.2798 15.7033 13.0602 14.3906 14.373C13.0778 15.6857 11.2973 16.4232 9.44082 16.4232Z" fill="#2274FF"/>
</svg>
