<svg width="20" height="20" viewBox="0 0 20 20" fill="none" xmlns="http://www.w3.org/2000/svg">
<path d="M17.2225 10.6946C17.0078 10.6946 16.7834 10.6263 16.5687 10.5776C16.134 10.4818 15.7068 10.3546 15.2905 10.197C14.8378 10.0323 14.3402 10.0409 13.8935 10.221C13.4468 10.4012 13.0824 10.7401 12.8706 11.1728L12.6559 11.6119C11.7055 11.0832 10.8322 10.4265 10.0604 9.66034C9.29421 8.88853 8.63757 8.0152 8.10889 7.06481L8.51871 6.7916C8.95132 6.57978 9.29032 6.21544 9.47046 5.7687C9.65059 5.32196 9.65915 4.82438 9.49447 4.37172C9.33954 3.9545 9.21241 3.52749 9.11392 3.09347C9.06513 2.8788 9.0261 2.65438 8.99683 2.42995C8.87834 1.74265 8.51834 1.12023 7.98167 0.674794C7.445 0.229356 6.76692 -0.00982965 6.06955 0.000309612H3.14227C2.72174 -0.00363884 2.30531 0.0830672 1.92131 0.254525C1.5373 0.425983 1.19476 0.678166 0.916976 0.993909C0.639197 1.30965 0.43271 1.68154 0.311573 2.08425C0.190436 2.48697 0.157492 2.91106 0.214984 3.32765C0.734809 7.41548 2.60172 11.2136 5.52083 14.1221C8.43994 17.0306 12.2448 18.8837 16.3345 19.3887H16.7053C17.4249 19.3897 18.1196 19.1257 18.6569 18.6471C18.9655 18.371 19.2121 18.0325 19.3803 17.6541C19.5486 17.2756 19.6345 16.8658 19.6326 16.4516V13.5243C19.6207 12.8466 19.3738 12.1939 18.9343 11.6779C18.4948 11.1618 17.8897 10.8143 17.2225 10.6946ZM17.7104 16.5492C17.7102 16.6877 17.6805 16.8247 17.6233 16.9508C17.5661 17.077 17.4827 17.1896 17.3786 17.281C17.2696 17.3752 17.1421 17.4455 17.0043 17.4875C16.8665 17.5295 16.7215 17.5423 16.5785 17.525C12.9242 17.0564 9.52982 15.3846 6.93087 12.7733C4.33191 10.162 2.67625 6.75973 2.22505 3.10323C2.20952 2.9603 2.22313 2.8157 2.26506 2.67818C2.30699 2.54065 2.37636 2.41306 2.46899 2.3031C2.56043 2.19902 2.67298 2.1156 2.79917 2.0584C2.92535 2.0012 3.06227 1.97152 3.20081 1.97135H6.12809C6.355 1.9663 6.57657 2.04051 6.75467 2.1812C6.93277 2.3219 7.05625 2.52028 7.10385 2.7422C7.14288 3.0089 7.19167 3.27236 7.25022 3.53256C7.36294 4.04693 7.51295 4.55241 7.69907 5.04499L6.333 5.67923C6.2162 5.73282 6.11114 5.80896 6.02384 5.90326C5.93654 5.99757 5.86874 6.10819 5.82431 6.22878C5.77988 6.34936 5.75971 6.47753 5.76496 6.60594C5.77021 6.73434 5.80076 6.86044 5.85488 6.977C7.25919 9.98503 9.67717 12.403 12.6852 13.8073C12.9228 13.9049 13.1892 13.9049 13.4268 13.8073C13.5485 13.7638 13.6603 13.6965 13.7558 13.6094C13.8513 13.5223 13.9285 13.4171 13.983 13.2999L14.5879 11.9339C15.0924 12.1143 15.6072 12.2641 16.1296 12.3827C16.3898 12.4413 16.6533 12.49 16.92 12.5291C17.1419 12.5767 17.3403 12.7002 17.481 12.8783C17.6217 13.0564 17.6959 13.2779 17.6909 13.5048L17.7104 16.5492Z" fill="white"/>
</svg>
