<svg width="31" height="31" viewBox="0 0 31 31" fill="none" xmlns="http://www.w3.org/2000/svg">
<path d="M30.5459 6.9479C30.5287 6.28915 30.4778 5.63172 30.3932 4.97819C30.2792 4.40579 30.0892 3.8512 29.8282 3.32914C29.5553 2.76282 29.1888 2.2466 28.7441 1.80223C28.2954 1.3628 27.7801 0.996931 27.2172 0.718133C26.6945 0.462291 26.1399 0.277428 25.5682 0.168447C24.9209 0.0714883 24.2681 0.015391 23.6137 0.000488281H6.95522C6.29647 0.0176452 5.63904 0.0686089 4.98552 0.153178C4.41312 0.26719 3.85852 0.45719 3.33646 0.718133C2.77014 0.991047 2.25393 1.35756 1.80956 1.80223C1.37012 2.25101 1.00426 2.76631 0.725457 3.32914C0.469616 3.85189 0.284752 4.40648 0.175772 4.97819C0.0788125 5.6255 0.0227152 6.27827 0.0078125 6.93263C0.0078125 7.22274 0.0078125 7.635 0.0078125 7.75716V22.7819C0.0078125 22.9498 0.0078125 23.3163 0.0078125 23.5911C0.0249694 24.2499 0.0759331 24.9073 0.160503 25.5608C0.274514 26.1332 0.464514 26.6878 0.725457 27.2099C0.998371 27.7762 1.36488 28.2924 1.80956 28.7368C2.25833 29.1762 2.77364 29.5421 3.33646 29.8209C3.85922 30.0768 4.41381 30.2616 4.98552 30.3706C5.63282 30.4676 6.28559 30.5237 6.93995 30.5386H23.5985C24.2572 30.5214 24.9146 30.4704 25.5682 30.3859C26.1406 30.2719 26.6952 30.0819 27.2172 29.8209C27.7835 29.548 28.2998 29.1815 28.7441 28.7368C29.1836 28.288 29.5494 27.7727 29.8282 27.2099C30.0841 26.6871 30.2689 26.1326 30.3779 25.5608C30.4749 24.9135 30.531 24.2608 30.5459 23.6064C30.5459 23.3163 30.5459 22.9498 30.5459 22.7819V7.75716C30.5459 7.635 30.5459 7.22274 30.5459 6.9479ZM15.628 25.9578C13.7943 25.9488 11.9927 25.4761 10.3908 24.5836L4.58852 26.1105L6.11543 20.4305C5.13075 18.776 4.60377 16.8894 4.58852 14.9641C4.5946 12.8004 5.24082 10.6868 6.44579 8.88967C7.65075 7.09249 9.36058 5.69207 11.3599 4.86477C13.3593 4.03747 15.5587 3.8203 17.6812 4.2406C19.8038 4.66091 21.7545 5.6999 23.2876 7.22672C24.8208 8.75353 25.8679 10.6999 26.297 12.8207C26.7262 14.9414 26.5181 17.1417 25.6992 19.1445C24.8802 21.1473 23.4869 22.8629 21.6947 24.0753C19.9026 25.2878 17.7917 25.9428 15.628 25.9578ZM15.628 5.9096C14.0092 5.92813 12.4242 6.37528 11.0344 7.20554C9.64463 8.0358 8.49965 9.21952 7.71607 10.6362C6.93249 12.0528 6.5383 13.6518 6.57363 15.2703C6.60895 16.8889 7.07253 18.4691 7.91717 19.8502L8.13094 20.2014L7.2148 23.5453L10.6961 22.5987L11.0321 22.7972C12.4209 23.6152 14.001 24.0524 15.6128 24.0645C18.0425 24.0645 20.3728 23.0993 22.0909 21.3812C23.809 19.6631 24.7742 17.3328 24.7742 14.9031C24.7742 12.4733 23.809 10.1431 22.0909 8.42496C20.3728 6.70686 18.0425 5.74164 15.6128 5.74164L15.628 5.9096ZM20.9722 18.9188C20.7722 19.2524 20.5044 19.5403 20.1862 19.7638C19.8679 19.9874 19.5063 20.1417 19.1246 20.2167C18.5544 20.3209 17.9673 20.2842 17.4145 20.1098C16.8944 19.9472 16.3845 19.7534 15.8876 19.5296C14 18.5824 12.3901 17.162 11.2153 15.4069C10.5769 14.5938 10.1895 13.6121 10.1006 12.5822C10.0916 12.1543 10.1725 11.7293 10.3382 11.3348C10.5039 10.9402 10.7507 10.5849 11.0626 10.2918C11.1545 10.1877 11.2672 10.1039 11.3934 10.0461C11.5197 9.98822 11.6566 9.9575 11.7955 9.9559H12.223C12.391 9.9559 12.62 9.9559 12.8338 10.4292C13.0476 10.9026 13.6125 12.3226 13.6889 12.46C13.7264 12.5333 13.746 12.6144 13.746 12.6967C13.746 12.779 13.7264 12.8601 13.6889 12.9334C13.6214 13.0993 13.5287 13.2538 13.414 13.3914C13.2766 13.5594 13.1239 13.7579 13.0018 13.88C12.8796 14.0022 12.7269 14.1549 12.8796 14.4297C13.2951 15.1309 13.8093 15.7685 14.4065 16.3231C15.0569 16.8977 15.8004 17.3573 16.6053 17.682C16.8801 17.8194 17.0481 17.8042 17.2007 17.682C17.3534 17.5599 17.8878 16.888 18.0711 16.6132C18.2543 16.3384 18.4375 16.3842 18.6818 16.4758C18.9261 16.5674 20.2851 17.224 20.5599 17.3614C20.8348 17.4988 21.0027 17.5599 21.0791 17.682C21.1453 18.0817 21.1085 18.4916 20.9722 18.873V18.9188Z" fill="white"/>
</svg>
