<svg width="45" height="50" viewBox="0 0 45 50" fill="none" xmlns="http://www.w3.org/2000/svg">
<path d="M22.9624 0.957883C23.9538 1.10809 24.9535 1.20948 25.934 1.41476C34.3103 3.16465 40.9215 9.92263 42.7924 18.6145C43.5037 21.919 43.4749 25.2173 42.7551 28.5143C42.7383 28.5906 42.7095 28.6645 42.6626 28.8159C42.3514 28.4592 42.0822 28.1275 41.7902 27.8208C41.1906 27.1912 40.6223 26.5166 39.9566 25.9721C39.4664 25.5715 38.8571 25.3112 38.272 25.0646C37.9824 24.9432 37.8766 24.8555 37.8959 24.5126C38.1134 20.6974 37.2025 17.18 35.1382 14.0307C32.7987 10.4621 29.6061 8.06384 25.5543 7.07374C20.0185 5.72064 15.0511 7.01241 10.7783 10.9378C7.6433 13.8192 5.84451 17.4942 5.4624 21.8139C4.96975 27.3765 6.70966 32.1442 10.6353 35.9857C13.286 38.5793 16.4678 40.02 20.0714 40.413C21.851 40.6071 23.6281 40.4881 25.374 40.0325C25.5783 39.98 25.7826 39.9311 26.0517 39.8648C25.785 41.7924 25.797 43.6612 26.3606 45.6039C25.1373 45.7616 23.9718 45.9994 22.7978 46.047C16.1073 46.3211 10.3853 43.9704 5.81687 38.8672C1.44307 33.9818 -0.537164 28.1112 0.124916 21.4647C0.993669 12.7327 5.43717 6.54301 13.0505 2.83169C15.2158 1.7765 17.5288 1.2245 19.9176 1.0405C19.9164 1.0405 21.7056 0.90406 22.9624 0.957883Z" fill="#2274FF"/>
<path d="M43.5472 38.6036C42.4934 34.896 40.2885 31.9507 37.6714 29.3046C37.1956 28.824 36.7113 28.8427 36.2199 29.3296C34.0871 31.445 32.2703 33.812 31.0578 36.6296C30.1434 38.755 29.6147 40.968 29.9031 43.3212C30.3681 47.1227 33.7614 49.9515 37.4996 49.6662C41.2558 49.3795 44.2057 45.9974 44.0928 42.1071C44.0928 42.1058 43.8188 39.5561 43.5472 38.6036Z" fill="#2274FF"/>
<path d="M22.5648 25.9521C22.1647 25.9521 21.5975 25.8107 21.0893 25.4853C20.897 25.3613 20.766 25.4064 20.5966 25.5128C19.0165 26.5067 17.4328 27.4955 15.8491 28.4819C15.1474 28.9187 14.5442 28.9049 13.9926 28.4518C13.2513 27.8447 13.2464 26.6544 13.9986 26.0573C14.2798 25.8345 14.5958 25.6567 14.8998 25.4652C16.2853 24.5978 17.6707 23.7291 19.061 22.8692C19.2556 22.749 19.3277 22.6401 19.3265 22.3735C19.3181 20.0028 21.4401 18.2629 23.6018 18.8487C25.4523 19.3506 26.5409 21.1568 26.1888 23.0181C25.8644 24.7305 24.3828 26.001 22.5648 25.9521Z" fill="#2274FF"/>
</svg>
