<svg width="31" height="31" viewBox="0 0 31 31" fill="none" xmlns="http://www.w3.org/2000/svg">
<path d="M28.8682 0.000488281H1.68936C1.2439 0.000488281 0.816692 0.177445 0.501707 0.49243C0.186722 0.807415 0.00976562 1.23463 0.00976562 1.68008V28.859C0.00976562 29.0795 0.0532097 29.2979 0.137617 29.5017C0.222025 29.7055 0.345743 29.8906 0.501707 30.0466C0.657672 30.2026 0.842829 30.3263 1.04661 30.4107C1.25038 30.4951 1.46879 30.5386 1.68936 30.5386H16.3171V18.7051H12.3471V14.1243H16.3171V10.6888C16.2349 9.88224 16.3301 9.06743 16.5961 8.30155C16.8621 7.53568 17.2924 6.83727 17.8569 6.25531C18.4214 5.67336 19.1064 5.22195 19.8638 4.93275C20.6212 4.64355 21.4328 4.52356 22.2415 4.5812C23.4299 4.57388 24.6178 4.63506 25.7992 4.76443V8.88707H23.3714C21.4475 8.88707 21.081 9.80321 21.081 11.1316V14.0785H25.6617L25.0662 18.6592H21.081V30.5386H28.8682C29.0888 30.5386 29.3072 30.4951 29.511 30.4107C29.7148 30.3263 29.8999 30.2026 30.0559 30.0466C30.2119 29.8906 30.3356 29.7055 30.42 29.5017C30.5044 29.2979 30.5478 29.0795 30.5478 28.859V1.68008C30.5478 1.45951 30.5044 1.24111 30.42 1.03733C30.3356 0.833552 30.2119 0.648395 30.0559 0.49243C29.8999 0.336465 29.7148 0.212747 29.511 0.12834C29.3072 0.0439324 29.0888 0.000488281 28.8682 0.000488281Z" fill="white"/>
</svg>
