<svg width="17" height="20" viewBox="0 0 17 20" fill="none" xmlns="http://www.w3.org/2000/svg">
<path d="M8.63281 0C6.51108 0 4.47625 0.842855 2.97596 2.34315C1.47567 3.84344 0.632813 5.87827 0.632812 8C0.632813 13.4 7.68281 19.5 7.98281 19.76C8.16395 19.9149 8.39446 20.0001 8.63281 20.0001C8.87117 20.0001 9.10168 19.9149 9.28281 19.76C9.63281 19.5 16.6328 13.4 16.6328 8C16.6328 5.87827 15.79 3.84344 14.2897 2.34315C12.7894 0.842855 10.7545 0 8.63281 0ZM8.63281 17.65C6.50281 15.65 2.63281 11.34 2.63281 8C2.63281 6.4087 3.26495 4.88258 4.39017 3.75736C5.51539 2.63214 7.04151 2 8.63281 2C10.2241 2 11.7502 2.63214 12.8755 3.75736C14.0007 4.88258 14.6328 6.4087 14.6328 8C14.6328 11.34 10.7628 15.66 8.63281 17.65ZM8.63281 4C7.84169 4 7.06833 4.2346 6.41053 4.67412C5.75274 5.11365 5.24004 5.73836 4.93729 6.46927C4.63454 7.20017 4.55533 8.00444 4.70967 8.78036C4.86401 9.55628 5.24498 10.269 5.80439 10.8284C6.3638 11.3878 7.07653 11.7688 7.85245 11.9231C8.62838 12.0775 9.43264 11.9983 10.1635 11.6955C10.8945 11.3928 11.5192 10.8801 11.9587 10.2223C12.3982 9.56448 12.6328 8.79113 12.6328 8C12.6328 6.93913 12.2114 5.92172 11.4612 5.17157C10.7111 4.42143 9.69368 4 8.63281 4ZM8.63281 10C8.23725 10 7.85057 9.8827 7.52167 9.66294C7.19277 9.44318 6.93643 9.13082 6.78505 8.76537C6.63368 8.39991 6.59407 7.99778 6.67124 7.60982C6.74841 7.22186 6.93889 6.86549 7.2186 6.58579C7.4983 6.30608 7.85467 6.1156 8.24263 6.03843C8.63059 5.96126 9.03273 6.00087 9.39818 6.15224C9.76363 6.30362 10.076 6.55996 10.2958 6.88886C10.5155 7.21776 10.6328 7.60444 10.6328 8C10.6328 8.53043 10.4221 9.03914 10.047 9.41421C9.67195 9.78929 9.16325 10 8.63281 10Z" fill="white"/>
</svg>
