<svg width="38" height="38" viewBox="0 0 38 38" fill="none" xmlns="http://www.w3.org/2000/svg">
<path fill-rule="evenodd" clip-rule="evenodd" d="M34.8332 19.0003C34.8332 27.7448 27.7444 34.8337 18.9998 34.8337C10.2553 34.8337 3.1665 27.7448 3.1665 19.0003C3.1665 10.2558 10.2553 3.16699 18.9998 3.16699C27.7444 3.16699 34.8332 10.2558 34.8332 19.0003ZM25.431 13.5469C25.6438 13.3296 25.9326 13.2035 26.2366 13.1953C26.473 13.1882 26.706 13.2528 26.905 13.3806C27.104 13.5084 27.2597 13.6934 27.3516 13.9113C27.4435 14.1292 27.4674 14.3698 27.42 14.6015C27.3727 14.8332 27.2563 15.0452 27.0863 15.2095L17.711 24.5848C17.509 24.7859 17.2407 24.9065 16.9562 24.924C16.6718 24.9415 16.3907 24.8548 16.1655 24.6801L11.0091 20.6955C10.8875 20.6013 10.7855 20.484 10.7092 20.3503C10.6329 20.2167 10.5836 20.0693 10.5642 19.9166C10.5448 19.7639 10.5557 19.6089 10.5962 19.4604C10.6368 19.3119 10.7061 19.1729 10.8004 19.0512C10.8947 18.9295 11.012 18.8276 11.1456 18.7513C11.2793 18.6749 11.4266 18.6257 11.5793 18.6063C11.732 18.5869 11.887 18.5978 12.0355 18.6383C12.184 18.6788 12.3231 18.7482 12.4447 18.8424L16.7808 22.1971L25.431 13.5469Z" fill="#5F6268"/>
</svg>
