<svg width="41" height="41" viewBox="0 0 41 41" fill="none" xmlns="http://www.w3.org/2000/svg">
<circle cx="20.0229" cy="20.0229" r="20.0229" fill="#1F5BC1"/>
<path d="M9.0625 17.8945C16.596 17.8945 24.0952 17.8945 31.6228 17.8945C31.6228 18.001 31.6228 18.0948 31.6228 18.1893C31.6228 20.7037 31.6228 23.2188 31.622 25.7332C31.622 26.022 31.6339 26.3123 31.6079 26.5989C31.5543 27.1921 31.2171 27.5137 30.6201 27.5673C30.5174 27.5762 30.414 27.5747 30.3105 27.5747C25.2609 27.5732 20.2105 27.5702 15.1609 27.5695C13.5561 27.5695 11.9505 27.5747 10.3457 27.5732C10.1544 27.5732 9.95943 27.5598 9.77186 27.5219C9.32972 27.4333 9.09376 27.1512 9.08111 26.6971C9.06697 26.1813 9.06399 25.664 9.06399 25.1481C9.0625 22.8124 9.06324 20.4774 9.06324 18.1417C9.0625 18.065 9.0625 17.9906 9.0625 17.8945ZM16.0489 19.6594C15.9648 19.6556 15.8904 19.6489 15.8167 19.6489C14.0943 19.6482 12.3726 19.6519 10.6502 19.6437C10.4552 19.643 10.4112 19.7033 10.412 19.8879C10.4187 21.5961 10.4157 23.3044 10.4157 25.0134C10.4157 25.0879 10.4157 25.1615 10.4157 25.2419C12.3078 25.2419 14.1761 25.2419 16.0489 25.2419C16.0489 23.3766 16.0489 21.5262 16.0489 19.6594ZM17.5569 19.6482C17.5569 21.5202 17.5569 23.361 17.5569 25.2025C19.4275 25.2025 21.2824 25.2025 23.1492 25.2025C23.1529 25.1221 23.1581 25.0544 23.1581 24.9866C23.1589 23.2858 23.1551 21.585 23.1626 19.8849C23.1633 19.6951 23.1105 19.643 22.9214 19.6437C21.2072 19.6504 19.4922 19.6482 17.778 19.6482C17.7103 19.6482 17.6425 19.6482 17.5569 19.6482ZM30.2599 19.681C28.3767 19.681 26.5158 19.681 24.652 19.681C24.652 21.5329 24.652 23.3677 24.652 25.2003C26.5285 25.2003 28.3901 25.2003 30.2599 25.2003C30.2599 23.3558 30.2599 21.5262 30.2599 19.681Z" fill="white"/>
<path d="M20.3216 17.1088C16.527 17.1088 12.7316 17.1095 8.93691 17.1073C8.73147 17.1073 8.5238 17.0931 8.31985 17.0671C8.05412 17.0329 7.94396 16.8899 8.02733 16.6354C8.18959 16.1396 8.37791 15.6521 8.56325 15.1638C8.86173 14.38 9.17436 13.6014 9.46837 12.8162C9.69689 12.2058 9.93284 12.0018 10.5797 12.0004C12.177 11.9974 13.7744 12.0138 15.3718 12.0219C15.4477 12.0227 15.5236 12.0234 15.5988 12.0234C19.1597 12.0234 22.7199 12.0242 26.2808 12.0227C27.5618 12.0219 28.8429 12.0145 30.1231 12.0115C30.796 12.01 30.9992 12.1745 31.2382 12.7983C31.658 13.8962 32.1016 14.9852 32.5326 16.0786C32.5854 16.2126 32.6397 16.3488 32.668 16.4887C32.7343 16.8192 32.6115 17.0232 32.2795 17.0678C31.9542 17.1118 31.6215 17.1125 31.2917 17.1125C29.157 17.114 27.0215 17.1095 24.8867 17.1088C23.366 17.108 21.8438 17.1088 20.3216 17.1088Z" fill="white"/>
<path d="M20.3639 28.5184C24.2561 28.5184 28.149 28.5184 32.0412 28.5184C32.1104 28.5184 32.1789 28.5154 32.2481 28.5206C32.4811 28.5392 32.6582 28.7164 32.6783 28.9471C32.6977 29.1667 32.5607 29.3721 32.3441 29.4332C32.266 29.4548 32.1811 29.4607 32.1 29.4607C24.2598 29.4622 16.4204 29.4622 8.58026 29.4615C8.26839 29.4615 8.09272 29.3431 8.0302 29.0967C7.96172 28.8265 8.14185 28.5578 8.41874 28.5228C8.49318 28.5132 8.56984 28.5176 8.64577 28.5176C12.5521 28.5176 16.4576 28.5184 20.3639 28.5184Z" fill="white"/>
</svg>
