<svg width="43" height="44" viewBox="0 0 43 44" fill="none" xmlns="http://www.w3.org/2000/svg">
<path d="M40.2374 5.00264H38.1533V2.56528C38.1533 1.91886 37.9338 1.29891 37.5429 0.841814C37.1521 0.384721 36.622 0.12793 36.0693 0.12793C35.5166 0.12793 34.9865 0.384721 34.5957 0.841814C34.2048 1.29891 33.9853 1.91886 33.9853 2.56528V5.00264H8.97679V2.56528C8.97679 1.91886 8.75722 1.29891 8.36638 0.841814C7.97555 0.384721 7.44547 0.12793 6.89275 0.12793C6.34002 0.12793 5.80994 0.384721 5.41911 0.841814C5.02827 1.29891 4.80871 1.91886 4.80871 2.56528V5.00264H2.72467C2.17194 5.00264 1.64186 5.25943 1.25103 5.71652C0.860193 6.17361 0.640625 6.79356 0.640625 7.43999V22.0641C0.640625 22.7105 0.860193 23.3305 1.25103 23.7876C1.64186 24.2447 2.17194 24.5015 2.72467 24.5015H4.80871V41.5629C4.80871 42.2094 5.02827 42.8293 5.41911 43.2864C5.80994 43.7435 6.34002 44.0003 6.89275 44.0003C7.44547 44.0003 7.97555 43.7435 8.36638 43.2864C8.75722 42.8293 8.97679 42.2094 8.97679 41.5629V24.5015H33.9853V41.5629C33.9853 42.2094 34.2048 42.8293 34.5957 43.2864C34.9865 43.7435 35.5166 44.0003 36.0693 44.0003C36.622 44.0003 37.1521 43.7435 37.5429 43.2864C37.9338 42.8293 38.1533 42.2094 38.1533 41.5629V24.5015H40.2374C40.7901 24.5015 41.3202 24.2447 41.711 23.7876C42.1019 23.3305 42.3214 22.7105 42.3214 22.0641V7.43999C42.3214 6.79356 42.1019 6.17361 41.711 5.71652C41.3202 5.25943 40.7901 5.00264 40.2374 5.00264ZM4.80871 16.0195V9.87734H10.0605L4.80871 16.0195ZM7.60132 19.6268L15.9375 9.87734H22.8773L14.5412 19.6268H7.60132ZM20.4182 19.6268L28.7543 9.87734H35.3816L27.0454 19.6268H20.4182ZM38.1533 19.6268H32.9224L38.1533 13.509V19.6268Z" fill="#2274FF"/>
</svg>
