<svg width="41" height="41" viewBox="0 0 41 41" fill="none" xmlns="http://www.w3.org/2000/svg">
<circle cx="20.3042" cy="20.5229" r="20.0229" fill="#FF8B8B"/>
<path d="M20.8285 23.175C20.6422 23.175 20.4601 23.2302 20.3052 23.3337C20.1503 23.4372 20.0295 23.5843 19.9582 23.7565C19.8869 23.9286 19.8683 24.118 19.9046 24.3007C19.941 24.4834 20.0307 24.6513 20.1624 24.783C20.2942 24.9147 20.462 25.0045 20.6447 25.0408C20.8275 25.0771 21.0169 25.0585 21.189 24.9872C21.3611 24.9159 21.5082 24.7952 21.6117 24.6403C21.7152 24.4854 21.7705 24.3032 21.7705 24.1169C21.7705 23.8671 21.6712 23.6275 21.4946 23.4509C21.3179 23.2742 21.0783 23.175 20.8285 23.175ZM30.8792 24.5597L23.2964 11.3722C23.0513 10.9328 22.6934 10.5668 22.2595 10.312C21.8257 10.0572 21.3316 9.92285 20.8285 9.92285C20.3254 9.92285 19.8313 10.0572 19.3975 10.312C18.9636 10.5668 18.6057 10.9328 18.3606 11.3722L10.8249 24.5597C10.5713 24.9873 10.435 25.4743 10.4298 25.9715C10.4247 26.4687 10.5507 26.9584 10.7954 27.3912C11.04 27.8241 11.3945 28.1848 11.823 28.4368C12.2516 28.6888 12.7391 28.8234 13.2363 28.8267H28.4207C28.9219 28.8317 29.4154 28.7032 29.8505 28.4546C30.2857 28.2059 30.6469 27.846 30.8971 27.4118C31.1473 26.9775 31.2775 26.4845 31.2744 25.9833C31.2713 25.4821 31.1349 24.9908 30.8792 24.5597ZM29.2496 26.4436C29.1671 26.5905 29.0466 26.7125 28.9008 26.797C28.755 26.8815 28.5892 26.9254 28.4207 26.924H13.2363C13.0678 26.9254 12.902 26.8815 12.7562 26.797C12.6104 26.7125 12.4899 26.5905 12.4074 26.4436C12.3247 26.3004 12.2812 26.138 12.2812 25.9726C12.2812 25.8073 12.3247 25.6448 12.4074 25.5016L19.9431 12.3141C20.0221 12.1599 20.1422 12.0304 20.2901 11.9399C20.438 11.8495 20.608 11.8017 20.7814 11.8017C20.9548 11.8017 21.1248 11.8495 21.2727 11.9399C21.4206 12.0304 21.5407 12.1599 21.6197 12.3141L29.2025 25.5016C29.296 25.6428 29.3497 25.8065 29.358 25.9756C29.3663 26.1446 29.3289 26.3128 29.2496 26.4624V26.4436ZM20.8285 15.6393C20.5787 15.6393 20.3391 15.7385 20.1624 15.9152C19.9858 16.0918 19.8865 16.3314 19.8865 16.5812V20.3491C19.8865 20.5989 19.9858 20.8385 20.1624 21.0152C20.3391 21.1918 20.5787 21.291 20.8285 21.291C21.0783 21.291 21.3179 21.1918 21.4946 21.0152C21.6712 20.8385 21.7705 20.5989 21.7705 20.3491V16.5812C21.7705 16.3314 21.6712 16.0918 21.4946 15.9152C21.3179 15.7385 21.0783 15.6393 20.8285 15.6393Z" fill="white"/>
</svg>
