<svg width="31" height="31" viewBox="0 0 31 31" fill="none" xmlns="http://www.w3.org/2000/svg">
<path d="M28.2548 0.000213508H2.38908C2.09832 -0.00382457 1.80962 0.0494523 1.53946 0.157002C1.26929 0.264551 1.02296 0.424266 0.814533 0.627026C0.606101 0.829785 0.439653 1.07162 0.324694 1.33871C0.209734 1.60581 0.148514 1.89293 0.144531 2.18369V28.3548C0.148514 28.6456 0.209734 28.9327 0.324694 29.1998C0.439653 29.4669 0.606101 29.7087 0.814533 29.9115C1.02296 30.1142 1.26929 30.2739 1.53946 30.3815C1.80962 30.489 2.09832 30.5423 2.38908 30.5383H28.2548C28.5456 30.5423 28.8343 30.489 29.1044 30.3815C29.3746 30.2739 29.6209 30.1142 29.8294 29.9115C30.0378 29.7087 30.2043 29.4669 30.3192 29.1998C30.4342 28.9327 30.4954 28.6456 30.4994 28.3548V2.18369C30.4954 1.89293 30.4342 1.60581 30.3192 1.33871C30.2043 1.07162 30.0378 0.829785 29.8294 0.627026C29.6209 0.424266 29.3746 0.264551 29.1044 0.157002C28.8343 0.0494523 28.5456 -0.00382457 28.2548 0.000213508ZM9.35176 25.5606H4.77105V11.8184H9.35176V25.5606ZM7.0614 9.89455C6.42967 9.89455 5.8238 9.64359 5.3771 9.19688C4.93039 8.75018 4.67943 8.14431 4.67943 7.51258C4.67943 6.88084 4.93039 6.27498 5.3771 5.82827C5.8238 5.38157 6.42967 5.13061 7.0614 5.13061C7.39686 5.09257 7.73656 5.1258 8.05828 5.22815C8.38 5.3305 8.67647 5.49965 8.92828 5.72452C9.1801 5.94939 9.38157 6.22491 9.51952 6.53304C9.65747 6.84118 9.72878 7.17497 9.72878 7.51258C9.72878 7.85018 9.65747 8.18398 9.51952 8.49211C9.38157 8.80025 9.1801 9.07577 8.92828 9.30064C8.67647 9.52551 8.38 9.69466 8.05828 9.797C7.73656 9.89935 7.39686 9.93259 7.0614 9.89455ZM25.8729 25.5606H21.2921V18.1856C21.2921 16.3381 20.6356 15.1318 18.9713 15.1318C18.4562 15.1356 17.9546 15.2972 17.5342 15.5947C17.1137 15.8923 16.7946 16.3116 16.6198 16.7962C16.5003 17.155 16.4486 17.533 16.4671 17.9108V25.5453H11.8864C11.8864 25.5453 11.8864 13.0552 11.8864 11.8032H16.4671V13.7423C16.8833 13.0203 17.4885 12.4254 18.2176 12.0218C18.9468 11.6182 19.7722 11.4212 20.605 11.452C23.6588 11.452 25.8729 13.4217 25.8729 17.6512V25.5606Z" fill="white"/>
</svg>
