<svg width="49" height="48" viewBox="0 0 49 48" fill="none" xmlns="http://www.w3.org/2000/svg">
<path d="M24.5 4.5C17.0469 4.5 11 10.2553 11 17.3438C11 25.5 20 38.4253 23.3047 42.8897C23.4419 43.0781 23.6217 43.2315 23.8294 43.3372C24.0371 43.443 24.2669 43.4981 24.5 43.4981C24.7331 43.4981 24.9629 43.443 25.1706 43.3372C25.3783 43.2315 25.5581 43.0781 25.6953 42.8897C29 38.4272 38 25.5066 38 17.3438C38 10.2553 31.9531 4.5 24.5 4.5Z" stroke="#003DA5" stroke-width="3" stroke-linecap="round" stroke-linejoin="round"/>
<path d="M24.5 24C26.9853 24 29 21.9853 29 19.5C29 17.0147 26.9853 15 24.5 15C22.0147 15 20 17.0147 20 19.5C20 21.9853 22.0147 24 24.5 24Z" stroke="#003DA5" stroke-width="3" stroke-linecap="round" stroke-linejoin="round"/>
</svg>
