<svg width="41" height="41" viewBox="0 0 41 41" fill="none" xmlns="http://www.w3.org/2000/svg">
<circle cx="20.3042" cy="20.4087" r="20.0229" fill="#FFD58B"/>
<path d="M29.3047 13.4316H28.3047V12.4316C28.3047 12.1664 28.1993 11.9121 28.0118 11.7245C27.8243 11.537 27.5699 11.4316 27.3047 11.4316C27.0395 11.4316 26.7851 11.537 26.5976 11.7245C26.41 11.9121 26.3047 12.1664 26.3047 12.4316V13.4316H14.3047V12.4316C14.3047 12.1664 14.1993 11.9121 14.0118 11.7245C13.8243 11.537 13.5699 11.4316 13.3047 11.4316C13.0395 11.4316 12.7851 11.537 12.5976 11.7245C12.41 11.9121 12.3047 12.1664 12.3047 12.4316V13.4316H11.3047C11.0395 13.4316 10.7851 13.537 10.5976 13.7245C10.41 13.9121 10.3047 14.1664 10.3047 14.4316V20.4316C10.3047 20.6969 10.41 20.9512 10.5976 21.1387C10.7851 21.3263 11.0395 21.4316 11.3047 21.4316H12.3047V28.4316C12.3047 28.6969 12.41 28.9512 12.5976 29.1387C12.7851 29.3263 13.0395 29.4316 13.3047 29.4316C13.5699 29.4316 13.8243 29.3263 14.0118 29.1387C14.1993 28.9512 14.3047 28.6969 14.3047 28.4316V21.4316H26.3047V28.4316C26.3047 28.6969 26.41 28.9512 26.5976 29.1387C26.7851 29.3263 27.0395 29.4316 27.3047 29.4316C27.5699 29.4316 27.8243 29.3263 28.0118 29.1387C28.1993 28.9512 28.3047 28.6969 28.3047 28.4316V21.4316H29.3047C29.5699 21.4316 29.8243 21.3263 30.0118 21.1387C30.1993 20.9512 30.3047 20.6969 30.3047 20.4316V14.4316C30.3047 14.1664 30.1993 13.9121 30.0118 13.7245C29.8243 13.537 29.5699 13.4316 29.3047 13.4316ZM12.3047 17.9516V15.4316H14.8247L12.3047 17.9516ZM13.6447 19.4316L17.6447 15.4316H20.9747L16.9747 19.4316H13.6447ZM19.7947 19.4316L23.7947 15.4316H26.9747L22.9747 19.4316H19.7947ZM28.3047 19.4316H25.7947L28.3047 16.9216V19.4316Z" fill="white"/>
</svg>
