<svg width="43" height="35" viewBox="0 0 43 35" fill="none" xmlns="http://www.w3.org/2000/svg">
<path d="M40.6261 10.79H38.9261C38.7064 9.83654 38.3332 8.92507 37.8211 8.09129L39.0111 6.90129C39.3592 6.49477 39.5411 5.97186 39.5204 5.43705C39.4998 4.90224 39.2781 4.39492 38.8996 4.01647C38.5212 3.63802 38.0139 3.41631 37.479 3.39565C36.9442 3.37499 36.4213 3.55691 36.0148 3.90504L34.8248 5.09504C33.991 4.58294 33.0796 4.20974 32.1261 3.99004V2.29004C32.1261 1.72645 31.9022 1.18595 31.5037 0.787438C31.1051 0.388923 30.5646 0.165039 30.0011 0.165039C29.4375 0.165039 28.897 0.388923 28.4985 0.787438C28.0999 1.18595 27.8761 1.72645 27.8761 2.29004V3.99004C26.9282 4.20639 26.0231 4.57989 25.1986 5.09504L23.9873 3.90504C23.5808 3.55691 23.0579 3.37499 22.5231 3.39565C21.9883 3.41631 21.4809 3.63802 21.1025 4.01647C20.724 4.39492 20.5023 4.90224 20.4817 5.43705C20.461 5.97186 20.6429 6.49477 20.9911 6.90129L22.1811 8.11254C21.9898 8.43129 21.8411 8.79254 21.6711 9.13254C20.5785 8.82413 19.4488 8.66683 18.3136 8.66504C15.2511 8.6633 12.2904 9.76388 9.97266 11.7655C7.65494 13.7672 6.13511 16.5362 5.69105 19.5663C3.96171 20.0512 2.46627 21.1456 1.48093 22.6472C0.495586 24.1489 0.0869155 25.9563 0.330395 27.7358C0.573874 29.5153 1.45306 31.1465 2.80556 32.3283C4.15806 33.51 5.89251 34.1625 7.68856 34.165H27.1748C29.6151 34.165 31.9555 33.1956 33.6811 31.4701C35.4066 29.7445 36.3761 27.4041 36.3761 24.9638C36.3742 23.8354 36.1579 22.7176 35.7386 21.67L36.0148 21.925C36.4106 22.3176 36.9448 22.5389 37.5023 22.5413C37.782 22.5429 38.0592 22.4893 38.3181 22.3836C38.577 22.2778 38.8125 22.122 39.0111 21.925C39.4068 21.5269 39.629 20.9883 39.629 20.4269C39.629 19.8655 39.4068 19.3269 39.0111 18.9288L37.8211 17.7388C38.3332 16.905 38.7064 15.9935 38.9261 15.04H40.6261C41.1896 15.04 41.7301 14.8162 42.1287 14.4176C42.5272 14.0191 42.7511 13.4786 42.7511 12.915C42.7511 12.3515 42.5272 11.811 42.1287 11.4124C41.7301 11.0139 41.1896 10.79 40.6261 10.79ZM27.1748 29.915H7.68856C6.84318 29.915 6.03242 29.5792 5.43465 28.9814C4.83688 28.3837 4.50106 27.5729 4.50106 26.7275C4.50106 25.8822 4.83688 25.0714 5.43465 24.4736C6.03242 23.8759 6.84318 23.54 7.68856 23.54C8.25214 23.54 8.79264 23.3162 9.19116 22.9176C9.58967 22.5191 9.81356 21.9786 9.81356 21.415C9.82267 19.4084 10.5414 17.4697 11.8426 15.942C13.1438 14.4144 14.9434 13.3964 16.9231 13.0681C18.9027 12.7399 20.9346 13.1226 22.6592 14.1485C24.3838 15.1745 25.6898 16.7775 26.3461 18.6738C26.4675 19.0389 26.6859 19.3643 26.9778 19.615C27.2697 19.8658 27.6243 20.0325 28.0036 20.0975C29.2097 20.323 30.2892 20.9884 31.0326 21.9646C31.776 22.9408 32.1305 24.1582 32.0273 25.3809C31.9241 26.6036 31.3705 27.7445 30.474 28.5822C29.5774 29.4199 28.4017 29.8949 27.1748 29.915ZM33.5498 16.4213C33.1752 16.7737 32.7442 17.061 32.2748 17.2713C31.5681 16.8111 30.8035 16.4467 30.0011 16.1875C29.0247 14.0557 27.4902 12.2274 25.5598 10.8963C25.792 10.3512 26.1234 9.854 26.5373 9.43004C27.4881 8.54885 28.7366 8.05926 30.0329 8.05926C31.3293 8.05926 32.5778 8.54885 33.5286 9.43004C34.4399 10.3697 34.9496 11.6273 34.9496 12.9363C34.9496 14.2453 34.4399 15.5029 33.5286 16.4425L33.5498 16.4213Z" fill="#2274FF"/>
</svg>
