<svg width="20" height="17" viewBox="0 0 20 17" fill="none" xmlns="http://www.w3.org/2000/svg">
<path d="M19.0008 5.75781H18.2008C18.0975 5.3091 17.9218 4.88018 17.6808 4.48781L18.2408 3.92781C18.4047 3.73651 18.4903 3.49044 18.4806 3.23876C18.4708 2.98708 18.3665 2.74834 18.1884 2.57025C18.0103 2.39215 17.7716 2.28782 17.5199 2.2781C17.2682 2.26838 17.0221 2.35399 16.8308 2.51781L16.2708 3.07781C15.8785 2.83682 15.4495 2.6612 15.0008 2.55781V1.75781C15.0008 1.4926 14.8955 1.23824 14.7079 1.05071C14.5204 0.86317 14.2661 0.757813 14.0008 0.757812C13.7356 0.757813 13.4813 0.86317 13.2937 1.05071C13.1062 1.23824 13.0008 1.4926 13.0008 1.75781V2.55781C12.5548 2.65963 12.1289 2.83539 11.7408 3.07781L11.1708 2.51781C10.9795 2.35399 10.7335 2.26838 10.4818 2.2781C10.2301 2.28782 9.99137 2.39215 9.81328 2.57025C9.63518 2.74834 9.53085 2.98708 9.52113 3.23876C9.51141 3.49044 9.59701 3.73651 9.76084 3.92781L10.3208 4.49781C10.2308 4.64781 10.1608 4.81781 10.0808 4.97781C9.56669 4.83268 9.03508 4.75866 8.50084 4.75781C7.0597 4.75699 5.6664 5.27491 4.57571 6.21687C3.48502 7.15883 2.76981 8.4619 2.56084 9.88781C1.74703 10.116 1.04329 10.631 0.579604 11.3377C0.115915 12.0443 -0.076401 12.8949 0.0381776 13.7323C0.152756 14.5697 0.566488 15.3373 1.20296 15.8935C1.83943 16.4496 2.65564 16.7566 3.50084 16.7578H12.6708C13.8192 16.7578 14.9206 16.3016 15.7326 15.4896C16.5446 14.6776 17.0008 13.5762 17.0008 12.4278C17 11.8968 16.8982 11.3708 16.7008 10.8778L16.8308 10.9978C17.0171 11.1826 17.2685 11.2867 17.5308 11.2878C17.6624 11.2886 17.7929 11.2633 17.9147 11.2136C18.0366 11.1638 18.1474 11.0905 18.2408 10.9978C18.4271 10.8104 18.5316 10.557 18.5316 10.2928C18.5316 10.0286 18.4271 9.77517 18.2408 9.58781L17.6808 9.02781C17.9218 8.63544 18.0975 8.20652 18.2008 7.75781H19.0008C19.2661 7.75781 19.5204 7.65246 19.7079 7.46492C19.8955 7.27738 20.0008 7.02303 20.0008 6.75781C20.0008 6.4926 19.8955 6.23824 19.7079 6.05071C19.5204 5.86317 19.2661 5.75781 19.0008 5.75781ZM12.6708 14.7578H3.50084C3.10302 14.7578 2.72149 14.5998 2.44018 14.3185C2.15888 14.0372 2.00084 13.6556 2.00084 13.2578C2.00084 12.86 2.15888 12.4785 2.44018 12.1972C2.72149 11.9158 3.10302 11.7578 3.50084 11.7578C3.76606 11.7578 4.02041 11.6525 4.20795 11.4649C4.39548 11.2774 4.50084 11.023 4.50084 10.7578C4.50513 9.81351 4.84336 8.90117 5.45568 8.18228C6.06799 7.46339 6.9149 6.98432 7.84649 6.82985C8.77809 6.67538 9.73429 6.85549 10.5459 7.33828C11.3574 7.82108 11.972 8.57543 12.2808 9.46781C12.338 9.63965 12.4408 9.79274 12.5781 9.91075C12.7155 10.0287 12.8823 10.1072 13.0608 10.1378C13.6284 10.2439 14.1364 10.557 14.4863 11.0164C14.8361 11.4758 15.0029 12.0487 14.9544 12.6241C14.9058 13.1995 14.6453 13.7364 14.2234 14.1306C13.8015 14.5248 13.2482 14.7483 12.6708 14.7578ZM15.6708 8.40781C15.4945 8.57368 15.2918 8.70888 15.0708 8.80781C14.7383 8.59127 14.3785 8.41978 14.0008 8.29781C13.5414 7.29458 12.8192 6.43422 11.9108 5.80781C12.0201 5.5513 12.1761 5.31732 12.3708 5.11781C12.8183 4.70314 13.4058 4.47274 14.0158 4.47274C14.6259 4.47274 15.2134 4.70314 15.6608 5.11781V5.11781C16.0897 5.56001 16.3295 6.15181 16.3295 6.76781C16.3295 7.38382 16.0897 7.97562 15.6608 8.41781L15.6708 8.40781Z" fill="white"/>
</svg>
