<svg width="32" height="31" viewBox="0 0 32 31" fill="none" xmlns="http://www.w3.org/2000/svg">
<path d="M15.7768 11.4823C15.0279 11.4823 14.2958 11.7044 13.6731 12.1205C13.0503 12.5366 12.565 13.128 12.2784 13.8199C11.9918 14.5119 11.9168 15.2732 12.0629 16.0078C12.209 16.7423 12.5696 17.4171 13.0992 17.9466C13.6288 18.4762 14.3035 18.8369 15.0381 18.983C15.7726 19.1291 16.534 19.0541 17.226 18.7675C17.9179 18.4809 18.5093 17.9955 18.9254 17.3728C19.3415 16.7501 19.5636 16.018 19.5636 15.269C19.5636 14.7718 19.4656 14.2793 19.2753 13.8199C19.085 13.3605 18.8061 12.943 18.4545 12.5914C18.1028 12.2398 17.6854 11.9609 17.226 11.7706C16.7665 11.5803 16.2741 11.4823 15.7768 11.4823ZM30.939 7.7414C30.931 6.56226 30.7138 5.39389 30.2977 4.2906C29.9912 3.48326 29.517 2.7501 28.9064 2.13947C28.2958 1.52885 27.5626 1.05466 26.7553 0.748183C25.652 0.332046 24.4836 0.114916 23.3045 0.106883C21.3348 -1.02387e-07 20.7545 0 15.7768 0C10.7991 0 10.2189 -1.02387e-07 8.24921 0.106883C7.07007 0.114916 5.90171 0.332046 4.79841 0.748183C3.99108 1.05466 3.25791 1.52885 2.64729 2.13947C2.03667 2.7501 1.56247 3.48326 1.256 4.2906C0.839859 5.39389 0.622729 6.56226 0.614696 7.7414C0.507812 9.71111 0.507812 10.2913 0.507812 15.269C0.507812 20.2467 0.507812 20.827 0.614696 22.7967C0.631131 23.98 0.847967 25.1519 1.256 26.2627C1.56111 27.0664 2.03491 27.7953 2.64548 28.4004C3.25348 29.0147 3.98822 29.4889 4.79841 29.7899C5.90171 30.206 7.07007 30.4231 8.24921 30.4312C10.2189 30.5381 10.7991 30.5381 15.7768 30.5381C20.7545 30.5381 21.3348 30.5381 23.3045 30.4312C24.4836 30.4231 25.652 30.206 26.7553 29.7899C27.5655 29.4889 28.3002 29.0147 28.9082 28.4004C29.5188 27.7953 29.9926 27.0664 30.2977 26.2627C30.7134 25.154 30.9305 23.9807 30.939 22.7967C31.0459 20.827 31.0459 20.2467 31.0459 15.269C31.0459 10.2913 31.0459 9.71111 30.939 7.7414ZM27.0607 19.9566C27.0117 20.8989 26.8106 21.827 26.4652 22.7051C26.1687 23.4375 25.7281 24.1028 25.1694 24.6616C24.6107 25.2203 23.9453 25.6609 23.2129 25.9574C22.3265 26.2835 21.3932 26.464 20.4492 26.4918C19.2429 26.4918 18.9223 26.4918 15.7768 26.4918C12.6314 26.4918 12.3108 26.4918 11.1045 26.4918C10.1605 26.464 9.22718 26.2835 8.34083 25.9574C7.58364 25.676 6.89985 25.2271 6.34058 24.6442C5.78733 24.0964 5.36007 23.4347 5.08852 22.7051C4.76109 21.8196 4.58557 20.8853 4.56938 19.9414C4.56938 18.7351 4.56938 18.4145 4.56938 15.269C4.56938 12.1236 4.56938 11.803 4.56938 10.5967C4.58557 9.65282 4.76109 8.71844 5.08852 7.83301C5.3699 7.07583 5.8188 6.39204 6.40166 5.83277C6.95185 5.28251 7.6129 4.8557 8.34083 4.58071C9.22718 4.25457 10.1605 4.0741 11.1045 4.04629C12.3108 4.04629 12.6314 4.04629 15.7768 4.04629C18.9223 4.04629 19.2429 4.04629 20.4492 4.04629C21.3932 4.0741 22.3265 4.25457 23.2129 4.58071C23.9701 4.86209 24.6538 5.31099 25.2131 5.89385C25.7664 6.44162 26.1936 7.10336 26.4652 7.83301C26.7913 8.71936 26.9718 9.65267 26.9996 10.5967C26.9996 11.803 26.9996 12.1236 26.9996 15.269C26.9996 18.4145 27.1065 18.7351 27.0607 19.9414V19.9566ZM24.6176 8.59647C24.4358 8.10325 24.1492 7.65535 23.7775 7.28365C23.4058 6.91196 22.9579 6.62533 22.4647 6.44353C21.7875 6.20879 21.0742 6.09508 20.3576 6.10761C19.1666 6.10761 18.8307 6.10761 15.7768 6.10761C12.723 6.10761 12.3871 6.10761 11.1961 6.10761C10.4758 6.11465 9.76248 6.24906 9.08901 6.50461C8.60334 6.67815 8.16018 6.95308 7.78898 7.31112C7.41777 7.66916 7.12703 8.10211 6.93608 8.5812C6.71433 9.26123 6.606 9.97311 6.61543 10.6883C6.61543 11.8793 6.61543 12.2152 6.61543 15.269C6.61543 18.3228 6.61543 18.6588 6.61543 19.8497C6.63056 20.5692 6.76471 21.2812 7.01242 21.9569C7.19422 22.4501 7.48085 22.898 7.85254 23.2697C8.22424 23.6414 8.67214 23.928 9.16535 24.1098C9.81683 24.3494 10.5024 24.4834 11.1961 24.5068C12.3871 24.5068 12.723 24.5068 15.7768 24.5068C18.8307 24.5068 19.1666 24.5068 20.3576 24.5068C21.0778 24.4998 21.7912 24.3654 22.4647 24.1098C22.9579 23.928 23.4058 23.6414 23.7775 23.2697C24.1492 22.898 24.4358 22.4501 24.6176 21.9569C24.8732 21.2834 25.0076 20.57 25.0146 19.8497C25.0146 18.6588 25.0146 18.3228 25.0146 15.269C25.0146 12.2152 25.0146 11.8793 25.0146 10.6883C25.0151 9.96732 24.8804 9.25261 24.6176 8.5812V8.59647ZM15.7768 21.1018C15.0116 21.1018 14.2539 20.9508 13.5471 20.6575C12.8402 20.3642 12.1982 19.9343 11.6578 19.3925C11.1174 18.8507 10.6892 18.2076 10.3978 17.5C10.1063 16.7924 9.95733 16.0343 9.95934 15.269C9.95935 14.1148 10.3018 12.9865 10.9434 12.0269C11.585 11.0674 12.4969 10.3198 13.5636 9.87881C14.6302 9.43779 15.8038 9.32318 16.9357 9.54948C18.0675 9.77578 19.1068 10.3328 19.9219 11.1501C20.737 11.9673 21.2913 13.0081 21.5147 14.1405C21.738 15.273 21.6203 16.4462 21.1765 17.5117C20.7327 18.5773 19.9827 19.4872 19.0215 20.1262C18.0603 20.7653 16.9311 21.1048 15.7768 21.1018ZM21.8845 10.5814C21.5469 10.5457 21.2346 10.3863 21.0075 10.134C20.7805 9.88169 20.6549 9.55428 20.6549 9.21486C20.6549 8.87544 20.7805 8.54803 21.0075 8.29571C21.2346 8.04339 21.5469 7.88401 21.8845 7.84828C22.222 7.88401 22.5344 8.04339 22.7614 8.29571C22.9884 8.54803 23.114 8.87544 23.114 9.21486C23.114 9.55428 22.9884 9.88169 22.7614 10.134C22.5344 10.3863 22.222 10.5457 21.8845 10.5814Z" fill="white"/>
</svg>
