<svg width="21" height="17" viewBox="0 0 21 17" fill="none" xmlns="http://www.w3.org/2000/svg">
<path d="M19.9591 8.1C17.9391 3.41 14.1391 0.5 10.0391 0.5C5.93907 0.5 2.13907 3.41 0.119068 8.1C0.064005 8.22617 0.0355835 8.36234 0.0355835 8.5C0.0355835 8.63766 0.064005 8.77383 0.119068 8.9C2.13907 13.59 5.93907 16.5 10.0391 16.5C14.1391 16.5 17.9391 13.59 19.9591 8.9C20.0141 8.77383 20.0426 8.63766 20.0426 8.5C20.0426 8.36234 20.0141 8.22617 19.9591 8.1V8.1ZM10.0391 14.5C6.85907 14.5 3.86907 12.21 2.13907 8.5C3.86907 4.79 6.85907 2.5 10.0391 2.5C13.2191 2.5 16.2091 4.79 17.9391 8.5C16.2091 12.21 13.2191 14.5 10.0391 14.5ZM10.0391 4.5C9.24794 4.5 8.47458 4.7346 7.81679 5.17412C7.15899 5.61365 6.6463 6.23836 6.34355 6.96927C6.0408 7.70017 5.96159 8.50444 6.11593 9.28036C6.27027 10.0563 6.65123 10.769 7.21064 11.3284C7.77005 11.8878 8.48278 12.2688 9.25871 12.4231C10.0346 12.5775 10.8389 12.4983 11.5698 12.1955C12.3007 11.8928 12.9254 11.3801 13.3649 10.7223C13.8045 10.0645 14.0391 9.29113 14.0391 8.5C14.0391 7.43913 13.6176 6.42172 12.8675 5.67157C12.1174 4.92143 11.0999 4.5 10.0391 4.5V4.5ZM10.0391 10.5C9.64351 10.5 9.25683 10.3827 8.92793 10.1629C8.59903 9.94318 8.34268 9.63082 8.19131 9.26537C8.03993 8.89991 8.00033 8.49778 8.0775 8.10982C8.15467 7.72186 8.34515 7.36549 8.62486 7.08579C8.90456 6.80608 9.26093 6.6156 9.64889 6.53843C10.0368 6.46126 10.439 6.50087 10.8044 6.65224C11.1699 6.80362 11.4822 7.05996 11.702 7.38886C11.9218 7.71776 12.0391 8.10444 12.0391 8.5C12.0391 9.03043 11.8284 9.53914 11.4533 9.91421C11.0782 10.2893 10.5695 10.5 10.0391 10.5Z" fill="#B7C0CE"/>
</svg>
