<svg width="24" height="20" viewBox="0 0 24 20" fill="none" xmlns="http://www.w3.org/2000/svg">
<path d="M18.9021 0.720435C18.7861 0.559745 18.5955 0.463991 18.3923 0.462891H5.53131C5.33381 0.462891 5.14778 0.553141 5.03065 0.705027L0.461567 6.64177C0.382335 6.74413 0.339848 6.8685 0.339848 6.99617C0.337551 8.3004 1.31935 9.41423 2.66171 9.63105L2.74439 9.64536V17.4124C2.74783 18.545 3.70666 19.4618 4.88827 19.4629H18.9733C20.1549 19.4607 21.1126 18.545 21.1172 17.4124V9.60464L21.1918 9.58703C22.3206 9.30747 23.1508 8.38735 23.2771 7.27573V7.26032L23.284 7.24601C23.3748 7.0545 23.3541 6.82998 23.2278 6.65718L18.9021 0.720435ZM17.4162 18.2709H14.201V12.1746H17.4162V18.2709ZM19.8736 17.4124C19.8736 17.889 19.4705 18.2753 18.9733 18.2764H18.6541V11.5792C18.6529 11.2501 18.3751 10.9837 18.0317 10.9837H13.5843C13.241 10.9837 12.9631 11.2501 12.962 11.5792V18.2709H4.88827C4.39335 18.2698 3.99029 17.8868 3.98685 17.4124V9.5441L4.05345 9.52099C4.50703 9.36911 4.91123 9.10716 5.22931 8.76266L5.30395 8.68122L5.37859 8.76266C6.39369 9.87209 8.15403 9.98325 9.31152 9.0103C9.40338 8.93326 9.48951 8.85071 9.56989 8.76266L9.64453 8.68122L9.71917 8.76266C10.7343 9.87209 12.4958 9.98325 13.6532 9.0103C13.7451 8.93326 13.8312 8.85071 13.9116 8.76266L13.9863 8.68122L14.062 8.76266C15.0771 9.87209 16.8375 9.98325 17.995 9.0103C18.0868 8.93326 18.173 8.85071 18.2533 8.76266L18.328 8.68122L18.4026 8.76266C18.7712 9.16439 19.2581 9.45055 19.7989 9.58373L19.8736 9.60244V17.4124ZM22.0404 7.15026C21.9532 7.96582 21.193 8.56015 20.3421 8.4765C19.5532 8.39946 18.9515 7.7622 18.9504 7.00167C18.9653 6.67259 18.6989 6.39413 18.3555 6.37982C18.0122 6.36551 17.7217 6.62086 17.7067 6.94994C17.7056 6.96755 17.7056 6.98406 17.7067 7.00167C17.7067 7.82274 17.0132 8.48751 16.1565 8.48751C15.2999 8.48751 14.6063 7.82274 14.6063 7.00167C14.6213 6.67259 14.3549 6.39413 14.0115 6.37982C13.6682 6.36551 13.3777 6.62086 13.3627 6.94994C13.3616 6.96755 13.3616 6.98406 13.3627 7.00167C13.3627 7.82274 12.6691 8.48751 11.8125 8.48751C10.9559 8.48751 10.2623 7.82274 10.2623 7.00167C10.2772 6.67259 10.0108 6.39413 9.66749 6.37982C9.32415 6.36551 9.03363 6.62086 9.0187 6.94994C9.01755 6.96755 9.01755 6.98406 9.0187 7.00167C9.0187 7.82274 8.32513 8.48751 7.4685 8.48751C6.61186 8.48751 5.91829 7.82274 5.91829 7.00167C5.93322 6.67259 5.66681 6.39413 5.32347 6.37982C4.98013 6.36551 4.68961 6.62086 4.67468 6.94994C4.67353 6.96755 4.67353 6.98406 4.67468 7.00167C4.67468 7.82164 3.97996 8.48641 3.12448 8.48531C2.35856 8.48531 1.70747 7.94821 1.59379 7.2218L1.5869 7.18217L5.83561 1.66257H18.0685L18.0983 1.70329L22.045 7.11394L22.0404 7.15026Z" fill="#2274FF"/>
</svg>
