<svg width="19" height="20" viewBox="0 0 19 20" fill="none" xmlns="http://www.w3.org/2000/svg">
<path d="M18.8676 8.90211C18.7923 8.70781 18.6793 8.5303 18.5352 8.37977L10.6209 0.465504C10.4734 0.317921 10.2982 0.200852 10.1053 0.120981C9.9125 0.0411097 9.70583 0 9.49712 0C9.0756 0 8.67135 0.167447 8.37329 0.465504C8.22571 0.613087 8.10864 0.788293 8.02877 0.98112C7.9489 1.17395 7.90779 1.38062 7.90779 1.58933C7.90779 2.01085 8.07524 2.4151 8.37329 2.71316L13.5967 7.92074H1.58285C1.16305 7.92074 0.76045 8.08751 0.463607 8.38435C0.166765 8.68119 0 9.0838 0 9.50359C0 9.92339 0.166765 10.326 0.463607 10.6228C0.76045 10.9197 1.16305 11.0864 1.58285 11.0864H13.5967L8.37329 16.294C8.22493 16.4412 8.10718 16.6162 8.02682 16.8091C7.94646 17.002 7.90509 17.2089 7.90509 17.4179C7.90509 17.6268 7.94646 17.8337 8.02682 18.0266C8.10718 18.2195 8.22493 18.3945 8.37329 18.5417C8.52044 18.69 8.6955 18.8078 8.88839 18.8882C9.08128 18.9685 9.28816 19.0099 9.49712 19.0099C9.70607 19.0099 9.91296 18.9685 10.1058 18.8882C10.2987 18.8078 10.4738 18.69 10.6209 18.5417L18.5352 10.6274C18.6793 10.4769 18.7923 10.2994 18.8676 10.1051C19.0259 9.71972 19.0259 9.28747 18.8676 8.90211Z" fill="white"/>
</svg>
