<svg width="30" height="23" viewBox="0 0 30 23" fill="none" xmlns="http://www.w3.org/2000/svg">
<path d="M2.23641 0.250488C1.84964 0.250488 1.4787 0.399744 1.20521 0.665421C0.931722 0.931097 0.778076 1.29143 0.778076 1.66715V21.5005C0.778076 21.8762 0.931722 22.2365 1.20521 22.5022C1.4787 22.7679 1.84964 22.9172 2.23641 22.9172C2.62318 22.9172 2.99412 22.7679 3.26761 22.5022C3.5411 22.2365 3.69474 21.8762 3.69474 21.5005V1.66715C3.69474 1.29143 3.5411 0.931097 3.26761 0.665421C2.99412 0.399744 2.62318 0.250488 2.23641 0.250488ZM29.8281 11.0455C29.7587 10.8716 29.6546 10.7127 29.5218 10.578L23.6885 4.91132C23.5525 4.77923 23.3911 4.67446 23.2134 4.60297C23.0358 4.53149 22.8454 4.49469 22.6531 4.49469C22.2647 4.49469 21.8923 4.64456 21.6177 4.91132C21.3431 5.17808 21.1888 5.53989 21.1888 5.91715C21.1888 6.29442 21.3431 6.65622 21.6177 6.92299L24.9718 10.1672H8.06974C7.68297 10.1672 7.31204 10.3164 7.03855 10.5821C6.76506 10.8478 6.61141 11.2081 6.61141 11.5838C6.61141 11.9595 6.76506 12.3199 7.03855 12.5856C7.31204 12.8512 7.68297 13.0005 8.06974 13.0005H24.9718L21.6177 16.2447C21.481 16.3764 21.3725 16.533 21.2984 16.7057C21.2244 16.8783 21.1863 17.0635 21.1863 17.2505C21.1863 17.4375 21.2244 17.6227 21.2984 17.7953C21.3725 17.9679 21.481 18.1246 21.6177 18.2563C21.7532 18.3891 21.9145 18.4945 22.0922 18.5664C22.2699 18.6383 22.4606 18.6754 22.6531 18.6754C22.8456 18.6754 23.0362 18.6383 23.2139 18.5664C23.3916 18.4945 23.5529 18.3891 23.6885 18.2563L29.5218 12.5897C29.6546 12.4549 29.7587 12.2961 29.8281 12.1222C29.9739 11.7773 29.9739 11.3904 29.8281 11.0455Z" fill="white"/>
</svg>
