<svg width="35" height="34" viewBox="0 0 35 34" fill="none" xmlns="http://www.w3.org/2000/svg">
<path d="M4.63273 5.66699C4.25701 5.66699 3.89667 5.81625 3.631 6.08192C3.36532 6.3476 3.21606 6.70794 3.21606 7.08366V26.917C3.21606 27.2927 3.36532 27.6531 3.631 27.9187C3.89667 28.1844 4.25701 28.3337 4.63273 28.3337C5.00845 28.3337 5.36879 28.1844 5.63447 27.9187C5.90014 27.6531 6.0494 27.2927 6.0494 26.917V7.08366C6.0494 6.70794 5.90014 6.3476 5.63447 6.08192C5.36879 5.81625 5.00845 5.66699 4.63273 5.66699ZM31.4361 16.462C31.3686 16.2881 31.2675 16.1292 31.1386 15.9945L25.4719 10.3278C25.3398 10.1957 25.183 10.091 25.0104 10.0195C24.8378 9.94799 24.6529 9.9112 24.4661 9.9112C24.0888 9.9112 23.727 10.0611 23.4602 10.3278C23.1935 10.5946 23.0436 10.9564 23.0436 11.3337C23.0436 11.7109 23.1935 12.0727 23.4602 12.3395L26.7186 15.5837H10.2994C9.92367 15.5837 9.56334 15.7329 9.29766 15.9986C9.03199 16.2643 8.88273 16.6246 8.88273 17.0003C8.88273 17.376 9.03199 17.7364 9.29766 18.0021C9.56334 18.2677 9.92367 18.417 10.2994 18.417H26.7186L23.4602 21.6612C23.3275 21.7929 23.2221 21.9495 23.1501 22.1222C23.0782 22.2948 23.0412 22.48 23.0412 22.667C23.0412 22.854 23.0782 23.0392 23.1501 23.2118C23.2221 23.3844 23.3275 23.5411 23.4602 23.6728C23.5919 23.8056 23.7486 23.911 23.9212 23.9829C24.0939 24.0548 24.279 24.0919 24.4661 24.0919C24.6531 24.0919 24.8382 24.0548 25.0109 23.9829C25.1835 23.911 25.3402 23.8056 25.4719 23.6728L31.1386 18.0062C31.2675 17.8714 31.3686 17.7126 31.4361 17.5387C31.5778 17.1938 31.5778 16.8069 31.4361 16.462Z" fill="white"/>
</svg>
