<svg width="29" height="24" viewBox="0 0 29 24" fill="none" xmlns="http://www.w3.org/2000/svg">
<path d="M27.5037 23.3334C27.8795 23.3334 28.2398 23.1841 28.5055 22.9184C28.7712 22.6528 28.9204 22.2924 28.9204 21.9167L28.9204 2.08337C28.9204 1.70765 28.7712 1.34731 28.5055 1.08164C28.2398 0.815962 27.8795 0.666708 27.5037 0.666708C27.128 0.666708 26.7677 0.815962 26.502 1.08164C26.2363 1.34731 26.0871 1.70765 26.0871 2.08337L26.0871 21.9167C26.0871 22.2924 26.2363 22.6528 26.502 22.9184C26.7677 23.1841 27.128 23.3334 27.5037 23.3334V23.3334ZM0.70041 12.5384C0.767835 12.7123 0.868936 12.8711 0.99791 13.0059L6.66458 18.6725C6.79667 18.8046 6.95348 18.9094 7.12606 18.9809C7.29864 19.0524 7.48361 19.0892 7.67041 19.0892C8.04767 19.0892 8.40948 18.9393 8.67624 18.6725C8.943 18.4058 9.09287 18.044 9.09287 17.6667C9.09287 17.2894 8.94301 16.9276 8.67624 16.6609L5.41791 13.4167L21.8371 13.4167C22.2128 13.4167 22.5731 13.2675 22.8388 13.0018C23.1045 12.7361 23.2537 12.3758 23.2537 12C23.2537 11.6243 23.1045 11.264 22.8388 10.9983C22.5731 10.7326 22.2128 10.5834 21.8371 10.5834L5.41791 10.5834L8.67624 7.33921C8.80902 7.20751 8.91442 7.05082 8.98634 6.87819C9.05826 6.70556 9.09529 6.52039 9.09529 6.33337C9.09529 6.14636 9.05826 5.96119 8.98634 5.78856C8.91442 5.61592 8.80902 5.45924 8.67624 5.32754C8.54454 5.19476 8.38786 5.08937 8.21523 5.01744C8.04259 4.94552 7.85743 4.90849 7.67041 4.90849C7.48339 4.90849 7.29823 4.94552 7.12559 5.01744C6.95296 5.08936 6.79628 5.19476 6.66458 5.32754L0.997911 10.9942C0.868936 11.1289 0.767835 11.2878 0.70041 11.4617C0.558718 11.8066 0.558718 12.1935 0.70041 12.5384V12.5384Z" fill="#2274FF"/>
</svg>
