<svg width="32" height="32" viewBox="0 0 32 32" fill="none" xmlns="http://www.w3.org/2000/svg">
<g clip-path="url(#clip0_1310_383)">
<path d="M26.2842 17.3027C26.0351 17.3027 25.8331 17.5047 25.8331 17.7539C25.8331 18.0697 25.5761 18.3267 25.2603 18.3267C24.9444 18.3267 24.6874 18.0697 24.6874 17.7539C24.6874 17.5047 24.4854 17.3027 24.2363 17.3027C23.9871 17.3027 23.7852 17.5047 23.7852 17.7539C23.7852 18.5673 24.4469 19.229 25.2603 19.229C26.0736 19.229 26.7354 18.5672 26.7354 17.7539C26.7354 17.5046 26.5334 17.3027 26.2842 17.3027Z" fill="#2274FF"/>
<mask id="path-2-outside-1_1310_383" maskUnits="userSpaceOnUse" x="-0.296875" y="0.227539" width="33" height="32" fill="black">
<rect fill="white" x="-0.296875" y="0.227539" width="33" height="32"/>
<path d="M30.5191 17.3763L29.2493 16.9696C29.0867 16.9174 28.9585 16.7876 28.9065 16.6223C28.6388 15.7714 28.235 14.9726 27.7061 14.248C27.4651 13.9177 27.197 13.6023 26.9042 13.302C27.0916 12.4802 27.1934 11.5502 27.1802 10.7467C27.1613 9.59718 26.9316 8.92299 26.478 8.6854C26.2337 8.55729 25.4902 8.16809 21.4658 10.0103C21.3705 10.0539 21.2815 10.1076 21.1991 10.1691C20.9278 10.0962 20.6505 10.0288 20.3715 9.96821C20.3379 9.96088 20.3032 9.9544 20.2694 9.94726C20.5955 9.23487 20.7859 8.46114 20.8217 7.6624C20.8328 7.41343 20.6401 7.20261 20.3912 7.19153C20.1429 7.17918 19.9314 7.37305 19.9203 7.62202C19.8615 8.93534 19.3167 10.171 18.3863 11.1015C17.8304 11.6573 17.1796 12.0611 16.4859 12.3154C15.2829 12.1466 14.0575 12.1466 12.8545 12.3154C12.1608 12.0611 11.51 11.6573 10.9541 11.1015C9.96147 10.1089 9.41479 8.78912 9.41479 7.38534C9.41479 5.9815 9.96147 4.66182 10.9541 3.66921C11.9467 2.67655 13.2665 2.12987 14.6702 2.12987C16.0739 2.12987 17.3937 2.67655 18.3863 3.66921C18.7852 4.0681 19.1148 4.52329 19.366 5.02201C19.4781 5.24458 19.7494 5.33419 19.9719 5.22206C20.1945 5.11005 20.284 4.83874 20.172 4.61623C19.8775 4.03141 19.4914 3.49817 19.0244 3.03111C17.8614 1.86806 16.315 1.22754 14.6703 1.22754C13.0255 1.22754 11.4791 1.86806 10.3161 3.03111C9.15305 4.19422 8.51252 5.74052 8.51252 7.38528C8.51252 9.03004 9.15305 10.5764 10.3161 11.7394C10.6516 12.0749 11.0166 12.3634 11.4026 12.6051C11.1221 12.678 10.8441 12.7598 10.5688 12.8519C10.3324 12.9309 10.2049 13.1865 10.2839 13.4228C10.3629 13.6591 10.6186 13.7867 10.8548 13.7077C13.3152 12.8852 16.0253 12.8852 18.4857 13.7077C18.5331 13.7236 18.5813 13.7311 18.6288 13.7311C18.8175 13.7311 18.9934 13.6117 19.0566 13.4228C19.1356 13.1865 19.0081 12.9309 18.7718 12.8519C18.4965 12.7598 18.2181 12.6779 17.9375 12.6051C18.3237 12.3634 18.6889 12.0749 19.0244 11.7394C19.3212 11.4426 19.5832 11.1185 19.8107 10.7741C19.9351 10.7982 20.0585 10.8236 20.1801 10.85C20.3422 10.8851 20.5035 10.9229 20.6633 10.9626C20.6583 10.9822 20.6531 11.0017 20.649 11.0217C20.4289 12.0658 20.4432 12.9893 20.6914 13.7663C20.9145 14.4647 21.317 15.0305 21.8878 15.4481C22.5605 15.9402 23.3727 16.1528 24.1084 16.1528C24.6621 16.1528 25.1726 16.0323 25.5475 15.8199C25.9716 15.5798 26.3269 15.0736 26.6081 14.3138C26.7381 14.4655 26.8613 14.6209 26.9774 14.7801C27.4483 15.4251 27.8078 16.1361 28.0459 16.893C28.1857 17.3376 28.5327 17.6875 28.9742 17.829L30.2439 18.2357C30.5771 18.3425 30.801 18.6491 30.801 18.999V21.1045C30.801 21.4543 30.5771 21.761 30.2439 21.8677L28.1981 22.523C27.8708 22.628 27.5938 22.8529 27.4182 23.1565C26.6144 24.5455 25.3507 25.695 23.662 26.573C23.4669 26.6746 23.3318 26.8561 23.2911 27.0713L22.6359 30.5408C22.6178 30.6364 22.534 30.7058 22.4367 30.7058H20.3063C20.209 30.7058 20.1252 30.6364 20.1071 30.5408L19.7442 28.6234C19.6728 28.2461 19.3189 27.9955 18.9381 28.0532C18.0204 28.192 17.0748 28.2623 16.1276 28.2623C15.423 28.2623 14.7274 28.223 14.0599 28.1454C13.6909 28.103 13.3471 28.3545 13.2782 28.7189L12.9333 30.5408C12.9152 30.6364 12.8315 30.7058 12.7342 30.7058H10.6037C10.5064 30.7058 10.4227 30.6364 10.4043 30.5394L9.77341 27.2625C9.73278 27.0513 9.60019 26.8718 9.4094 26.7699C6.53076 25.2332 5.00922 22.6657 5.00922 19.3454C5.00922 17.6677 5.37625 16.1843 6.10009 14.936C6.77555 13.7712 7.7621 12.808 9.03232 12.0733C9.24798 11.9485 9.32167 11.6725 9.19694 11.4568C9.07222 11.2411 8.79624 11.1676 8.58052 11.2922C6.11753 12.717 4.63201 14.9151 4.22302 17.7069C4.17961 17.703 4.13613 17.6991 4.09284 17.6947C4.10071 17.3934 4.04622 17.0895 3.92755 16.7945C3.6658 16.1439 3.12815 15.6743 2.55774 15.5982C2.10824 15.538 1.68047 15.7288 1.38361 16.121C0.953184 16.6898 1.02336 17.1399 1.15795 17.4174C1.38519 17.8856 1.96928 18.2168 2.93858 18.425C2.91194 18.4649 2.88263 18.505 2.85054 18.5452C2.27783 19.2635 1.60309 19.4223 1.16498 19.4373C0.9085 19.4459 0.703125 19.6518 0.703125 19.9085V19.9107C0.703125 20.1638 0.902869 20.3703 1.15577 20.3819C1.18817 20.3834 1.22201 20.3842 1.25725 20.3842C1.81162 20.3842 2.70135 20.1797 3.55615 19.1078C3.69111 18.9387 3.80107 18.7602 3.88559 18.5757C3.97072 18.5854 4.05252 18.5936 4.13087 18.6009C4.11549 18.8454 4.10701 19.0929 4.10701 19.3454C4.10701 21.224 4.55487 22.899 5.43807 24.3241C6.25243 25.638 7.41838 26.7138 8.90468 27.5228L9.51802 30.7085C9.61665 31.2297 10.0732 31.608 10.6037 31.608H12.7342C13.2646 31.608 13.7212 31.2297 13.8198 30.7085L14.1316 29.0612C14.7792 29.1298 15.4497 29.1645 16.1276 29.1645C17.0576 29.1645 17.9865 29.0998 18.8918 28.9719L19.2205 30.7087C19.3192 31.2299 19.7758 31.6081 20.3061 31.6081H22.4366C22.9671 31.6081 23.4236 31.2298 23.5223 30.7084L24.1603 27.3305C25.9627 26.3774 27.3212 25.1254 28.199 23.6083C28.2623 23.499 28.3597 23.4188 28.4733 23.3824L30.5191 22.7271C31.2273 22.5001 31.7031 21.8481 31.7031 21.1044V18.9988C31.7031 18.2552 31.2273 17.6032 30.5191 17.3763ZM26.2102 12.0145C26.0365 13.4994 25.5708 14.7697 25.1027 15.0348C24.5708 15.3361 23.3426 15.3943 22.4204 14.7197C21.4972 14.0444 21.1899 12.83 21.5317 11.2077C21.5661 11.0447 21.6818 10.9037 21.8414 10.8307C24.1 9.7968 25.4022 9.45865 25.886 9.45865C25.959 9.45865 26.0134 9.46634 26.0496 9.4805C26.1949 9.63538 26.3855 10.5158 26.2102 12.0145ZM1.96983 17.0234C1.92314 16.9271 2.03334 16.7579 2.10321 16.6655C2.21395 16.5192 2.31597 16.4893 2.39305 16.4893C2.40934 16.4893 2.42453 16.4906 2.43846 16.4925C2.64589 16.5202 2.93652 16.7484 3.09049 17.1312C3.12676 17.2212 3.17386 17.3705 3.18488 17.5566C2.56034 17.4272 2.07512 17.2407 1.96983 17.0234Z"/>
</mask>
<path d="M30.5191 17.3763L29.2493 16.9696C29.0867 16.9174 28.9585 16.7876 28.9065 16.6223C28.6388 15.7714 28.235 14.9726 27.7061 14.248C27.4651 13.9177 27.197 13.6023 26.9042 13.302C27.0916 12.4802 27.1934 11.5502 27.1802 10.7467C27.1613 9.59718 26.9316 8.92299 26.478 8.6854C26.2337 8.55729 25.4902 8.16809 21.4658 10.0103C21.3705 10.0539 21.2815 10.1076 21.1991 10.1691C20.9278 10.0962 20.6505 10.0288 20.3715 9.96821C20.3379 9.96088 20.3032 9.9544 20.2694 9.94726C20.5955 9.23487 20.7859 8.46114 20.8217 7.6624C20.8328 7.41343 20.6401 7.20261 20.3912 7.19153C20.1429 7.17918 19.9314 7.37305 19.9203 7.62202C19.8615 8.93534 19.3167 10.171 18.3863 11.1015C17.8304 11.6573 17.1796 12.0611 16.4859 12.3154C15.2829 12.1466 14.0575 12.1466 12.8545 12.3154C12.1608 12.0611 11.51 11.6573 10.9541 11.1015C9.96147 10.1089 9.41479 8.78912 9.41479 7.38534C9.41479 5.9815 9.96147 4.66182 10.9541 3.66921C11.9467 2.67655 13.2665 2.12987 14.6702 2.12987C16.0739 2.12987 17.3937 2.67655 18.3863 3.66921C18.7852 4.0681 19.1148 4.52329 19.366 5.02201C19.4781 5.24458 19.7494 5.33419 19.9719 5.22206C20.1945 5.11005 20.284 4.83874 20.172 4.61623C19.8775 4.03141 19.4914 3.49817 19.0244 3.03111C17.8614 1.86806 16.315 1.22754 14.6703 1.22754C13.0255 1.22754 11.4791 1.86806 10.3161 3.03111C9.15305 4.19422 8.51252 5.74052 8.51252 7.38528C8.51252 9.03004 9.15305 10.5764 10.3161 11.7394C10.6516 12.0749 11.0166 12.3634 11.4026 12.6051C11.1221 12.678 10.8441 12.7598 10.5688 12.8519C10.3324 12.9309 10.2049 13.1865 10.2839 13.4228C10.3629 13.6591 10.6186 13.7867 10.8548 13.7077C13.3152 12.8852 16.0253 12.8852 18.4857 13.7077C18.5331 13.7236 18.5813 13.7311 18.6288 13.7311C18.8175 13.7311 18.9934 13.6117 19.0566 13.4228C19.1356 13.1865 19.0081 12.9309 18.7718 12.8519C18.4965 12.7598 18.2181 12.6779 17.9375 12.6051C18.3237 12.3634 18.6889 12.0749 19.0244 11.7394C19.3212 11.4426 19.5832 11.1185 19.8107 10.7741C19.9351 10.7982 20.0585 10.8236 20.1801 10.85C20.3422 10.8851 20.5035 10.9229 20.6633 10.9626C20.6583 10.9822 20.6531 11.0017 20.649 11.0217C20.4289 12.0658 20.4432 12.9893 20.6914 13.7663C20.9145 14.4647 21.317 15.0305 21.8878 15.4481C22.5605 15.9402 23.3727 16.1528 24.1084 16.1528C24.6621 16.1528 25.1726 16.0323 25.5475 15.8199C25.9716 15.5798 26.3269 15.0736 26.6081 14.3138C26.7381 14.4655 26.8613 14.6209 26.9774 14.7801C27.4483 15.4251 27.8078 16.1361 28.0459 16.893C28.1857 17.3376 28.5327 17.6875 28.9742 17.829L30.2439 18.2357C30.5771 18.3425 30.801 18.6491 30.801 18.999V21.1045C30.801 21.4543 30.5771 21.761 30.2439 21.8677L28.1981 22.523C27.8708 22.628 27.5938 22.8529 27.4182 23.1565C26.6144 24.5455 25.3507 25.695 23.662 26.573C23.4669 26.6746 23.3318 26.8561 23.2911 27.0713L22.6359 30.5408C22.6178 30.6364 22.534 30.7058 22.4367 30.7058H20.3063C20.209 30.7058 20.1252 30.6364 20.1071 30.5408L19.7442 28.6234C19.6728 28.2461 19.3189 27.9955 18.9381 28.0532C18.0204 28.192 17.0748 28.2623 16.1276 28.2623C15.423 28.2623 14.7274 28.223 14.0599 28.1454C13.6909 28.103 13.3471 28.3545 13.2782 28.7189L12.9333 30.5408C12.9152 30.6364 12.8315 30.7058 12.7342 30.7058H10.6037C10.5064 30.7058 10.4227 30.6364 10.4043 30.5394L9.77341 27.2625C9.73278 27.0513 9.60019 26.8718 9.4094 26.7699C6.53076 25.2332 5.00922 22.6657 5.00922 19.3454C5.00922 17.6677 5.37625 16.1843 6.10009 14.936C6.77555 13.7712 7.7621 12.808 9.03232 12.0733C9.24798 11.9485 9.32167 11.6725 9.19694 11.4568C9.07222 11.2411 8.79624 11.1676 8.58052 11.2922C6.11753 12.717 4.63201 14.9151 4.22302 17.7069C4.17961 17.703 4.13613 17.6991 4.09284 17.6947C4.10071 17.3934 4.04622 17.0895 3.92755 16.7945C3.6658 16.1439 3.12815 15.6743 2.55774 15.5982C2.10824 15.538 1.68047 15.7288 1.38361 16.121C0.953184 16.6898 1.02336 17.1399 1.15795 17.4174C1.38519 17.8856 1.96928 18.2168 2.93858 18.425C2.91194 18.4649 2.88263 18.505 2.85054 18.5452C2.27783 19.2635 1.60309 19.4223 1.16498 19.4373C0.9085 19.4459 0.703125 19.6518 0.703125 19.9085V19.9107C0.703125 20.1638 0.902869 20.3703 1.15577 20.3819C1.18817 20.3834 1.22201 20.3842 1.25725 20.3842C1.81162 20.3842 2.70135 20.1797 3.55615 19.1078C3.69111 18.9387 3.80107 18.7602 3.88559 18.5757C3.97072 18.5854 4.05252 18.5936 4.13087 18.6009C4.11549 18.8454 4.10701 19.0929 4.10701 19.3454C4.10701 21.224 4.55487 22.899 5.43807 24.3241C6.25243 25.638 7.41838 26.7138 8.90468 27.5228L9.51802 30.7085C9.61665 31.2297 10.0732 31.608 10.6037 31.608H12.7342C13.2646 31.608 13.7212 31.2297 13.8198 30.7085L14.1316 29.0612C14.7792 29.1298 15.4497 29.1645 16.1276 29.1645C17.0576 29.1645 17.9865 29.0998 18.8918 28.9719L19.2205 30.7087C19.3192 31.2299 19.7758 31.6081 20.3061 31.6081H22.4366C22.9671 31.6081 23.4236 31.2298 23.5223 30.7084L24.1603 27.3305C25.9627 26.3774 27.3212 25.1254 28.199 23.6083C28.2623 23.499 28.3597 23.4188 28.4733 23.3824L30.5191 22.7271C31.2273 22.5001 31.7031 21.8481 31.7031 21.1044V18.9988C31.7031 18.2552 31.2273 17.6032 30.5191 17.3763ZM26.2102 12.0145C26.0365 13.4994 25.5708 14.7697 25.1027 15.0348C24.5708 15.3361 23.3426 15.3943 22.4204 14.7197C21.4972 14.0444 21.1899 12.83 21.5317 11.2077C21.5661 11.0447 21.6818 10.9037 21.8414 10.8307C24.1 9.7968 25.4022 9.45865 25.886 9.45865C25.959 9.45865 26.0134 9.46634 26.0496 9.4805C26.1949 9.63538 26.3855 10.5158 26.2102 12.0145ZM1.96983 17.0234C1.92314 16.9271 2.03334 16.7579 2.10321 16.6655C2.21395 16.5192 2.31597 16.4893 2.39305 16.4893C2.40934 16.4893 2.42453 16.4906 2.43846 16.4925C2.64589 16.5202 2.93652 16.7484 3.09049 17.1312C3.12676 17.2212 3.17386 17.3705 3.18488 17.5566C2.56034 17.4272 2.07512 17.2407 1.96983 17.0234Z" fill="#2274FF"/>
<path d="M30.5191 17.3763L29.2493 16.9696C29.0867 16.9174 28.9585 16.7876 28.9065 16.6223C28.6388 15.7714 28.235 14.9726 27.7061 14.248C27.4651 13.9177 27.197 13.6023 26.9042 13.302C27.0916 12.4802 27.1934 11.5502 27.1802 10.7467C27.1613 9.59718 26.9316 8.92299 26.478 8.6854C26.2337 8.55729 25.4902 8.16809 21.4658 10.0103C21.3705 10.0539 21.2815 10.1076 21.1991 10.1691C20.9278 10.0962 20.6505 10.0288 20.3715 9.96821C20.3379 9.96088 20.3032 9.9544 20.2694 9.94726C20.5955 9.23487 20.7859 8.46114 20.8217 7.6624C20.8328 7.41343 20.6401 7.20261 20.3912 7.19153C20.1429 7.17918 19.9314 7.37305 19.9203 7.62202C19.8615 8.93534 19.3167 10.171 18.3863 11.1015C17.8304 11.6573 17.1796 12.0611 16.4859 12.3154C15.2829 12.1466 14.0575 12.1466 12.8545 12.3154C12.1608 12.0611 11.51 11.6573 10.9541 11.1015C9.96147 10.1089 9.41479 8.78912 9.41479 7.38534C9.41479 5.9815 9.96147 4.66182 10.9541 3.66921C11.9467 2.67655 13.2665 2.12987 14.6702 2.12987C16.0739 2.12987 17.3937 2.67655 18.3863 3.66921C18.7852 4.0681 19.1148 4.52329 19.366 5.02201C19.4781 5.24458 19.7494 5.33419 19.9719 5.22206C20.1945 5.11005 20.284 4.83874 20.172 4.61623C19.8775 4.03141 19.4914 3.49817 19.0244 3.03111C17.8614 1.86806 16.315 1.22754 14.6703 1.22754C13.0255 1.22754 11.4791 1.86806 10.3161 3.03111C9.15305 4.19422 8.51252 5.74052 8.51252 7.38528C8.51252 9.03004 9.15305 10.5764 10.3161 11.7394C10.6516 12.0749 11.0166 12.3634 11.4026 12.6051C11.1221 12.678 10.8441 12.7598 10.5688 12.8519C10.3324 12.9309 10.2049 13.1865 10.2839 13.4228C10.3629 13.6591 10.6186 13.7867 10.8548 13.7077C13.3152 12.8852 16.0253 12.8852 18.4857 13.7077C18.5331 13.7236 18.5813 13.7311 18.6288 13.7311C18.8175 13.7311 18.9934 13.6117 19.0566 13.4228C19.1356 13.1865 19.0081 12.9309 18.7718 12.8519C18.4965 12.7598 18.2181 12.6779 17.9375 12.6051C18.3237 12.3634 18.6889 12.0749 19.0244 11.7394C19.3212 11.4426 19.5832 11.1185 19.8107 10.7741C19.9351 10.7982 20.0585 10.8236 20.1801 10.85C20.3422 10.8851 20.5035 10.9229 20.6633 10.9626C20.6583 10.9822 20.6531 11.0017 20.649 11.0217C20.4289 12.0658 20.4432 12.9893 20.6914 13.7663C20.9145 14.4647 21.317 15.0305 21.8878 15.4481C22.5605 15.9402 23.3727 16.1528 24.1084 16.1528C24.6621 16.1528 25.1726 16.0323 25.5475 15.8199C25.9716 15.5798 26.3269 15.0736 26.6081 14.3138C26.7381 14.4655 26.8613 14.6209 26.9774 14.7801C27.4483 15.4251 27.8078 16.1361 28.0459 16.893C28.1857 17.3376 28.5327 17.6875 28.9742 17.829L30.2439 18.2357C30.5771 18.3425 30.801 18.6491 30.801 18.999V21.1045C30.801 21.4543 30.5771 21.761 30.2439 21.8677L28.1981 22.523C27.8708 22.628 27.5938 22.8529 27.4182 23.1565C26.6144 24.5455 25.3507 25.695 23.662 26.573C23.4669 26.6746 23.3318 26.8561 23.2911 27.0713L22.6359 30.5408C22.6178 30.6364 22.534 30.7058 22.4367 30.7058H20.3063C20.209 30.7058 20.1252 30.6364 20.1071 30.5408L19.7442 28.6234C19.6728 28.2461 19.3189 27.9955 18.9381 28.0532C18.0204 28.192 17.0748 28.2623 16.1276 28.2623C15.423 28.2623 14.7274 28.223 14.0599 28.1454C13.6909 28.103 13.3471 28.3545 13.2782 28.7189L12.9333 30.5408C12.9152 30.6364 12.8315 30.7058 12.7342 30.7058H10.6037C10.5064 30.7058 10.4227 30.6364 10.4043 30.5394L9.77341 27.2625C9.73278 27.0513 9.60019 26.8718 9.4094 26.7699C6.53076 25.2332 5.00922 22.6657 5.00922 19.3454C5.00922 17.6677 5.37625 16.1843 6.10009 14.936C6.77555 13.7712 7.7621 12.808 9.03232 12.0733C9.24798 11.9485 9.32167 11.6725 9.19694 11.4568C9.07222 11.2411 8.79624 11.1676 8.58052 11.2922C6.11753 12.717 4.63201 14.9151 4.22302 17.7069C4.17961 17.703 4.13613 17.6991 4.09284 17.6947C4.10071 17.3934 4.04622 17.0895 3.92755 16.7945C3.6658 16.1439 3.12815 15.6743 2.55774 15.5982C2.10824 15.538 1.68047 15.7288 1.38361 16.121C0.953184 16.6898 1.02336 17.1399 1.15795 17.4174C1.38519 17.8856 1.96928 18.2168 2.93858 18.425C2.91194 18.4649 2.88263 18.505 2.85054 18.5452C2.27783 19.2635 1.60309 19.4223 1.16498 19.4373C0.9085 19.4459 0.703125 19.6518 0.703125 19.9085V19.9107C0.703125 20.1638 0.902869 20.3703 1.15577 20.3819C1.18817 20.3834 1.22201 20.3842 1.25725 20.3842C1.81162 20.3842 2.70135 20.1797 3.55615 19.1078C3.69111 18.9387 3.80107 18.7602 3.88559 18.5757C3.97072 18.5854 4.05252 18.5936 4.13087 18.6009C4.11549 18.8454 4.10701 19.0929 4.10701 19.3454C4.10701 21.224 4.55487 22.899 5.43807 24.3241C6.25243 25.638 7.41838 26.7138 8.90468 27.5228L9.51802 30.7085C9.61665 31.2297 10.0732 31.608 10.6037 31.608H12.7342C13.2646 31.608 13.7212 31.2297 13.8198 30.7085L14.1316 29.0612C14.7792 29.1298 15.4497 29.1645 16.1276 29.1645C17.0576 29.1645 17.9865 29.0998 18.8918 28.9719L19.2205 30.7087C19.3192 31.2299 19.7758 31.6081 20.3061 31.6081H22.4366C22.9671 31.6081 23.4236 31.2298 23.5223 30.7084L24.1603 27.3305C25.9627 26.3774 27.3212 25.1254 28.199 23.6083C28.2623 23.499 28.3597 23.4188 28.4733 23.3824L30.5191 22.7271C31.2273 22.5001 31.7031 21.8481 31.7031 21.1044V18.9988C31.7031 18.2552 31.2273 17.6032 30.5191 17.3763ZM26.2102 12.0145C26.0365 13.4994 25.5708 14.7697 25.1027 15.0348C24.5708 15.3361 23.3426 15.3943 22.4204 14.7197C21.4972 14.0444 21.1899 12.83 21.5317 11.2077C21.5661 11.0447 21.6818 10.9037 21.8414 10.8307C24.1 9.7968 25.4022 9.45865 25.886 9.45865C25.959 9.45865 26.0134 9.46634 26.0496 9.4805C26.1949 9.63538 26.3855 10.5158 26.2102 12.0145ZM1.96983 17.0234C1.92314 16.9271 2.03334 16.7579 2.10321 16.6655C2.21395 16.5192 2.31597 16.4893 2.39305 16.4893C2.40934 16.4893 2.42453 16.4906 2.43846 16.4925C2.64589 16.5202 2.93652 16.7484 3.09049 17.1312C3.12676 17.2212 3.17386 17.3705 3.18488 17.5566C2.56034 17.4272 2.07512 17.2407 1.96983 17.0234Z" stroke="#2274FF" stroke-width="0.8" mask="url(#path-2-outside-1_1310_383)"/>
<path d="M15.1084 6.86789V5.25346C15.6652 5.29324 15.872 5.54772 16.0628 5.54772C16.3014 5.54772 16.4128 5.24553 16.4128 5.09441C16.4128 4.70467 15.6492 4.53768 15.1084 4.52176V4.30694C15.1084 4.21151 14.9891 4.12402 14.8698 4.12402C14.7345 4.12402 14.6391 4.21151 14.6391 4.30694V4.53756C13.8836 4.61712 13.128 5.01479 13.128 6.0169C13.128 7.03494 13.9233 7.32126 14.6391 7.57574V9.44476C13.8279 9.38113 13.6132 8.8244 13.3507 8.8244C13.1519 8.8244 12.9849 9.08687 12.9849 9.27777C12.9849 9.66745 13.6529 10.2003 14.6391 10.2162V10.4628C14.6391 10.5582 14.7346 10.6457 14.8698 10.6457C14.9891 10.6457 15.1084 10.5582 15.1084 10.4628V10.1924C15.9674 10.0731 16.5559 9.53225 16.5559 8.554C16.5559 7.47239 15.8004 7.12237 15.1084 6.86789ZM14.6868 6.71682C14.2653 6.55777 13.9233 6.39078 13.9233 5.93746C13.9233 5.52387 14.2415 5.32503 14.6868 5.26939V6.71682ZM15.0607 9.42884V7.75072C15.4503 7.91771 15.7605 8.1404 15.7605 8.64143C15.7605 9.09486 15.4901 9.34934 15.0607 9.42884Z" fill="#2274FF"/>
</g>
<defs>
<clipPath id="clip0_1310_383">
<rect width="31" height="31" fill="white" transform="translate(0.703125 0.917969)"/>
</clipPath>
</defs>
</svg>
