<svg width="18" height="17" viewBox="0 0 18 17" fill="none" xmlns="http://www.w3.org/2000/svg">
<path d="M16.5814 10.3281C16.3604 10.3281 16.1484 10.4115 15.9921 10.56C15.8358 10.7085 15.748 10.9098 15.748 11.1198V14.2865C15.748 14.4964 15.6603 14.6978 15.504 14.8463C15.3477 14.9947 15.1357 15.0781 14.9147 15.0781H3.24805C3.02703 15.0781 2.81507 14.9947 2.65879 14.8463C2.50251 14.6978 2.41471 14.4964 2.41471 14.2865V11.1198C2.41471 10.9098 2.32692 10.7085 2.17064 10.56C2.01436 10.4115 1.80239 10.3281 1.58138 10.3281C1.36037 10.3281 1.1484 10.4115 0.992125 10.56C0.835844 10.7085 0.748047 10.9098 0.748047 11.1198V14.2865C0.748047 14.9163 1.01144 15.5204 1.48028 15.9658C1.94912 16.4112 2.58501 16.6615 3.24805 16.6615H14.9147C15.5778 16.6615 16.2136 16.4112 16.6825 15.9658C17.1513 15.5204 17.4147 14.9163 17.4147 14.2865V11.1198C17.4147 10.9098 17.3269 10.7085 17.1706 10.56C17.0144 10.4115 16.8024 10.3281 16.5814 10.3281ZM8.48971 11.6819C8.56897 11.7539 8.66242 11.8104 8.76471 11.8481C8.86446 11.89 8.97232 11.9116 9.08138 11.9116C9.19044 11.9116 9.2983 11.89 9.39805 11.8481C9.50034 11.8104 9.59379 11.7539 9.67305 11.6819L13.0064 8.51521C13.1633 8.36614 13.2515 8.16395 13.2515 7.95313C13.2515 7.7423 13.1633 7.54012 13.0064 7.39104C12.8495 7.24197 12.6366 7.15822 12.4147 7.15822C12.1928 7.15822 11.98 7.24197 11.823 7.39104L9.91471 9.21188V1.61979C9.91471 1.40983 9.82692 1.20847 9.67064 1.06C9.51436 0.911532 9.30239 0.828125 9.08138 0.828125C8.86037 0.828125 8.64841 0.911532 8.49213 1.06C8.33584 1.20847 8.24805 1.40983 8.24805 1.61979V9.21188L6.33971 7.39104C6.26202 7.31723 6.16977 7.25868 6.06826 7.21873C5.96674 7.17878 5.85793 7.15822 5.74805 7.15822C5.63816 7.15822 5.52936 7.17878 5.42784 7.21873C5.32632 7.25868 5.23408 7.31723 5.15638 7.39104C5.07868 7.46486 5.01705 7.55249 4.975 7.64893C4.93295 7.74537 4.9113 7.84874 4.9113 7.95313C4.9113 8.05751 4.93295 8.16088 4.975 8.25732C5.01705 8.35377 5.07868 8.4414 5.15638 8.51521L8.48971 11.6819Z" fill="#2274FF"/>
</svg>
