<svg width="43" height="42" viewBox="0 0 43 42" fill="none" xmlns="http://www.w3.org/2000/svg">
<g clip-path="url(#clip0_3371_8303)">
<path d="M35.0196 22.1265C34.6821 22.1265 34.4084 22.3936 34.4084 22.7231C34.4084 23.1409 34.0603 23.4807 33.6323 23.4807C33.2044 23.4807 32.8562 23.1409 32.8562 22.7231C32.8562 22.3935 32.5826 22.1265 32.245 22.1265C31.9074 22.1265 31.6338 22.3936 31.6338 22.7231C31.6338 23.7989 32.5304 24.6741 33.6323 24.6741C34.7342 24.6741 35.6308 23.7988 35.6308 22.7231C35.6308 22.3934 35.3572 22.1265 35.0196 22.1265Z" fill="#2274FF"/>
<mask id="path-2-outside-1_3371_8303" maskUnits="userSpaceOnUse" x="-0.638672" y="-0.134277" width="44" height="42" fill="black">
<rect fill="white" x="-0.638672" y="-0.134277" width="44" height="42"/>
<path d="M40.7571 22.2238L39.0368 21.6858C38.8164 21.6169 38.6428 21.4452 38.5723 21.2265C38.2097 20.1011 37.6626 19.0447 36.946 18.0863C36.6195 17.6495 36.2563 17.2323 35.8596 16.8352C36.1134 15.7483 36.2514 14.5182 36.2335 13.4555C36.2079 11.9352 35.8967 11.0436 35.2821 10.7293C34.9511 10.5599 33.9438 10.0452 28.4914 12.4816C28.3623 12.5393 28.2417 12.6103 28.1301 12.6917C27.7625 12.5952 27.3868 12.506 27.0088 12.426C26.9632 12.4163 26.9163 12.4077 26.8705 12.3983C27.3123 11.4561 27.5703 10.4327 27.6188 9.37635C27.6338 9.04707 27.3727 8.76824 27.0354 8.75358C26.699 8.73725 26.4125 8.99366 26.3975 9.32294C26.3178 11.0599 25.5797 12.6942 24.3192 13.9248C23.5661 14.66 22.6842 15.194 21.7444 15.5304C20.1145 15.3071 18.4544 15.3071 16.8245 15.5304C15.8846 15.194 15.0028 14.66 14.2497 13.9248C12.9049 12.612 12.1642 10.8665 12.1642 9.00991C12.1642 7.15322 12.9049 5.40784 14.2497 4.09503C15.5945 2.78215 17.3826 2.05913 19.2845 2.05913C21.1863 2.05913 22.9744 2.78215 24.3192 4.09503C24.8596 4.62259 25.3062 5.22462 25.6466 5.88422C25.7984 6.17859 26.166 6.2971 26.4674 6.1488C26.769 6.00065 26.8903 5.64182 26.7385 5.34754C26.3396 4.57406 25.8164 3.86881 25.1837 3.25109C23.608 1.71287 21.5129 0.865723 19.2845 0.865723C17.0562 0.865723 14.9611 1.71287 13.3853 3.25109C11.8096 4.78939 10.9418 6.83451 10.9418 9.00983C10.9418 11.1852 11.8096 13.2303 13.3853 14.7686C13.8399 15.2123 14.3344 15.5939 14.8574 15.9135C14.4773 16.0099 14.1007 16.1181 13.7277 16.2398C13.4075 16.3443 13.2347 16.6824 13.3418 16.995C13.4488 17.3075 13.7952 17.4762 14.1153 17.3718C17.4487 16.2839 21.1204 16.2839 24.4538 17.3718C24.5181 17.3927 24.5834 17.4027 24.6477 17.4027C24.9034 17.4027 25.1417 17.2447 25.2273 16.995C25.3343 16.6824 25.1616 16.3443 24.8414 16.2398C24.4684 16.1181 24.0912 16.0098 23.7112 15.9134C24.2343 15.5938 24.7292 15.2123 25.1837 14.7686C25.5859 14.376 25.9408 13.9474 26.249 13.4918C26.4175 13.5238 26.5848 13.5572 26.7496 13.5921C26.9691 13.6387 27.1876 13.6886 27.4042 13.7411C27.3974 13.767 27.3904 13.7929 27.3847 13.8192C27.0866 15.2002 27.106 16.4215 27.4422 17.4492C27.7444 18.3729 28.2899 19.1212 29.0632 19.6735C29.9746 20.3244 31.075 20.6055 32.0717 20.6055C32.8219 20.6055 33.5135 20.4462 34.0215 20.1654C34.596 19.8477 35.0774 19.1783 35.4584 18.1733C35.6345 18.374 35.8015 18.5796 35.9588 18.79C36.5967 19.6432 37.0838 20.5834 37.4063 21.5846C37.5957 22.1726 38.0659 22.6353 38.664 22.8224L40.3844 23.3604C40.8358 23.5016 41.1391 23.9072 41.1391 24.3699V27.1546C41.1391 27.6173 40.8358 28.0229 40.3844 28.164L37.6126 29.0307C37.1692 29.1695 36.7939 29.467 36.5559 29.8685C35.4669 31.7057 33.7549 33.2259 31.4669 34.3872C31.2026 34.5215 31.0195 34.7616 30.9644 35.0462L30.0767 39.6349C30.0521 39.7614 29.9387 39.8531 29.8069 39.8531H26.9204C26.7886 39.8531 26.6751 39.7613 26.6506 39.6349L26.1589 37.0989C26.0621 36.6 25.5827 36.2685 25.0668 36.3448C23.8234 36.5284 22.5423 36.6213 21.259 36.6213C20.3044 36.6213 19.3619 36.5694 18.4577 36.4668C17.9577 36.4107 17.4919 36.7434 17.3985 37.2253L16.9312 39.6349C16.9067 39.7614 16.7933 39.8531 16.6614 39.8531H13.775C13.6432 39.8531 13.5297 39.7613 13.5049 39.633L12.6501 35.299C12.5951 35.0198 12.4154 34.7823 12.1569 34.6476C8.25684 32.6151 6.19539 29.2195 6.19539 24.828C6.19539 22.6092 6.69266 20.6472 7.67335 18.9963C8.58849 17.4557 9.92511 16.1819 11.646 15.2101C11.9382 15.0451 12.0381 14.6801 11.8691 14.3948C11.7001 14.1095 11.3262 14.0122 11.0339 14.177C7.69697 16.0614 5.68434 18.9686 5.13021 22.661C5.0714 22.6558 5.0125 22.6507 4.95385 22.6448C4.96451 22.2464 4.89068 21.8444 4.7299 21.4543C4.37528 20.5938 3.64684 19.9727 2.87403 19.872C2.26503 19.7924 1.68548 20.0448 1.28328 20.5636C0.700117 21.3158 0.795191 21.9111 0.977547 22.2781C1.28541 22.8973 2.07677 23.3353 3.39 23.6107C3.35391 23.6635 3.31421 23.7165 3.27073 23.7698C2.4948 24.7197 1.58064 24.9298 0.987062 24.9495C0.639578 24.961 0.361328 25.2333 0.361328 25.5728V25.5757C0.361328 25.9105 0.631949 26.1836 0.974594 26.1988C1.01848 26.2009 1.06434 26.2019 1.11208 26.2019C1.86316 26.2019 3.06861 25.9315 4.22672 24.5138C4.40957 24.2901 4.55854 24.054 4.67305 23.8101C4.78839 23.8228 4.89921 23.8337 5.00536 23.8433C4.98453 24.1667 4.97304 24.4941 4.97304 24.828C4.97304 27.3127 5.57983 29.528 6.77642 31.4128C7.87974 33.1505 9.45941 34.5733 11.4731 35.6433L12.3041 39.8567C12.4377 40.5461 13.0563 41.0464 13.775 41.0464H16.6614C17.3801 41.0464 17.9987 40.5461 18.1323 39.8567L18.5548 37.678C19.4322 37.7687 20.3406 37.8147 21.259 37.8147C22.519 37.8147 23.7775 37.729 25.004 37.5599L25.4494 39.8569C25.5831 40.5462 26.2017 41.0465 26.9203 41.0465H29.8067C30.5254 41.0465 31.144 40.5461 31.2777 39.8566L32.142 35.3889C34.5839 34.1284 36.4246 32.4726 37.6139 30.4661C37.6996 30.3215 37.8316 30.2154 37.9855 30.1673L40.7571 29.3006C41.7166 29.0004 42.3613 28.138 42.3613 27.1544V24.3697C42.3613 23.3862 41.7166 22.5238 40.7571 22.2238ZM34.9193 15.1323C34.684 17.0963 34.053 18.7763 33.4189 19.1269C32.6981 19.5255 31.0341 19.6024 29.7848 18.7103C28.534 17.8171 28.1177 16.2109 28.5807 14.0652C28.6272 13.8498 28.7841 13.6633 29.0002 13.5667C32.0603 12.1993 33.8246 11.752 34.48 11.752C34.5789 11.752 34.6526 11.7622 34.7017 11.7809C34.8985 11.9858 35.1568 13.1502 34.9193 15.1323ZM2.0775 21.757C2.01426 21.6297 2.16355 21.4058 2.25822 21.2836C2.40825 21.0902 2.54648 21.0506 2.6509 21.0506C2.67297 21.0506 2.69356 21.0524 2.71243 21.0549C2.99346 21.0915 3.38721 21.3934 3.59582 21.8995C3.64496 22.0187 3.70878 22.2161 3.72371 22.4622C2.87755 22.2911 2.22016 22.0444 2.0775 21.757Z"/>
</mask>
<path d="M40.7571 22.2238L39.0368 21.6858C38.8164 21.6169 38.6428 21.4452 38.5723 21.2265C38.2097 20.1011 37.6626 19.0447 36.946 18.0863C36.6195 17.6495 36.2563 17.2323 35.8596 16.8352C36.1134 15.7483 36.2514 14.5182 36.2335 13.4555C36.2079 11.9352 35.8967 11.0436 35.2821 10.7293C34.9511 10.5599 33.9438 10.0452 28.4914 12.4816C28.3623 12.5393 28.2417 12.6103 28.1301 12.6917C27.7625 12.5952 27.3868 12.506 27.0088 12.426C26.9632 12.4163 26.9163 12.4077 26.8705 12.3983C27.3123 11.4561 27.5703 10.4327 27.6188 9.37635C27.6338 9.04707 27.3727 8.76824 27.0354 8.75358C26.699 8.73725 26.4125 8.99366 26.3975 9.32294C26.3178 11.0599 25.5797 12.6942 24.3192 13.9248C23.5661 14.66 22.6842 15.194 21.7444 15.5304C20.1145 15.3071 18.4544 15.3071 16.8245 15.5304C15.8846 15.194 15.0028 14.66 14.2497 13.9248C12.9049 12.612 12.1642 10.8665 12.1642 9.00991C12.1642 7.15322 12.9049 5.40784 14.2497 4.09503C15.5945 2.78215 17.3826 2.05913 19.2845 2.05913C21.1863 2.05913 22.9744 2.78215 24.3192 4.09503C24.8596 4.62259 25.3062 5.22462 25.6466 5.88422C25.7984 6.17859 26.166 6.2971 26.4674 6.1488C26.769 6.00065 26.8903 5.64182 26.7385 5.34754C26.3396 4.57406 25.8164 3.86881 25.1837 3.25109C23.608 1.71287 21.5129 0.865723 19.2845 0.865723C17.0562 0.865723 14.9611 1.71287 13.3853 3.25109C11.8096 4.78939 10.9418 6.83451 10.9418 9.00983C10.9418 11.1852 11.8096 13.2303 13.3853 14.7686C13.8399 15.2123 14.3344 15.5939 14.8574 15.9135C14.4773 16.0099 14.1007 16.1181 13.7277 16.2398C13.4075 16.3443 13.2347 16.6824 13.3418 16.995C13.4488 17.3075 13.7952 17.4762 14.1153 17.3718C17.4487 16.2839 21.1204 16.2839 24.4538 17.3718C24.5181 17.3927 24.5834 17.4027 24.6477 17.4027C24.9034 17.4027 25.1417 17.2447 25.2273 16.995C25.3343 16.6824 25.1616 16.3443 24.8414 16.2398C24.4684 16.1181 24.0912 16.0098 23.7112 15.9134C24.2343 15.5938 24.7292 15.2123 25.1837 14.7686C25.5859 14.376 25.9408 13.9474 26.249 13.4918C26.4175 13.5238 26.5848 13.5572 26.7496 13.5921C26.9691 13.6387 27.1876 13.6886 27.4042 13.7411C27.3974 13.767 27.3904 13.7929 27.3847 13.8192C27.0866 15.2002 27.106 16.4215 27.4422 17.4492C27.7444 18.3729 28.2899 19.1212 29.0632 19.6735C29.9746 20.3244 31.075 20.6055 32.0717 20.6055C32.8219 20.6055 33.5135 20.4462 34.0215 20.1654C34.596 19.8477 35.0774 19.1783 35.4584 18.1733C35.6345 18.374 35.8015 18.5796 35.9588 18.79C36.5967 19.6432 37.0838 20.5834 37.4063 21.5846C37.5957 22.1726 38.0659 22.6353 38.664 22.8224L40.3844 23.3604C40.8358 23.5016 41.1391 23.9072 41.1391 24.3699V27.1546C41.1391 27.6173 40.8358 28.0229 40.3844 28.164L37.6126 29.0307C37.1692 29.1695 36.7939 29.467 36.5559 29.8685C35.4669 31.7057 33.7549 33.2259 31.4669 34.3872C31.2026 34.5215 31.0195 34.7616 30.9644 35.0462L30.0767 39.6349C30.0521 39.7614 29.9387 39.8531 29.8069 39.8531H26.9204C26.7886 39.8531 26.6751 39.7613 26.6506 39.6349L26.1589 37.0989C26.0621 36.6 25.5827 36.2685 25.0668 36.3448C23.8234 36.5284 22.5423 36.6213 21.259 36.6213C20.3044 36.6213 19.3619 36.5694 18.4577 36.4668C17.9577 36.4107 17.4919 36.7434 17.3985 37.2253L16.9312 39.6349C16.9067 39.7614 16.7933 39.8531 16.6614 39.8531H13.775C13.6432 39.8531 13.5297 39.7613 13.5049 39.633L12.6501 35.299C12.5951 35.0198 12.4154 34.7823 12.1569 34.6476C8.25684 32.6151 6.19539 29.2195 6.19539 24.828C6.19539 22.6092 6.69266 20.6472 7.67335 18.9963C8.58849 17.4557 9.92511 16.1819 11.646 15.2101C11.9382 15.0451 12.0381 14.6801 11.8691 14.3948C11.7001 14.1095 11.3262 14.0122 11.0339 14.177C7.69697 16.0614 5.68434 18.9686 5.13021 22.661C5.0714 22.6558 5.0125 22.6507 4.95385 22.6448C4.96451 22.2464 4.89068 21.8444 4.7299 21.4543C4.37528 20.5938 3.64684 19.9727 2.87403 19.872C2.26503 19.7924 1.68548 20.0448 1.28328 20.5636C0.700117 21.3158 0.795191 21.9111 0.977547 22.2781C1.28541 22.8973 2.07677 23.3353 3.39 23.6107C3.35391 23.6635 3.31421 23.7165 3.27073 23.7698C2.4948 24.7197 1.58064 24.9298 0.987062 24.9495C0.639578 24.961 0.361328 25.2333 0.361328 25.5728V25.5757C0.361328 25.9105 0.631949 26.1836 0.974594 26.1988C1.01848 26.2009 1.06434 26.2019 1.11208 26.2019C1.86316 26.2019 3.06861 25.9315 4.22672 24.5138C4.40957 24.2901 4.55854 24.054 4.67305 23.8101C4.78839 23.8228 4.89921 23.8337 5.00536 23.8433C4.98453 24.1667 4.97304 24.4941 4.97304 24.828C4.97304 27.3127 5.57983 29.528 6.77642 31.4128C7.87974 33.1505 9.45941 34.5733 11.4731 35.6433L12.3041 39.8567C12.4377 40.5461 13.0563 41.0464 13.775 41.0464H16.6614C17.3801 41.0464 17.9987 40.5461 18.1323 39.8567L18.5548 37.678C19.4322 37.7687 20.3406 37.8147 21.259 37.8147C22.519 37.8147 23.7775 37.729 25.004 37.5599L25.4494 39.8569C25.5831 40.5462 26.2017 41.0465 26.9203 41.0465H29.8067C30.5254 41.0465 31.144 40.5461 31.2777 39.8566L32.142 35.3889C34.5839 34.1284 36.4246 32.4726 37.6139 30.4661C37.6996 30.3215 37.8316 30.2154 37.9855 30.1673L40.7571 29.3006C41.7166 29.0004 42.3613 28.138 42.3613 27.1544V24.3697C42.3613 23.3862 41.7166 22.5238 40.7571 22.2238ZM34.9193 15.1323C34.684 17.0963 34.053 18.7763 33.4189 19.1269C32.6981 19.5255 31.0341 19.6024 29.7848 18.7103C28.534 17.8171 28.1177 16.2109 28.5807 14.0652C28.6272 13.8498 28.7841 13.6633 29.0002 13.5667C32.0603 12.1993 33.8246 11.752 34.48 11.752C34.5789 11.752 34.6526 11.7622 34.7017 11.7809C34.8985 11.9858 35.1568 13.1502 34.9193 15.1323ZM2.0775 21.757C2.01426 21.6297 2.16355 21.4058 2.25822 21.2836C2.40825 21.0902 2.54648 21.0506 2.6509 21.0506C2.67297 21.0506 2.69356 21.0524 2.71243 21.0549C2.99346 21.0915 3.38721 21.3934 3.59582 21.8995C3.64496 22.0187 3.70878 22.2161 3.72371 22.4622C2.87755 22.2911 2.22016 22.0444 2.0775 21.757Z" fill="#2274FF"/>
<path d="M40.7571 22.2238L39.0368 21.6858C38.8164 21.6169 38.6428 21.4452 38.5723 21.2265C38.2097 20.1011 37.6626 19.0447 36.946 18.0863C36.6195 17.6495 36.2563 17.2323 35.8596 16.8352C36.1134 15.7483 36.2514 14.5182 36.2335 13.4555C36.2079 11.9352 35.8967 11.0436 35.2821 10.7293C34.9511 10.5599 33.9438 10.0452 28.4914 12.4816C28.3623 12.5393 28.2417 12.6103 28.1301 12.6917C27.7625 12.5952 27.3868 12.506 27.0088 12.426C26.9632 12.4163 26.9163 12.4077 26.8705 12.3983C27.3123 11.4561 27.5703 10.4327 27.6188 9.37635C27.6338 9.04707 27.3727 8.76824 27.0354 8.75358C26.699 8.73725 26.4125 8.99366 26.3975 9.32294C26.3178 11.0599 25.5797 12.6942 24.3192 13.9248C23.5661 14.66 22.6842 15.194 21.7444 15.5304C20.1145 15.3071 18.4544 15.3071 16.8245 15.5304C15.8846 15.194 15.0028 14.66 14.2497 13.9248C12.9049 12.612 12.1642 10.8665 12.1642 9.00991C12.1642 7.15322 12.9049 5.40784 14.2497 4.09503C15.5945 2.78215 17.3826 2.05913 19.2845 2.05913C21.1863 2.05913 22.9744 2.78215 24.3192 4.09503C24.8596 4.62259 25.3062 5.22462 25.6466 5.88422C25.7984 6.17859 26.166 6.2971 26.4674 6.1488C26.769 6.00065 26.8903 5.64182 26.7385 5.34754C26.3396 4.57406 25.8164 3.86881 25.1837 3.25109C23.608 1.71287 21.5129 0.865723 19.2845 0.865723C17.0562 0.865723 14.9611 1.71287 13.3853 3.25109C11.8096 4.78939 10.9418 6.83451 10.9418 9.00983C10.9418 11.1852 11.8096 13.2303 13.3853 14.7686C13.8399 15.2123 14.3344 15.5939 14.8574 15.9135C14.4773 16.0099 14.1007 16.1181 13.7277 16.2398C13.4075 16.3443 13.2347 16.6824 13.3418 16.995C13.4488 17.3075 13.7952 17.4762 14.1153 17.3718C17.4487 16.2839 21.1204 16.2839 24.4538 17.3718C24.5181 17.3927 24.5834 17.4027 24.6477 17.4027C24.9034 17.4027 25.1417 17.2447 25.2273 16.995C25.3343 16.6824 25.1616 16.3443 24.8414 16.2398C24.4684 16.1181 24.0912 16.0098 23.7112 15.9134C24.2343 15.5938 24.7292 15.2123 25.1837 14.7686C25.5859 14.376 25.9408 13.9474 26.249 13.4918C26.4175 13.5238 26.5848 13.5572 26.7496 13.5921C26.9691 13.6387 27.1876 13.6886 27.4042 13.7411C27.3974 13.767 27.3904 13.7929 27.3847 13.8192C27.0866 15.2002 27.106 16.4215 27.4422 17.4492C27.7444 18.3729 28.2899 19.1212 29.0632 19.6735C29.9746 20.3244 31.075 20.6055 32.0717 20.6055C32.8219 20.6055 33.5135 20.4462 34.0215 20.1654C34.596 19.8477 35.0774 19.1783 35.4584 18.1733C35.6345 18.374 35.8015 18.5796 35.9588 18.79C36.5967 19.6432 37.0838 20.5834 37.4063 21.5846C37.5957 22.1726 38.0659 22.6353 38.664 22.8224L40.3844 23.3604C40.8358 23.5016 41.1391 23.9072 41.1391 24.3699V27.1546C41.1391 27.6173 40.8358 28.0229 40.3844 28.164L37.6126 29.0307C37.1692 29.1695 36.7939 29.467 36.5559 29.8685C35.4669 31.7057 33.7549 33.2259 31.4669 34.3872C31.2026 34.5215 31.0195 34.7616 30.9644 35.0462L30.0767 39.6349C30.0521 39.7614 29.9387 39.8531 29.8069 39.8531H26.9204C26.7886 39.8531 26.6751 39.7613 26.6506 39.6349L26.1589 37.0989C26.0621 36.6 25.5827 36.2685 25.0668 36.3448C23.8234 36.5284 22.5423 36.6213 21.259 36.6213C20.3044 36.6213 19.3619 36.5694 18.4577 36.4668C17.9577 36.4107 17.4919 36.7434 17.3985 37.2253L16.9312 39.6349C16.9067 39.7614 16.7933 39.8531 16.6614 39.8531H13.775C13.6432 39.8531 13.5297 39.7613 13.5049 39.633L12.6501 35.299C12.5951 35.0198 12.4154 34.7823 12.1569 34.6476C8.25684 32.6151 6.19539 29.2195 6.19539 24.828C6.19539 22.6092 6.69266 20.6472 7.67335 18.9963C8.58849 17.4557 9.92511 16.1819 11.646 15.2101C11.9382 15.0451 12.0381 14.6801 11.8691 14.3948C11.7001 14.1095 11.3262 14.0122 11.0339 14.177C7.69697 16.0614 5.68434 18.9686 5.13021 22.661C5.0714 22.6558 5.0125 22.6507 4.95385 22.6448C4.96451 22.2464 4.89068 21.8444 4.7299 21.4543C4.37528 20.5938 3.64684 19.9727 2.87403 19.872C2.26503 19.7924 1.68548 20.0448 1.28328 20.5636C0.700117 21.3158 0.795191 21.9111 0.977547 22.2781C1.28541 22.8973 2.07677 23.3353 3.39 23.6107C3.35391 23.6635 3.31421 23.7165 3.27073 23.7698C2.4948 24.7197 1.58064 24.9298 0.987062 24.9495C0.639578 24.961 0.361328 25.2333 0.361328 25.5728V25.5757C0.361328 25.9105 0.631949 26.1836 0.974594 26.1988C1.01848 26.2009 1.06434 26.2019 1.11208 26.2019C1.86316 26.2019 3.06861 25.9315 4.22672 24.5138C4.40957 24.2901 4.55854 24.054 4.67305 23.8101C4.78839 23.8228 4.89921 23.8337 5.00536 23.8433C4.98453 24.1667 4.97304 24.4941 4.97304 24.828C4.97304 27.3127 5.57983 29.528 6.77642 31.4128C7.87974 33.1505 9.45941 34.5733 11.4731 35.6433L12.3041 39.8567C12.4377 40.5461 13.0563 41.0464 13.775 41.0464H16.6614C17.3801 41.0464 17.9987 40.5461 18.1323 39.8567L18.5548 37.678C19.4322 37.7687 20.3406 37.8147 21.259 37.8147C22.519 37.8147 23.7775 37.729 25.004 37.5599L25.4494 39.8569C25.5831 40.5462 26.2017 41.0465 26.9203 41.0465H29.8067C30.5254 41.0465 31.144 40.5461 31.2777 39.8566L32.142 35.3889C34.5839 34.1284 36.4246 32.4726 37.6139 30.4661C37.6996 30.3215 37.8316 30.2154 37.9855 30.1673L40.7571 29.3006C41.7166 29.0004 42.3613 28.138 42.3613 27.1544V24.3697C42.3613 23.3862 41.7166 22.5238 40.7571 22.2238ZM34.9193 15.1323C34.684 17.0963 34.053 18.7763 33.4189 19.1269C32.6981 19.5255 31.0341 19.6024 29.7848 18.7103C28.534 17.8171 28.1177 16.2109 28.5807 14.0652C28.6272 13.8498 28.7841 13.6633 29.0002 13.5667C32.0603 12.1993 33.8246 11.752 34.48 11.752C34.5789 11.752 34.6526 11.7622 34.7017 11.7809C34.8985 11.9858 35.1568 13.1502 34.9193 15.1323ZM2.0775 21.757C2.01426 21.6297 2.16355 21.4058 2.25822 21.2836C2.40825 21.0902 2.54648 21.0506 2.6509 21.0506C2.67297 21.0506 2.69356 21.0524 2.71243 21.0549C2.99346 21.0915 3.38721 21.3934 3.59582 21.8995C3.64496 22.0187 3.70878 22.2161 3.72371 22.4622C2.87755 22.2911 2.22016 22.0444 2.0775 21.757Z" stroke="#2274FF" stroke-width="0.8" mask="url(#path-2-outside-1_3371_8303)"/>
<path d="M19.8781 8.32576V6.19055C20.6323 6.24317 20.9126 6.57973 21.1711 6.57973C21.4944 6.57973 21.6453 6.18006 21.6453 5.98019C21.6453 5.46473 20.6108 5.24387 19.8781 5.22281V4.93869C19.8781 4.81249 19.7164 4.69678 19.5548 4.69678C19.3715 4.69678 19.2422 4.81249 19.2422 4.93869V5.24371C18.2186 5.34893 17.1949 5.87489 17.1949 7.20026C17.1949 8.54669 18.2725 8.92538 19.2422 9.26195V11.7339C18.1431 11.6497 17.8522 10.9134 17.4966 10.9134C17.2272 10.9134 17.001 11.2605 17.001 11.513C17.001 12.0284 17.9061 12.7332 19.2422 12.7542V13.0803C19.2422 13.2065 19.3716 13.3222 19.5548 13.3222C19.7165 13.3222 19.8781 13.2065 19.8781 13.0803V12.7227C21.0418 12.5649 21.8392 11.8496 21.8392 10.5558C21.8392 9.12526 20.8155 8.66233 19.8781 8.32576ZM19.3069 8.12596C18.7358 7.9156 18.2725 7.69474 18.2725 7.0952C18.2725 6.54818 18.7035 6.28521 19.3069 6.21162V8.12596ZM19.8133 11.7128V9.49338C20.3413 9.71423 20.7615 10.0088 20.7615 10.6714C20.7615 11.2711 20.3952 11.6077 19.8133 11.7128Z" fill="#2274FF"/>
</g>
<defs>
<clipPath id="clip0_3371_8303">
<rect width="42" height="41" fill="white" transform="translate(0.361328 0.456055)"/>
</clipPath>
</defs>
</svg>
