<svg width="31" height="32" viewBox="0 0 31 32" fill="none" xmlns="http://www.w3.org/2000/svg">
<path d="M26.4277 12.5657C26.2463 10.6785 25.5793 8.87034 24.4917 7.31742C23.404 5.76449 21.9328 4.51968 20.2212 3.70421C18.5096 2.88873 16.616 2.53038 14.7248 2.66404C12.8336 2.79771 11.0092 3.41884 9.42932 4.46695C8.07203 5.37453 6.9326 6.57146 6.09287 7.97174C5.25315 9.37203 4.73397 10.9409 4.57265 12.5657C4.4144 14.1798 4.61744 15.809 5.16704 17.3349C5.71664 18.8608 6.59901 20.2452 7.75015 21.3878L14.596 28.2465C14.7161 28.3676 14.8589 28.4637 15.0163 28.5293C15.1737 28.5948 15.3426 28.6286 15.5131 28.6286C15.6836 28.6286 15.8524 28.5948 16.0098 28.5293C16.1672 28.4637 16.3101 28.3676 16.4302 28.2465L23.2502 21.3878C24.4013 20.2452 25.2837 18.8608 25.8333 17.3349C26.3829 15.809 26.5859 14.1798 26.4277 12.5657ZM21.4418 19.5665L15.5002 25.5082L9.55849 19.5665C8.68285 18.6908 8.0121 17.632 7.59446 16.4662C7.17682 15.3004 7.02267 14.0565 7.14307 12.824C7.26425 11.5725 7.66201 10.3636 8.3076 9.28466C8.95318 8.20571 9.83045 7.28369 10.876 6.58528C12.2464 5.67496 13.855 5.18937 15.5002 5.18937C17.1453 5.18937 18.7539 5.67496 20.1243 6.58528C21.1667 7.28099 22.042 8.19893 22.6874 9.27316C23.3329 10.3474 23.7324 11.5512 23.8572 12.7982C23.9816 14.0349 23.8293 15.2837 23.4116 16.4543C22.9938 17.6249 22.321 18.688 21.4418 19.5665ZM15.5002 7.87695C14.3505 7.87695 13.2268 8.21784 12.2709 8.85653C11.315 9.49521 10.57 10.403 10.1301 11.4651C9.69017 12.5272 9.57506 13.6959 9.79934 14.8234C10.0236 15.9509 10.5772 16.9866 11.3901 17.7995C12.203 18.6124 13.2387 19.166 14.3662 19.3903C15.4937 19.6145 16.6624 19.4994 17.7245 19.0595C18.7866 18.6196 19.6944 17.8746 20.3331 16.9187C20.9718 15.9628 21.3127 14.839 21.3127 13.6894C21.3092 12.1489 20.6958 10.6725 19.6064 9.58316C18.5171 8.49384 17.0407 7.88036 15.5002 7.87695ZM15.5002 16.9186C14.8615 16.9186 14.2372 16.7292 13.7061 16.3744C13.1751 16.0196 12.7612 15.5152 12.5168 14.9252C12.2724 14.3351 12.2084 13.6859 12.333 13.0595C12.4576 12.4331 12.7652 11.8577 13.2168 11.4061C13.6684 10.9545 14.2438 10.6469 14.8702 10.5223C15.4966 10.3977 16.1458 10.4617 16.7359 10.7061C17.326 10.9505 17.8303 11.3644 18.1851 11.8954C18.5399 12.4264 18.7293 13.0508 18.7293 13.6894C18.7293 14.5459 18.3891 15.3672 17.7835 15.9728C17.1779 16.5784 16.3566 16.9186 15.5002 16.9186Z" fill="#2274FF"/>
</svg>
