<svg width="16" height="19" viewBox="0 0 16 19" fill="none" xmlns="http://www.w3.org/2000/svg">
<path d="M8.00067 12.7708C9.02481 12.7708 9.75564 12.0474 9.75315 11.0556C9.75564 10.0712 9.06956 9.35529 8.14236 9.35529C7.76452 9.35529 7.41402 9.49947 7.21515 9.69336H7.18532L7.3469 8.269H9.50706V7.61026H6.70805L6.42219 10.1756L7.12567 10.28C7.31707 10.1085 7.66011 9.99165 7.96835 9.99165C8.5724 9.99663 9.0099 10.449 9.0099 11.0705C9.0099 11.682 8.58483 12.1245 8.00067 12.1245C7.50848 12.1245 7.11821 11.8113 7.07844 11.3738H6.3327C6.36253 12.1841 7.06601 12.7708 8.00067 12.7708Z" fill="#5F6268"/>
<path d="M6.79628 2.39862C6.79628 2.16066 6.79628 1.92818 6.79628 1.67926C6.73677 1.67013 6.67954 1.65871 6.6214 1.65323C6.40021 1.63313 6.26712 1.51164 6.25804 1.29058C6.24577 0.986844 6.24487 0.681285 6.25758 0.377554C6.26712 0.150554 6.41201 0.00622466 6.6373 0.00485444C7.56071 -0.00153991 8.48457 -0.00153991 9.40798 0.0043977C9.6369 0.00576792 9.79042 0.158776 9.80087 0.395366C9.81404 0.69179 9.81404 0.989584 9.79859 1.28555C9.78724 1.51027 9.64008 1.63496 9.41206 1.65368C9.35302 1.65871 9.29351 1.66145 9.21857 1.66602C9.21857 1.91722 9.21857 2.15518 9.21857 2.39132C13.0339 3.03304 15.5507 6.08497 15.9404 9.35476C16.3987 13.1987 14.2008 16.3995 11.2257 17.7277C8.18706 19.0842 4.11236 18.4676 1.59377 15.2015C1.40845 15.4102 1.2304 15.6135 1.04963 15.8135C0.993759 15.8752 0.937892 15.9419 0.868852 15.9857C0.8039 16.0268 0.706245 16.0793 0.652194 16.0565C0.597689 16.0337 0.549998 15.9245 0.549543 15.8528C0.544093 14.9014 0.547272 13.9496 0.549089 12.9982C0.549089 12.9845 0.559082 12.9712 0.574979 12.9306C0.728047 12.9306 0.892471 12.9306 1.05689 12.9306C1.79135 12.931 2.5258 12.931 3.25981 12.9315C3.32022 12.9315 3.38471 12.9205 3.44058 12.9379C3.51553 12.9612 3.61999 12.9909 3.64361 13.047C3.66678 13.1014 3.62272 13.2096 3.57457 13.264C3.41378 13.4458 3.23891 13.6148 3.06631 13.786C3.01817 13.834 2.95957 13.8715 2.91052 13.9098C3.92613 15.2887 5.2238 16.1721 6.87531 16.4753C10.1206 17.0714 13.2052 15.0421 13.9869 11.8974C14.8535 8.40977 12.7196 5.01254 9.22765 4.26349C5.85334 3.54047 2.41362 5.92739 1.90854 9.34974C1.85857 9.68727 1.83722 10.0298 1.82087 10.3715C1.79589 10.8826 1.39346 11.2872 0.89883 11.2799C0.401926 11.2726 0.0058555 10.8625 0.000404994 10.3495C-0.0382027 6.64904 2.68796 3.24451 6.27757 2.50916C6.44699 2.47444 6.6155 2.43745 6.79628 2.39862Z" fill="#5F6268"/>
<path d="M2.62614 3.34139C2.58208 3.41493 2.55437 3.48709 2.50487 3.53779C2.20373 3.84746 1.8985 4.15256 1.59373 4.45858C1.45338 4.59925 1.3162 4.58646 1.18085 4.44853C1.02188 4.28639 0.861088 4.12516 0.699844 3.9653C0.554952 3.82143 0.548139 3.67755 0.694394 3.53048C0.993717 3.22995 1.29259 2.9285 1.59191 2.62797C1.72772 2.4914 1.8658 2.48227 2.00524 2.6234C2.17557 2.79605 2.34998 2.96458 2.51531 3.14134C2.563 3.19341 2.58617 3.26832 2.62614 3.34139Z" fill="#5F6268"/>
<path d="M14.3869 2.50061C14.4614 2.55314 14.5422 2.59516 14.6045 2.65682C14.8911 2.93817 15.174 3.22317 15.4547 3.51046C15.6314 3.69133 15.6323 3.79912 15.462 3.97679C15.3098 4.13528 15.1518 4.28829 14.9978 4.44495C14.8556 4.58928 14.7162 4.60207 14.5677 4.45089C14.2706 4.14807 13.9708 3.84799 13.6706 3.54791C13.5516 3.42916 13.5162 3.29579 13.6343 3.16654C13.8182 2.96557 14.0144 2.77557 14.2111 2.58693C14.252 2.5472 14.3169 2.5335 14.3869 2.50061Z" fill="#5F6268"/>
</svg>
