<svg width="32" height="32" viewBox="0 0 32 32" fill="none" xmlns="http://www.w3.org/2000/svg">
<path fill-rule="evenodd" clip-rule="evenodd" d="M31.8332 16.0003C31.8332 24.7448 24.7443 31.8337 15.9998 31.8337C7.25533 31.8337 0.166504 24.7448 0.166504 16.0003C0.166504 7.25582 7.25533 0.166992 15.9998 0.166992C24.7443 0.166992 31.8332 7.25582 31.8332 16.0003ZM22.431 10.5469C22.6438 10.3296 22.9327 10.2035 23.2366 10.1953C23.473 10.1882 23.706 10.2528 23.905 10.3806C24.104 10.5084 24.2597 10.6934 24.3516 10.9113C24.4435 11.1292 24.4674 11.3698 24.42 11.6015C24.3727 11.8332 24.2563 12.0452 24.0863 12.2095L14.711 21.5848C14.509 21.7859 14.2407 21.9065 13.9562 21.924C13.6718 21.9415 13.3907 21.8548 13.1655 21.6801L8.00914 17.6955C7.88747 17.6013 7.78555 17.484 7.70921 17.3503C7.63287 17.2167 7.5836 17.0693 7.56421 16.9166C7.54483 16.7639 7.55571 16.6089 7.59623 16.4604C7.63675 16.3119 7.70613 16.1729 7.80039 16.0512C7.89465 15.9295 8.01196 15.8276 8.14561 15.7513C8.27926 15.6749 8.42664 15.6257 8.57933 15.6063C8.73202 15.5869 8.88703 15.5978 9.03552 15.6383C9.18401 15.6788 9.32306 15.7482 9.44473 15.8424L13.7808 19.1971L22.431 10.5469Z" fill="#2274FF"/>
</svg>
