<svg width="44" height="45" viewBox="0 0 44 45" fill="none" xmlns="http://www.w3.org/2000/svg">
<path d="M22 0.390625C9.8499 0.390625 0 10.2405 0 22.3906C0 34.5407 9.8499 44.3906 22 44.3906C34.1501 44.3906 44 34.5407 44 22.3906C44 10.2405 34.1512 0.390625 22 0.390625ZM34.4451 13.9897C34.1523 14.1809 33.8452 14.3492 33.5447 14.5273C31.2839 15.8703 29.2809 17.5476 27.3391 19.3047C23.8566 22.4562 20.7783 25.9628 18.1044 29.8267C17.6848 30.4331 17.2095 31.0014 16.768 31.5936C16.4587 32.0089 16.0348 32.1564 15.543 32.1302C14.7147 32.0854 13.9105 31.9127 13.1259 31.6395C12.7336 31.5029 12.4659 31.2603 12.3129 30.867C11.9578 29.9534 11.6223 29.0301 11.2114 28.1417C10.7514 27.1473 10.2094 26.1912 9.71768 25.211C9.54502 24.8668 9.39641 24.5062 9.27621 24.1401C9.16803 23.8112 9.26091 23.4855 9.50241 23.2495C10.2706 22.4988 11.2005 22.1087 12.2725 22.2584C12.6396 22.3098 13.009 22.5567 13.3139 22.7949C14.105 23.4112 14.6383 24.2352 15.0338 25.1476C15.2382 25.6197 15.4174 26.1015 15.6086 26.5791C15.6392 26.6567 15.6709 26.7342 15.7201 26.8555C15.8446 26.6938 15.943 26.5638 16.0424 26.4348C19.302 22.1841 22.8993 18.2535 27.0692 14.8726C27.7685 14.3055 28.54 13.8258 29.271 13.2958C30.0819 12.709 30.991 12.5735 31.9581 12.6817C32.6432 12.7582 33.3295 12.8281 34.0146 12.9035C34.0911 12.9123 34.1665 12.933 34.243 12.9472C34.4845 12.9898 34.7063 13.0751 34.7577 13.3461C34.8112 13.6291 34.6692 13.8433 34.4451 13.9897Z" fill="#19CE74"/>
</svg>
