<svg width="29" height="30" viewBox="0 0 29 30" fill="none" xmlns="http://www.w3.org/2000/svg">
<g clip-path="url(#clip0_2206_642)">
<path d="M17.4388 12.6436C16.6904 11.5112 15.7114 10.0299 14.5 8.0127C13.2886 10.0299 12.3096 11.512 11.5612 12.6444C9.98976 15.0243 9.40234 15.9146 9.40234 17.4623C9.40234 20.2048 11.689 22.4357 14.5 22.4357C17.311 22.4357 19.5977 20.2048 19.5977 17.4623C19.5977 15.9114 19.0102 15.0218 17.4388 12.6436Z" fill="#19CE74"/>
<path d="M14.5 0.829102C6.53656 0.829102 0 7.20545 0 14.9754C0 22.7454 6.53656 29.1218 14.5 29.1218C22.4634 29.1218 29 22.7454 29 14.9754C29 7.20545 22.4634 0.829102 14.5 0.829102ZM14.5 24.0932C10.7514 24.0932 7.70312 21.1184 7.70312 17.4621C7.70312 15.4263 8.46477 14.2737 10.1341 11.7465C11.0169 10.4084 12.2266 8.57665 13.7616 5.9451C14.0636 5.42865 14.9364 5.42865 15.2384 5.9451C16.7734 8.57665 17.9831 10.4077 18.8675 11.7449C20.5352 14.2704 21.2969 15.4239 21.2969 17.4621C21.2969 21.1184 18.2486 24.0932 14.5 24.0932Z" fill="#19CE74"/>
</g>
<defs>
<clipPath id="clip0_2206_642">
<rect width="29" height="28.2927" fill="white" transform="translate(0 0.829102)"/>
</clipPath>
</defs>
</svg>
