<svg width="20" height="27" viewBox="0 0 20 27" fill="none" xmlns="http://www.w3.org/2000/svg">
<path d="M10.0168 0.00420402C14.5253 -0.116787 19.0105 3.25996 19.8899 8.53787C20.2202 10.522 19.7772 12.3605 18.9642 14.1466C17.6526 17.025 15.9171 19.631 14.0409 22.1422C12.8867 23.6863 11.6596 25.1737 10.4573 26.6806C10.1286 27.0926 9.94975 27.1062 9.62518 26.7204C6.50694 23.0196 3.5394 19.2028 1.38661 14.8116C0.843444 13.7033 0.402122 12.5018 0.153723 11.2919C-0.246199 9.34589 0.164487 7.44895 1.03471 5.68485C2.55491 2.59916 5.01903 0.763993 8.32853 0.103197C8.55789 0.0575077 8.79056 0.0194336 9.02322 0.00843448C9.35359 -0.00764124 9.68562 0.00420402 10.0168 0.00420402ZM9.99115 16.9116C13.5391 16.8169 16.5257 14.1348 16.5663 10.2157C16.6027 6.64263 13.9324 3.53748 10.0491 3.4884C6.47879 3.44271 3.47151 6.26104 3.45412 10.1776C3.43756 13.8623 6.21383 16.7703 9.99115 16.9116Z" fill="#2274FF"/>
<path d="M10.0111 15.9962C7.32296 16.1153 5.00154 13.4522 5 10.5118C4.99846 7.57901 7.32064 4.97466 10.0466 5.00019C12.6621 5.02486 15.0283 7.55009 14.9997 10.5722C14.9727 13.4692 12.6745 16.1025 10.0111 15.9962Z" fill="#2274FF"/>
</svg>
