<svg width="17" height="16" viewBox="0 0 17 16" fill="none" xmlns="http://www.w3.org/2000/svg">
<path d="M8.37009 16C8.20802 16 8.05734 15.9163 7.9718 15.7784L3.50665 8.58288C2.95727 7.69563 2.66699 6.67294 2.66699 5.625C2.66699 2.52338 5.19037 0 8.29199 0C11.3936 0 13.917 2.52338 13.917 5.625C13.917 6.64184 13.6426 7.63838 13.1236 8.50688L8.77224 15.7721C8.68824 15.9123 8.53724 15.9987 8.37381 16C8.37256 16 8.37134 16 8.37009 16ZM8.29199 0.9375C5.7073 0.9375 3.60449 3.04031 3.60449 5.625C3.60449 6.49844 3.84618 7.35044 4.30349 8.08894L8.36302 14.6308L12.3191 8.02556C12.751 7.30275 12.9795 6.47253 12.9795 5.625C12.9795 3.04031 10.8767 0.9375 8.29199 0.9375Z" fill="#19CE74"/>
<path d="M8.29199 8.4375C7.31084 8.4375 6.41562 7.93822 5.89727 7.10197C5.62387 6.65991 5.47949 6.14931 5.47949 5.625C5.47949 4.07419 6.74118 2.8125 8.29199 2.8125C9.8428 2.8125 11.1045 4.07419 11.1045 5.625C11.1045 6.13387 10.9679 6.63153 10.7095 7.06422C10.1955 7.92419 9.2918 8.4375 8.29199 8.4375ZM8.29199 3.75C7.25812 3.75 6.41699 4.59113 6.41699 5.625C6.41699 5.975 6.5129 6.31506 6.69434 6.60844C7.04027 7.16656 7.63762 7.5 8.29199 7.5C8.95877 7.5 9.56165 7.15734 9.90471 6.58341C10.0763 6.29613 10.167 5.96466 10.167 5.625C10.167 4.59113 9.32587 3.75 8.29199 3.75Z" fill="#19CE74"/>
</svg>
