<svg width="16" height="8" viewBox="0 0 16 8" fill="none" xmlns="http://www.w3.org/2000/svg">
<path d="M7.78575 4.90609L2.6777 0.372418C2.40734 0.133887 2.04162 5.28451e-07 1.66041 5.17671e-07C1.27921 5.06892e-07 0.913487 0.133887 0.643132 0.372418C0.507886 0.491476 0.400538 0.633122 0.327281 0.789187C0.254025 0.945252 0.216309 1.11265 0.216309 1.28171C0.216309 1.45078 0.254025 1.61818 0.327281 1.77424C0.400538 1.93031 0.507886 2.07195 0.643132 2.19101L6.76126 7.62117C6.8954 7.74121 7.05499 7.83649 7.23083 7.90151C7.40666 7.96652 7.59527 8 7.78575 8C7.97624 8 8.16484 7.96652 8.34068 7.90151C8.51652 7.83649 8.67611 7.74121 8.81025 7.62117L15.0005 2.19101C15.1343 2.07134 15.2401 1.92942 15.3119 1.77338C15.3837 1.61735 15.4201 1.45026 15.419 1.28171C15.4201 1.11317 15.3837 0.946083 15.3119 0.790046C15.2401 0.634009 15.1343 0.492087 15.0005 0.372418C14.7302 0.133887 14.3644 8.76897e-07 13.9832 8.66117e-07C13.602 8.55338e-07 13.2363 0.133887 12.966 0.372418L7.78575 4.90609Z" fill="white"/>
</svg>
