<svg width="14" height="14" viewBox="0 0 14 14" fill="none" xmlns="http://www.w3.org/2000/svg">
<path d="M12.8667 5.3867C12.6793 5.16179 12.4449 4.98075 12.18 4.85634C11.915 4.73194 11.626 4.6672 11.3333 4.6667H8.29333L8.66667 3.71336C8.82195 3.29595 8.87367 2.8471 8.81738 2.40531C8.76108 1.96352 8.59846 1.54198 8.34346 1.17685C8.08846 0.811718 7.74869 0.513894 7.35329 0.308925C6.9579 0.103956 6.51869 -0.00203962 6.07333 2.97275e-05C5.94509 0.000297302 5.81965 0.0375466 5.71205 0.107312C5.60444 0.177077 5.51925 0.276396 5.46667 0.393363L3.56667 4.6667H2C1.46957 4.6667 0.960859 4.87741 0.585787 5.25248C0.210714 5.62756 0 6.13626 0 6.6667V11.3334C0 11.8638 0.210714 12.3725 0.585787 12.7476C0.960859 13.1226 1.46957 13.3334 2 13.3334H10.4867C10.9545 13.3332 11.4076 13.169 11.7669 12.8694C12.1262 12.5697 12.3691 12.1536 12.4533 11.6934L13.3 7.0267C13.3524 6.73828 13.3407 6.44188 13.2658 6.15848C13.1909 5.87508 13.0547 5.6116 12.8667 5.3867ZM3.33333 12H2C1.82319 12 1.65362 11.9298 1.5286 11.8048C1.40357 11.6797 1.33333 11.5102 1.33333 11.3334V6.6667C1.33333 6.48989 1.40357 6.32032 1.5286 6.19529C1.65362 6.07027 1.82319 6.00003 2 6.00003H3.33333V12ZM12 6.7867L11.1533 11.4534C11.1249 11.6087 11.0423 11.7489 10.9203 11.849C10.7982 11.9491 10.6445 12.0026 10.4867 12H4.66667V5.47336L6.48 1.39336C6.66666 1.44778 6.84001 1.5403 6.9891 1.66509C7.1382 1.78987 7.25982 1.94421 7.34627 2.11836C7.43271 2.29251 7.48212 2.48269 7.49137 2.6769C7.50062 2.8711 7.46951 3.06512 7.4 3.2467L7.04667 4.20003C6.97138 4.40153 6.94596 4.61826 6.97258 4.83172C6.99921 5.04517 7.07708 5.24902 7.19956 5.42586C7.32203 5.60269 7.48548 5.74727 7.67594 5.84726C7.8664 5.94724 8.07822 5.99965 8.29333 6.00003H11.3333C11.4313 5.99987 11.528 6.02129 11.6168 6.06277C11.7055 6.10425 11.784 6.16477 11.8467 6.24003C11.9109 6.31425 11.9579 6.40173 11.9844 6.49622C12.0109 6.59072 12.0163 6.68991 12 6.7867Z" fill="#2274FF"/>
</svg>
