<svg width="17" height="20" viewBox="0 0 17 20" fill="none" xmlns="http://www.w3.org/2000/svg">
<path d="M15.5439 18H1.54395C1.27873 18 1.02438 18.1054 0.836839 18.2929C0.649302 18.4804 0.543945 18.7348 0.543945 19C0.543945 19.2652 0.649302 19.5196 0.836839 19.7071C1.02438 19.8946 1.27873 20 1.54395 20H15.5439C15.8092 20 16.0635 19.8946 16.2511 19.7071C16.4386 19.5196 16.5439 19.2652 16.5439 19C16.5439 18.7348 16.4386 18.4804 16.2511 18.2929C16.0635 18.1054 15.8092 18 15.5439 18ZM7.83395 15.71C7.92905 15.801 8.04119 15.8724 8.16395 15.92C8.28365 15.9729 8.41307 16.0002 8.54395 16.0002C8.67482 16.0002 8.80424 15.9729 8.92395 15.92C9.0467 15.8724 9.15884 15.801 9.25395 15.71L13.2539 11.71C13.4422 11.5217 13.548 11.2663 13.548 11C13.548 10.7337 13.4422 10.4783 13.2539 10.29C13.0656 10.1017 12.8102 9.99591 12.5439 9.99591C12.2776 9.99591 12.0222 10.1017 11.8339 10.29L9.54395 12.59V1C9.54395 0.734784 9.43859 0.48043 9.25105 0.292893C9.06352 0.105357 8.80916 0 8.54395 0C8.27873 0 8.02437 0.105357 7.83684 0.292893C7.6493 0.48043 7.54395 0.734784 7.54395 1V12.59L5.25395 10.29C5.16071 10.1968 5.05002 10.1228 4.92819 10.0723C4.80637 10.0219 4.6758 9.99591 4.54395 9.99591C4.41209 9.99591 4.28152 10.0219 4.1597 10.0723C4.03787 10.1228 3.92718 10.1968 3.83395 10.29C3.74071 10.3832 3.66675 10.4939 3.61629 10.6158C3.56583 10.7376 3.53985 10.8681 3.53985 11C3.53985 11.1319 3.56583 11.2624 3.61629 11.3842C3.66675 11.5061 3.74071 11.6168 3.83395 11.71L7.83395 15.71Z" fill="#2274FF"/>
</svg>
