<svg width="13" height="15" viewBox="0 0 13 15" fill="none" xmlns="http://www.w3.org/2000/svg">
<path d="M1.76261 3.26657C1.6203 3.25797 1.50781 3.25984 1.39744 3.24266C1.11816 3.19932 0.923689 2.95461 0.936109 2.67292C0.94924 2.37629 1.1611 2.14503 1.45245 2.1398C2.15616 2.12747 2.86022 2.12672 3.56393 2.12149C3.61078 2.12112 3.65762 2.12149 3.71369 2.12149C3.72895 1.87081 3.72575 1.62797 3.76124 1.39148C3.87764 0.615897 4.50079 0.0278557 5.2439 0.0132855C6.08352 -0.0031528 6.92421 -0.00464719 7.76384 0.0140327C8.58146 0.0323389 9.24543 0.759359 9.26565 1.62162C9.26956 1.78189 9.26637 1.94217 9.26637 2.12149C9.35721 2.12149 9.42677 2.12112 9.49597 2.12149C10.1763 2.12635 10.8565 2.12784 11.5365 2.13868C11.8136 2.14316 12.0074 2.32734 12.056 2.60567C12.0979 2.84515 11.9701 3.10331 11.7483 3.1982C11.6632 3.23481 11.5656 3.24303 11.4726 3.25461C11.4041 3.26321 11.3338 3.25611 11.2409 3.25611C11.2409 3.35287 11.2409 3.4317 11.2409 3.51053C11.2409 6.78622 11.2391 10.0619 11.2426 13.3376C11.2434 13.9115 11.0649 14.3852 10.6124 14.724C10.375 14.9019 10.1067 14.9968 9.81535 14.9968C7.60273 14.999 5.38975 15.0031 3.17712 14.9949C2.42622 14.9919 1.8169 14.3594 1.7697 13.5715C1.76367 13.4721 1.76296 13.3724 1.76296 13.2726C1.76261 10.0219 1.76261 6.77128 1.76261 3.52061C1.76261 3.44066 1.76261 3.36109 1.76261 3.26657ZM2.82793 3.27292C2.82793 3.34166 2.82793 3.39135 2.82793 3.44066C2.82793 6.74737 2.82757 10.0541 2.82828 13.3608C2.82828 13.7426 2.95888 13.8778 3.3212 13.8778C5.42736 13.8782 7.53353 13.8778 9.63969 13.8778C10.0556 13.8778 10.1759 13.7508 10.1763 13.3096C10.1766 10.0339 10.1763 6.75858 10.1763 3.48288C10.1763 3.41601 10.1763 3.34876 10.1763 3.27292C7.7209 3.27292 5.28612 3.27292 2.82793 3.27292ZM8.2021 2.10505C8.2021 1.94964 8.20672 1.80767 8.20104 1.66608C8.18897 1.35898 7.98599 1.13408 7.69357 1.13146C6.89582 1.12436 6.09807 1.12511 5.30067 1.13183C5.03807 1.13408 4.83544 1.32723 4.80527 1.59808C4.78682 1.76172 4.80173 1.92984 4.80173 2.10505C5.93483 2.10505 7.05551 2.10505 8.2021 2.10505Z" fill="white"/>
<path d="M4.047 8.55912C4.047 7.33223 4.04523 6.10571 4.04771 4.87882C4.04878 4.45367 4.39052 4.17944 4.74823 4.31207C4.9647 4.3924 5.08038 4.56201 5.10771 4.79849C5.11481 4.86014 5.11161 4.9229 5.11161 4.98492C5.11161 7.36996 5.11161 9.75501 5.11161 12.1401C5.11161 12.1897 5.11303 12.2398 5.11055 12.2895C5.09458 12.6134 4.87137 12.8495 4.58037 12.851C4.28193 12.8529 4.04913 12.6093 4.04807 12.2764C4.04523 11.0376 4.047 9.79834 4.047 8.55912Z" fill="white"/>
<path d="M8.95266 8.55303C8.95266 9.77955 8.95373 11.0064 8.95196 12.233C8.9516 12.5841 8.77168 12.812 8.4782 12.8453C8.21773 12.8752 7.98138 12.7089 7.91502 12.4414C7.89586 12.3641 7.88876 12.2819 7.88876 12.2016C7.88734 9.77918 7.88734 7.35715 7.88876 4.93475C7.88876 4.84845 7.89657 4.75953 7.91821 4.67697C7.98493 4.42292 8.22873 4.25331 8.47288 4.28058C8.72555 4.30898 8.92428 4.51595 8.9477 4.77933C8.95444 4.85368 8.95266 4.92877 8.95266 5.00349C8.95302 6.18667 8.95302 7.36985 8.95266 8.55303Z" fill="white"/>
<path d="M7.03168 8.57022C7.03168 9.79076 7.03239 11.0113 7.03132 12.2318C7.03097 12.5797 6.84927 12.8109 6.55757 12.8453C6.26586 12.8797 6.00894 12.6645 5.97203 12.3529C5.96564 12.2976 5.96706 12.2408 5.96706 12.1851C5.96671 9.77507 5.96671 7.36537 5.96706 4.95529C5.96706 4.91158 5.966 4.86787 5.96848 4.82453C5.98694 4.51557 6.21405 4.28132 6.49582 4.27871C6.78611 4.27609 7.02387 4.51557 7.02919 4.83425C7.03629 5.26986 7.03168 5.70585 7.03168 6.14184C7.03168 6.95105 7.03168 7.76063 7.03168 8.57022Z" fill="white"/>
</svg>
