<svg width="17" height="18" viewBox="0 0 17 18" fill="none" xmlns="http://www.w3.org/2000/svg">
<path d="M16.3359 0.918289C16.2417 0.828215 16.1263 0.756382 15.9975 0.707517C15.8687 0.658653 15.7294 0.633867 15.5887 0.634791H1.63932C1.4986 0.633867 1.35926 0.658653 1.23045 0.707517C1.10165 0.756382 0.986311 0.828215 0.892033 0.918289C0.798006 1.00849 0.727197 1.11484 0.684264 1.23034C0.641331 1.34583 0.627246 1.46785 0.642938 1.58838L2.43642 15.5228C2.5177 16.1561 2.86816 16.7409 3.42017 17.1645C3.97218 17.5881 4.68661 17.8204 5.42557 17.8165H11.8223C12.5613 17.8204 13.2757 17.5881 13.8277 17.1645C14.3797 16.7409 14.7302 16.1561 14.8115 15.5228L16.585 1.58838C16.6007 1.46785 16.5867 1.34583 16.5437 1.23034C16.5008 1.11484 16.43 1.00849 16.3359 0.918289ZM12.7988 15.3338C12.7717 15.5449 12.6549 15.7398 12.4709 15.881C12.2869 16.0222 12.0487 16.0996 11.8024 16.0984H5.41561C5.16929 16.0996 4.93114 16.0222 4.74714 15.881C4.56314 15.7398 4.44632 15.5449 4.41922 15.3338L3.41288 7.50749H13.8151L12.7988 15.3338ZM14.0343 5.78931H3.19367L2.75527 2.35297H14.4727L14.0343 5.78931Z" fill="white"/>
</svg>
