<svg width="16" height="16" viewBox="0 0 16 16" fill="none" xmlns="http://www.w3.org/2000/svg">
<path d="M1.80008 9.28005C1.98741 9.50495 2.22181 9.686 2.48676 9.8104C2.7517 9.93481 3.04072 9.99955 3.33341 10.0001H6.37341L6.00008 10.9534C5.84479 11.3708 5.79308 11.8196 5.84937 12.2614C5.90567 12.7032 6.06829 13.1248 6.32329 13.4899C6.57829 13.855 6.91806 14.1529 7.31345 14.3578C7.70885 14.5628 8.14806 14.6688 8.59341 14.6667C8.72166 14.6665 8.8471 14.6292 8.9547 14.5594C9.0623 14.4897 9.1475 14.3904 9.20008 14.2734L11.1001 10.0001H12.6667C13.1972 10.0001 13.7059 9.78934 14.081 9.41427C14.456 9.03919 14.6667 8.53048 14.6667 8.00005V3.33339C14.6667 2.80295 14.456 2.29424 14.081 1.91917C13.7059 1.5441 13.1972 1.33339 12.6667 1.33339H4.18008C3.71221 1.33354 3.2592 1.49773 2.89987 1.79737C2.54054 2.09702 2.29763 2.51315 2.21341 2.97339L1.36675 7.64005C1.31438 7.92847 1.32605 8.22486 1.40093 8.50827C1.47582 8.79167 1.61208 9.05515 1.80008 9.28005ZM11.3334 2.66672H12.6667C12.8436 2.66672 13.0131 2.73696 13.1382 2.86198C13.2632 2.98701 13.3334 3.15658 13.3334 3.33339V8.00005C13.3334 8.17686 13.2632 8.34643 13.1382 8.47146C13.0131 8.59648 12.8436 8.66672 12.6667 8.66672H11.3334V2.66672ZM2.66675 7.88005L3.51341 3.21339C3.54181 3.05808 3.6244 2.91789 3.74649 2.81779C3.86857 2.71768 4.02222 2.66414 4.18008 2.66672H10.0001V9.19339L8.18675 13.2734C8.00009 13.219 7.82674 13.1264 7.67764 13.0017C7.52854 12.8769 7.40693 12.7225 7.32048 12.5484C7.23403 12.3742 7.18463 12.1841 7.17538 11.9899C7.16613 11.7956 7.19724 11.6016 7.26675 11.4201L7.62008 10.4667C7.69537 10.2652 7.72079 10.0485 7.69416 9.83503C7.66754 9.62158 7.58967 9.41773 7.46719 9.24089C7.34472 9.06405 7.18127 8.91947 6.99081 8.81949C6.80035 8.71951 6.58852 8.66709 6.37341 8.66672H3.33341C3.23547 8.66688 3.1387 8.64545 3.04998 8.60397C2.96126 8.56249 2.88276 8.50197 2.82008 8.42672C2.75586 8.3525 2.70882 8.26502 2.68231 8.17052C2.6558 8.07603 2.65049 7.97684 2.66675 7.88005Z" fill="#2274FF"/>
</svg>
