<svg width="22" height="22" viewBox="0 0 22 22" fill="none" xmlns="http://www.w3.org/2000/svg">
<path d="M10.6571 0C4.78101 0 0 4.78101 0 10.6571C0 16.5332 4.78101 21.3142 10.6571 21.3142C16.5332 21.3142 21.3142 16.5332 21.3142 10.6571C21.3142 4.78101 16.5332 0 10.6571 0ZM16.6133 7.8526L9.8024 14.6101C9.40176 15.0108 8.76073 15.0375 8.33338 14.6368L4.72759 11.3516C4.30024 10.9509 4.27353 10.2832 4.64746 9.85582C5.0481 9.42847 5.71584 9.40176 6.14319 9.8024L9.00111 12.4199L15.0909 6.33016C15.5182 5.90281 16.186 5.90281 16.6133 6.33016C17.0407 6.75751 17.0407 7.42525 16.6133 7.8526Z" fill="white"/>
</svg>
