<svg width="33" height="30" viewBox="0 0 33 30" fill="none" xmlns="http://www.w3.org/2000/svg">
<path d="M24.4922 15.317C24.3905 18.135 23.1743 20.6243 20.3128 22.1366C17.012 23.8816 12.1378 23.3477 9.62407 20.1347C8.23668 18.3615 7.74738 16.3435 7.97562 14.1463C8.22808 11.718 9.38958 9.71068 10.9403 7.84522C12.2581 6.25966 13.4869 4.60012 14.6882 2.92761C15.1126 2.33656 15.3503 1.61432 15.652 0.94242C15.7637 0.693031 15.9224 0.495503 16.1936 0.55194C16.3914 0.593123 16.6689 0.739553 16.722 0.899711C17.3481 2.76288 18.5768 4.26684 19.7594 5.79444C20.6458 6.93919 21.6337 8.01072 22.4896 9.17529C23.7715 10.9187 24.4523 12.8833 24.4922 15.317ZM16.2179 2.64619C15.8349 3.25174 15.5293 3.8306 15.1337 4.3431C13.8581 5.99578 12.545 7.621 11.2545 9.26376C9.93203 10.9485 9.09022 12.817 9.07146 14.973C9.04957 17.5157 10.0235 19.5817 12.2691 20.9621C13.8699 21.946 15.6567 22.1755 17.4943 21.8842C20.1885 21.4571 22.0699 19.9966 22.9414 17.4486C23.8028 14.9303 23.2924 12.5439 21.8948 10.3437C21.2609 9.34613 20.4488 8.45458 19.6961 7.53101C18.4408 5.98968 17.2207 4.42623 16.2179 2.64619Z" fill="white"/>
<path d="M16.1838 23.3811C15.6648 23.3811 15.1435 23.3399 14.6292 23.2561C12.482 22.906 10.628 21.8543 9.40791 20.2939C8.0346 18.5383 7.46167 16.46 7.70475 14.1164C7.93142 11.9306 8.89282 9.88364 10.7289 7.67423C12.1225 5.99791 13.3997 4.25524 14.465 2.77187C14.7613 2.35927 14.9606 1.88032 15.1716 1.3724C15.2451 1.1947 15.3217 1.01166 15.4022 0.833198C15.6476 0.287899 15.9994 0.236038 16.2518 0.288661C16.4918 0.338996 16.8842 0.519746 16.9834 0.814131C17.5524 2.50723 18.6624 3.93568 19.7355 5.31685L19.9794 5.63031C20.3632 6.1268 20.7751 6.61871 21.1737 7.09461C21.6919 7.71388 22.2273 8.35375 22.7143 9.0165C24.0564 10.8423 24.7278 12.9007 24.7676 15.3092V15.316V15.3229C24.6527 18.4978 23.1583 20.9338 20.4452 22.3683C19.1892 23.0326 17.6947 23.3811 16.1838 23.3811ZM16.108 0.807267C16.0642 0.807267 15.997 0.839299 15.9032 1.0475C15.8258 1.2191 15.7508 1.39909 15.6789 1.57374C15.4655 2.08624 15.2451 2.61705 14.9129 3.07846C13.8421 4.56945 12.5579 6.32127 11.1541 8.01056C9.38759 10.1353 8.46449 12.0923 8.24876 14.1705C8.01975 16.3746 8.55594 18.3255 9.8425 19.9705C12.3711 23.2027 17.1788 23.4887 20.1834 21.9001C22.7503 20.5425 24.1087 18.3262 24.2189 15.3122C24.1791 12.9869 23.5592 11.0856 22.268 9.32843C21.7912 8.67941 21.2613 8.04564 20.7485 7.43323C20.3468 6.95351 19.9317 6.45703 19.5417 5.95291L19.2986 5.64022C18.1981 4.2232 17.06 2.7589 16.4629 0.98039C16.4386 0.938444 16.2807 0.840824 16.1369 0.811081C16.1283 0.808793 16.1189 0.807267 16.108 0.807267ZM16.0533 22.2661C14.6104 22.2661 13.2942 21.9046 12.1241 21.1854C9.89408 19.8142 8.77558 17.7222 8.79903 14.9683C8.81701 12.9152 9.54939 10.9956 11.0384 9.09887C11.5339 8.46739 12.0412 7.82904 12.5321 7.21129C13.3184 6.22136 14.1313 5.19712 14.916 4.1805C15.1755 3.84493 15.3975 3.47428 15.6328 3.08227C15.7453 2.89466 15.8618 2.70094 15.9861 2.50418L16.2323 2.11446L16.4582 2.51562C17.4852 4.33913 18.7788 5.9735 19.9114 7.3623C20.0935 7.58576 20.2834 7.81227 20.4663 8.03115C21.0432 8.71983 21.6396 9.43138 22.1281 10.2009C23.6726 12.6323 24.0337 15.0987 23.2013 17.5308C22.3094 20.1383 20.4038 21.6911 17.5384 22.1456C17.0303 22.2257 16.5348 22.2661 16.0533 22.2661ZM16.2112 3.17455C16.1752 3.23404 16.1401 3.29353 16.1049 3.35149C15.8618 3.75722 15.6312 4.14084 15.353 4.50157C14.5659 5.52125 13.7514 6.54702 12.9643 7.53847C12.4742 8.15546 11.967 8.7938 11.4722 9.42452C10.0582 11.2252 9.36258 13.0403 9.34617 14.9736C9.32428 17.53 10.3568 19.4687 12.4156 20.7347C13.8593 21.6224 15.5538 21.9199 17.4508 21.6194C20.0998 21.1992 21.86 19.7669 22.6823 17.3622C23.4608 15.0872 23.1176 12.7726 21.663 10.4823C21.1933 9.74255 20.6078 9.04472 20.0427 8.36901C19.8582 8.1486 19.6675 7.92133 19.4831 7.69482C18.4201 6.39067 17.2156 4.87146 16.2112 3.17455Z" fill="white"/>
<path d="M16.1981 26.7672C13.4553 26.6894 10.7955 26.5247 8.28097 25.5264C7.77057 25.3235 7.27033 25.0421 6.84278 24.7035C5.85793 23.9225 5.85637 22.8426 6.81542 22.0326C7.13511 21.7627 7.51811 21.5552 7.89407 21.3577C8.2286 21.1815 8.54282 21.2898 8.69367 21.5766C8.84531 21.8649 8.7351 22.1409 8.40525 22.3415C8.09729 22.5284 7.7737 22.7007 7.50169 22.9295C7.15309 23.2224 7.13902 23.5343 7.51576 23.7898C8.01131 24.1254 8.54829 24.4304 9.1095 24.6424C10.6133 25.2114 12.2016 25.4219 13.7985 25.5447C16.3137 25.7384 18.8243 25.6675 21.2966 25.1626C22.2924 24.959 23.2538 24.586 24.2168 24.2512C24.4864 24.1574 24.7279 23.9469 24.9429 23.7494C25.2383 23.4779 25.2423 23.2262 24.9421 22.9646C24.6834 22.7396 24.3801 22.5581 24.0808 22.3835C23.6915 22.1569 23.5563 21.8923 23.7142 21.5857C23.8807 21.2624 24.2207 21.1701 24.6154 21.4027C25.0242 21.6437 25.4455 21.8923 25.7816 22.2164C26.496 22.9066 26.4757 23.8058 25.7777 24.5235C25.2063 25.1115 24.4622 25.4234 23.7025 25.6949C22.2267 26.2212 20.6877 26.4675 19.1315 26.6048C18.1326 26.6909 17.1298 26.7169 16.1981 26.7672Z" fill="white"/>
<path d="M16.2021 27.0341H16.1904C13.4446 26.9563 10.7659 26.8008 8.17798 25.7735C7.6285 25.5553 7.10715 25.2564 6.67022 24.9109C6.12699 24.4808 5.83545 23.956 5.82685 23.3947C5.81825 22.8349 6.10511 22.2797 6.63661 21.8313C6.96958 21.5499 7.35962 21.3356 7.76372 21.1235C7.99273 21.003 8.22878 20.9741 8.44764 21.0404C8.65555 21.103 8.82907 21.2501 8.93694 21.4553C9.15345 21.8656 9.00494 22.2927 8.55003 22.5688C8.48281 22.6092 8.41481 22.6496 8.34681 22.6893C8.10451 22.8319 7.87627 22.9669 7.68008 23.1324C7.57065 23.2247 7.50656 23.3169 7.51047 23.3795C7.5136 23.4336 7.57222 23.5038 7.67149 23.5709C8.21471 23.9393 8.7173 24.2085 9.20738 24.3938C10.7558 24.9803 12.4081 25.1702 13.819 25.2793C16.5414 25.489 18.9683 25.3662 21.2397 24.9017C22.0417 24.7378 22.8428 24.4533 23.6166 24.1787C23.7855 24.1185 23.9543 24.059 24.1231 24.0003C24.3412 23.924 24.5546 23.7395 24.7531 23.5557C24.8407 23.4748 24.8907 23.4001 24.8899 23.3513C24.8891 23.3047 24.8407 23.2369 24.757 23.1636C24.5194 22.9562 24.2341 22.7846 23.9379 22.613C23.2008 22.1844 23.3626 21.6681 23.4666 21.466C23.5799 21.2463 23.7542 21.0976 23.9723 21.0358C24.1411 20.9886 24.4139 20.9733 24.7531 21.1731C25.1744 21.421 25.6106 21.678 25.9701 22.0258C26.7877 22.8151 26.7877 23.8676 25.9725 24.7065C25.3394 25.3578 24.5155 25.6873 23.7925 25.9443C22.4802 26.4126 21.006 26.7062 19.152 26.8694C18.4524 26.9312 17.7529 26.9624 17.0768 26.9929C16.7829 27.0059 16.4937 27.0189 16.2107 27.0341H16.2021ZM8.21315 21.5384C8.15531 21.5384 8.09044 21.5567 8.024 21.5918C7.63318 21.7977 7.28614 21.9876 6.9946 22.234C6.5819 22.5825 6.36773 22.9806 6.37399 23.3856C6.38024 23.7844 6.60222 24.1681 7.0157 24.496C7.4112 24.8095 7.88409 25.0802 8.38433 25.2785C10.884 26.2707 13.5048 26.4232 16.1943 26.4995C16.4749 26.4843 16.7626 26.4713 17.0533 26.4583C17.724 26.4278 18.4173 26.3973 19.1043 26.3363C20.9091 26.1777 22.3403 25.894 23.6057 25.4417C24.2701 25.2045 25.0251 24.9048 25.5762 24.3374C26.1773 23.7189 26.1812 22.9783 25.5863 22.4033C25.2721 22.1005 24.8649 21.8603 24.471 21.6284C24.3381 21.5499 24.2154 21.5209 24.1247 21.5468C24.0559 21.5659 23.9996 21.6185 23.9559 21.7032C23.9121 21.7886 23.8386 21.932 24.2177 22.1524C24.5374 22.3385 24.8469 22.5245 25.1213 22.7633C25.3276 22.9432 25.4339 23.1377 25.4363 23.3421C25.4394 23.5488 25.3354 23.7509 25.1275 23.9416C24.886 24.1635 24.6242 24.39 24.306 24.5006C24.138 24.5593 23.9707 24.6188 23.8027 24.6783C23.0101 24.9597 22.191 25.2503 21.3507 25.4226C19.0277 25.897 16.55 26.0236 13.7752 25.8101C12.3245 25.698 10.6229 25.5012 9.00885 24.8903C8.47734 24.689 7.93724 24.4007 7.35805 24.0079C7.04697 23.7967 6.97115 23.564 6.96255 23.4054C6.95395 23.2407 7.00867 22.989 7.32132 22.7259C7.55268 22.5314 7.8114 22.3781 8.0623 22.2302C8.12795 22.1913 8.19439 22.1524 8.25927 22.1127C8.56879 21.9251 8.48203 21.7588 8.44842 21.6963C8.42028 21.6421 8.36869 21.5727 8.2835 21.5476C8.26318 21.5422 8.23894 21.5384 8.21315 21.5384Z" fill="white"/>
<path d="M31.9068 23.3651C31.8349 24.6654 31.1151 25.5882 30.1443 26.357C28.6826 27.5155 26.9654 28.1759 25.1763 28.6602C24.1766 28.931 23.1518 29.1148 22.1381 29.3375C22.0873 29.3489 22.0349 29.3527 21.9833 29.358C21.5558 29.3977 21.2689 29.2147 21.2314 28.8783C21.197 28.5717 21.4284 28.3254 21.8309 28.2491C22.4046 28.1401 22.983 28.0509 23.5528 27.925C25.2583 27.549 26.9334 27.0625 28.4247 26.1518C29.0867 25.7476 29.712 25.2336 30.2209 24.657C30.9525 23.8273 30.8946 22.8808 30.2146 22.0053C29.5925 21.2053 28.7538 20.6706 27.8502 20.2359C27.2343 19.9393 26.5879 19.6998 25.9501 19.4481C25.5092 19.2742 25.3334 19.0233 25.4498 18.6816C25.56 18.359 25.8954 18.2484 26.3292 18.3972C27.5985 18.8311 28.8179 19.3657 29.8996 20.1612C30.7024 20.7507 31.3855 21.4424 31.7005 22.4026C31.8005 22.713 31.8396 23.044 31.9068 23.3651Z" fill="white"/>
<path d="M21.8793 29.6263C21.3704 29.6263 21.0093 29.3472 20.9601 28.9041C20.9101 28.4564 21.2391 28.0865 21.7784 27.9836C21.9817 27.9447 22.1857 27.9088 22.3905 27.8722C22.7539 27.8074 23.1299 27.741 23.4933 27.661C24.9933 27.3307 26.7355 26.8655 28.28 25.9221C28.9342 25.5225 29.5337 25.0237 30.0136 24.4799C30.7968 23.5914 30.4365 22.7304 29.9964 22.1637C29.4806 21.501 28.7818 20.9786 27.7289 20.4722C27.2303 20.2327 26.6988 20.0253 26.1845 19.8247C26.0719 19.7804 25.9593 19.737 25.8468 19.6927C25.055 19.3808 25.0949 18.8706 25.1894 18.5945C25.259 18.3909 25.3942 18.2361 25.581 18.1461C25.8124 18.0355 26.1024 18.034 26.4189 18.1423C27.94 18.6624 29.0984 19.2351 30.0637 19.9444C30.696 20.4096 31.5808 21.1616 31.9599 22.3178C32.0349 22.5481 32.0779 22.783 32.1186 23.0103C32.1365 23.1094 32.1545 23.2093 32.1748 23.3077L32.1819 23.3413L32.1803 23.3756C32.1123 24.5951 31.5206 25.6071 30.3169 26.5605C29.0155 27.5916 27.453 28.3169 25.2496 28.9133C24.5477 29.1032 23.8263 29.2526 23.1283 29.3968C22.8227 29.4601 22.5069 29.5257 22.1982 29.5935C22.1325 29.608 22.07 29.6134 22.0153 29.6187C21.9692 29.6248 21.923 29.6263 21.8793 29.6263ZM25.9726 18.5976C25.914 18.5976 25.8624 18.6075 25.8218 18.6265C25.7679 18.6525 25.7303 18.6975 25.7077 18.7638C25.6741 18.8622 25.6178 19.0277 26.0508 19.1985C26.1626 19.2428 26.2743 19.2862 26.3869 19.3297C26.9106 19.5341 27.4523 19.7446 27.9705 19.994C29.0882 20.5317 29.8706 21.1189 30.4318 21.8419C31.215 22.8494 31.2134 23.9384 30.4279 24.8292C29.9128 25.4134 29.2703 25.948 28.57 26.3759C26.9559 27.362 25.1582 27.8425 23.6137 28.1834C23.2393 28.2658 22.8579 28.3336 22.4882 28.3992C22.2865 28.4351 22.0848 28.4709 21.8832 28.509C21.787 28.5273 21.4767 28.6059 21.5041 28.8469C21.5299 29.0803 21.7652 29.1077 21.9582 29.0902C22.0075 29.0856 22.0473 29.0818 22.0794 29.0749C22.3912 29.0063 22.7086 28.9407 23.0158 28.8774C23.7051 28.7348 24.4188 28.5868 25.1043 28.4015C27.2318 27.8257 28.7333 27.1309 29.973 26.1486C31.0368 25.3059 31.5644 24.4258 31.6324 23.3825C31.6136 23.2902 31.5964 23.1979 31.58 23.1049C31.5402 22.8852 31.5026 22.6778 31.4385 22.4825C31.1829 21.7023 30.6569 21.0518 29.7338 20.373C28.8154 19.6973 27.7039 19.1497 26.2376 18.6479C26.1407 18.6136 26.05 18.5976 25.9726 18.5976Z" fill="white"/>
<path d="M10.5775 29.4437C9.3253 29.1494 8.12628 28.9129 6.95541 28.5827C5.27413 28.1083 3.66086 27.4631 2.28441 26.3702C1.38554 25.6556 0.674265 24.8167 0.560147 23.6247C0.460099 22.5722 0.895465 21.7165 1.59736 20.9699C2.59706 19.9067 3.87815 19.26 5.21942 18.7139C5.53129 18.5873 5.85019 18.4783 6.17066 18.373C6.52473 18.2563 6.84442 18.3799 6.95385 18.6605C7.07656 18.977 6.93196 19.279 6.55444 19.4125C5.41404 19.8152 4.29788 20.2674 3.31225 20.9714C2.59941 21.4801 1.96238 22.0559 1.73259 22.9367C1.56532 23.5797 1.77401 24.1448 2.15857 24.6527C2.86047 25.5794 3.84454 26.1491 4.88645 26.6326C6.65057 27.4501 8.52491 27.9062 10.4383 28.2387C10.6548 28.2761 10.9089 28.3638 11.0441 28.5148C11.148 28.6307 11.1692 28.9221 11.0902 29.0632C10.998 29.2287 10.758 29.3179 10.5775 29.4437Z" fill="white"/>
<path d="M10.6349 29.7287L10.5137 29.7005C10.1237 29.609 9.73367 29.522 9.35692 29.4374C8.50104 29.246 7.69206 29.0652 6.87995 28.8364C4.84851 28.2629 3.33293 27.5437 2.11282 26.5744C1.3351 25.9566 0.424504 25.0651 0.288501 23.6465C0.190797 22.6192 0.55269 21.6834 1.39606 20.7866C2.48252 19.6311 3.88554 18.9646 5.11504 18.465C5.4402 18.3331 5.77317 18.2202 6.08347 18.1173C6.57277 17.9556 7.04722 18.144 7.2098 18.5634C7.29343 18.7792 7.28952 19.0042 7.19807 19.1979C7.09881 19.4084 6.90809 19.5686 6.64703 19.6609C5.57698 20.0392 4.45222 20.4845 3.47284 21.1839C2.83269 21.6407 2.2113 22.1769 1.99713 22.999C1.8666 23.5009 1.98697 23.9745 2.37779 24.49C3.07734 25.4136 4.09736 25.9673 5.00327 26.3875C6.51102 27.0869 8.20168 27.575 10.4856 27.9716C10.6794 28.0051 11.0359 28.0974 11.2492 28.3346C11.4259 28.5306 11.465 28.9447 11.3305 29.1865C11.2297 29.3672 11.0499 29.4709 10.8913 29.5625C10.8342 29.5952 10.781 29.6258 10.7357 29.6578L10.6349 29.7287ZM6.43052 18.5947C6.37346 18.5947 6.31484 18.6054 6.25856 18.6237C5.95685 18.7228 5.63482 18.8319 5.3253 18.9577C4.1513 19.4351 2.81393 20.0689 1.79938 21.1473C1.06622 21.9267 0.750442 22.7283 0.833294 23.5969C0.923962 24.5495 1.42498 25.3404 2.45751 26.1602C3.61901 27.0831 5.07283 27.7702 7.03159 28.3239C7.82885 28.5489 8.63001 28.7281 9.47886 28.918C9.82043 28.9943 10.1722 29.0728 10.5262 29.1552C10.5559 29.1377 10.5849 29.1209 10.6138 29.1041C10.7115 29.0477 10.8225 28.9836 10.8506 28.9325C10.8756 28.8837 10.8662 28.7296 10.8358 28.6839C10.767 28.6076 10.5903 28.5329 10.3902 28.4985C8.0563 28.0936 6.32265 27.5917 4.76878 26.871C3.80191 26.4226 2.70998 25.827 1.93773 24.8088C1.44843 24.1636 1.29445 23.5291 1.46641 22.8686C1.72357 21.8802 2.46142 21.2449 3.14925 20.7538C4.18412 20.0147 5.35265 19.5503 6.46022 19.159C6.58059 19.1163 6.66344 19.053 6.70018 18.9752C6.73066 18.9112 6.7291 18.8364 6.69705 18.7526C6.65484 18.6397 6.54776 18.5947 6.43052 18.5947Z" fill="white"/>
<path d="M11.3169 15.1822C11.3794 15.0716 11.4568 14.8215 11.628 14.6773C11.7358 14.5866 12.0258 14.5889 12.1571 14.669C12.3041 14.759 12.4276 14.9763 12.4518 15.1525C12.623 16.404 13.1654 17.416 14.2988 18.0918C14.6286 18.2878 14.6935 18.5982 14.5176 18.8742C14.3355 19.1602 14.0213 19.2129 13.6672 19.0054C12.2455 18.1696 11.5459 16.899 11.3169 15.1822Z" fill="white"/>
<path d="M14.0761 19.3975C13.901 19.3975 13.7134 19.3433 13.5258 19.2335C12.0861 18.3862 11.2982 17.1103 11.0449 15.2158L11.0332 15.1289L11.077 15.0519C11.0871 15.0336 11.1028 15 11.1184 14.9642C11.1809 14.8276 11.2747 14.621 11.4475 14.4745C11.6593 14.2961 12.0876 14.3106 12.3018 14.4417C12.537 14.5859 12.691 14.8902 12.7223 15.1159C12.895 16.3781 13.457 17.2765 14.4403 17.8623C14.6654 17.9965 14.8124 18.181 14.8647 18.3969C14.914 18.5997 14.8725 18.8194 14.7483 19.0139C14.5888 19.2663 14.3481 19.3975 14.0761 19.3975ZM11.5991 15.2257C11.8398 16.9021 12.5433 18.0316 13.8087 18.7759C14.1347 18.9681 14.2441 18.7965 14.2855 18.7324C14.3184 18.6806 14.3535 18.602 14.334 18.5212C14.3113 18.4274 14.2254 18.3595 14.1566 18.3191C13.0232 17.6441 12.3768 16.6191 12.1814 15.1876C12.1658 15.0732 12.0759 14.9337 12.0126 14.8948C11.9727 14.8734 11.8477 14.8688 11.7992 14.8864C11.7226 14.9565 11.6663 15.0801 11.621 15.1808C11.6124 15.196 11.6061 15.2113 11.5991 15.2257Z" fill="white"/>
</svg>
