<svg width="26" height="24" viewBox="0 0 26 24" fill="none" xmlns="http://www.w3.org/2000/svg">
<path d="M19.7346 12.2564C19.6518 14.5526 18.6608 16.5809 16.3292 17.8132C13.6397 19.235 9.66809 18.8 7.61988 16.182C6.48942 14.7372 6.09073 13.0929 6.2767 11.3026C6.48241 9.32394 7.42882 7.68836 8.69239 6.16835C9.76617 4.87641 10.7673 3.5242 11.7462 2.16141C12.0921 1.67981 12.2857 1.09132 12.5315 0.543849C12.6226 0.340643 12.7519 0.179695 12.9729 0.22568C13.134 0.259237 13.3601 0.37855 13.4034 0.509049C13.9135 2.02719 14.9147 3.25263 15.8783 4.49735C16.6005 5.4301 17.4055 6.3032 18.1029 7.25212C19.1474 8.67269 19.7021 10.2735 19.7346 12.2564ZM12.9926 1.93211C12.6805 2.42552 12.4315 2.89718 12.1093 3.31478C11.0699 4.6614 9.9999 5.98566 8.94841 7.3242C7.87081 8.69693 7.18489 10.2194 7.16961 11.9762C7.15177 14.048 7.94533 15.7314 9.77508 16.8562C11.0794 17.6579 12.5353 17.8449 14.0326 17.6075C16.228 17.2595 17.7609 16.0695 18.471 13.9933C19.1729 11.9414 18.757 9.99695 17.6183 8.20414C17.1018 7.39132 16.44 6.66487 15.8267 5.91233C14.8039 4.65643 13.8097 3.38251 12.9926 1.93211Z" fill="white"/>
<path d="M12.9644 18.8291C12.5415 18.8291 12.1167 18.7956 11.6976 18.7272C9.94813 18.442 8.43746 17.585 7.44329 16.3136C6.32429 14.8831 5.85746 13.1897 6.05553 11.2801C6.24022 9.49908 7.02358 7.83118 8.51961 6.03092C9.65517 4.66503 10.6958 3.24508 11.5639 2.03641C11.8053 1.70022 11.9677 1.30996 12.1396 0.896094C12.1995 0.751302 12.2619 0.602161 12.3275 0.456747C12.5275 0.0124296 12.8141 -0.0298272 13.0198 0.013051C13.2153 0.054065 13.535 0.201342 13.6159 0.441212C14.0796 1.82077 14.9839 2.9847 15.8584 4.1101L16.0571 4.3655C16.3698 4.77005 16.7054 5.17087 17.0302 5.55863C17.4525 6.06323 17.8888 6.58461 18.2855 7.12462C19.3791 8.61231 19.9261 10.2895 19.9586 12.252V12.2576V12.2632C19.865 14.8502 18.6473 16.835 16.4367 18.0039C15.4132 18.5451 14.1955 18.8291 12.9644 18.8291ZM12.9026 0.435619C12.867 0.435619 12.8122 0.461719 12.7358 0.631368C12.6727 0.771188 12.6116 0.917844 12.553 1.06015C12.3791 1.47775 12.1995 1.91026 11.9288 2.28622C11.0563 3.5011 10.0099 4.92851 8.86608 6.30497C7.42673 8.03625 6.67457 9.63082 6.49879 11.3242C6.31219 13.1201 6.74909 14.7097 7.79739 16.0501C9.8577 18.6837 13.7751 18.9168 16.2233 17.6223C18.3148 16.5162 19.4217 14.7103 19.5115 12.2545C19.479 10.3598 18.974 8.81054 17.9219 7.37878C17.5334 6.84995 17.1016 6.33355 16.6838 5.83455C16.3564 5.44367 16.0182 5.03913 15.7004 4.62836L15.5024 4.37358C14.6056 3.21898 13.6783 2.02584 13.1918 0.576682C13.172 0.542504 13.0434 0.462962 12.9262 0.438726C12.9192 0.436862 12.9115 0.435619 12.9026 0.435619ZM12.858 17.9206C11.6824 17.9206 10.6099 17.6261 9.65644 17.0401C7.83943 15.9227 6.92805 14.2182 6.94716 11.9742C6.96181 10.3013 7.55856 8.73722 8.77182 7.19174C9.1756 6.6772 9.58893 6.15707 9.98889 5.65371C10.6296 4.84711 11.292 4.01253 11.9314 3.18418C12.1428 2.91075 12.3237 2.60874 12.5154 2.28933C12.6071 2.13646 12.702 1.97861 12.8033 1.81829L13.0039 1.50074L13.1879 1.82761C14.0248 3.31343 15.0788 4.64514 16.0017 5.77675C16.1501 5.95883 16.3048 6.14339 16.4539 6.32174C16.9239 6.88289 17.4098 7.46268 17.8079 8.08969C19.0663 10.0708 19.3606 12.0805 18.6823 14.0622C17.9556 16.1868 16.4029 17.4521 14.0681 17.8224C13.6541 17.8877 13.2504 17.9206 12.858 17.9206ZM12.9867 2.36452C12.9574 2.41299 12.9287 2.46146 12.9001 2.50869C12.702 2.83929 12.5141 3.15186 12.2874 3.4458C11.6461 4.27664 10.9824 5.11245 10.3411 5.9203C9.94177 6.42304 9.52843 6.94317 9.12529 7.45708C7.97317 8.92427 7.40635 10.4033 7.39297 11.9786C7.37514 14.0616 8.21646 15.6412 9.894 16.6728C11.0703 17.3961 12.4511 17.6385 13.9968 17.3936C16.1552 17.0512 17.5894 15.8842 18.2594 13.9249C18.8938 12.0712 18.6142 10.1851 17.4289 8.319C17.0462 7.71622 16.5691 7.14762 16.1087 6.59703C15.9584 6.41744 15.803 6.23226 15.6527 6.0477C14.7865 4.98506 13.8051 3.74719 12.9867 2.36452Z" fill="white"/>
<path d="M12.9765 21.5876C10.7417 21.5242 8.57439 21.39 6.52554 20.5765C6.10966 20.4112 5.70206 20.1819 5.35368 19.906C4.55121 19.2697 4.54994 18.3898 5.33139 17.7298C5.59188 17.5098 5.90395 17.3408 6.21029 17.1798C6.48287 17.0363 6.7389 17.1245 6.86182 17.3582C6.98537 17.5931 6.89557 17.818 6.62681 17.9815C6.37588 18.1337 6.11221 18.2742 5.89057 18.4606C5.60653 18.6992 5.59506 18.9534 5.90204 19.1616C6.30582 19.435 6.74336 19.6836 7.20064 19.8563C8.426 20.3199 9.72014 20.4914 11.0213 20.5915C13.0708 20.7493 15.1164 20.6915 17.1309 20.2801C17.9423 20.1142 18.7256 19.8103 19.5103 19.5375C19.73 19.4611 19.9268 19.2896 20.1019 19.1286C20.3427 18.9074 20.3458 18.7023 20.1013 18.4892C19.8905 18.3059 19.6434 18.158 19.3994 18.0157C19.0823 17.8311 18.9721 17.6155 19.1007 17.3656C19.2364 17.1022 19.5134 17.027 19.8351 17.2165C20.1682 17.4129 20.5114 17.6155 20.7853 17.8796C21.3674 18.442 21.3508 19.1746 20.7821 19.7594C20.3166 20.2385 19.7102 20.4927 19.0912 20.7139C17.8888 21.1427 16.6347 21.3434 15.3667 21.4552C14.5528 21.5255 13.7357 21.5466 12.9765 21.5876Z" fill="white"/>
<path d="M12.9795 21.8047H12.9699C10.7326 21.7413 8.54999 21.6145 6.44128 20.7775C5.99355 20.5998 5.56875 20.3562 5.21274 20.0747C4.77011 19.7242 4.53255 19.2966 4.52554 18.8393C4.51854 18.3831 4.75227 17.9307 5.18535 17.5653C5.45666 17.336 5.77447 17.1614 6.10373 16.9887C6.29034 16.8905 6.48268 16.8669 6.661 16.9209C6.83041 16.9719 6.9718 17.0918 7.05969 17.259C7.23611 17.5933 7.1151 17.9413 6.74443 18.1663C6.68966 18.1992 6.63425 18.2321 6.57885 18.2644C6.38141 18.3807 6.19544 18.4906 6.03559 18.6255C5.94642 18.7007 5.8942 18.7759 5.89738 18.8268C5.89993 18.871 5.9477 18.9281 6.02858 18.9828C6.47121 19.283 6.88073 19.5023 7.28005 19.6533C8.54171 20.1312 9.88807 20.2859 11.0376 20.3748C13.2559 20.5457 15.2334 20.4456 17.0842 20.0672C17.7376 19.9336 18.3904 19.7018 19.0209 19.4781C19.1585 19.429 19.2961 19.3805 19.4336 19.3327C19.6113 19.2705 19.7852 19.1201 19.947 18.9704C20.0183 18.9045 20.0591 18.8436 20.0584 18.8038C20.0578 18.7659 20.0183 18.7106 19.9501 18.651C19.7565 18.4819 19.5241 18.3421 19.2827 18.2023C18.6821 17.8531 18.8139 17.4324 18.8987 17.2677C18.991 17.0887 19.133 16.9675 19.3107 16.9172C19.4483 16.8787 19.6706 16.8662 19.947 17.0291C20.2902 17.231 20.6456 17.4404 20.9386 17.7238C21.6048 18.367 21.6048 19.2245 20.9405 19.9081C20.4246 20.4388 19.7533 20.7073 19.1642 20.9167C18.0949 21.2982 16.8938 21.5375 15.3831 21.6705C14.8131 21.7208 14.2431 21.7463 13.6922 21.7711C13.4527 21.7817 13.217 21.7923 12.9865 21.8047H12.9795ZM6.46994 17.3267C6.42281 17.3267 6.36995 17.3416 6.31581 17.3702C5.99737 17.538 5.7146 17.6927 5.47704 17.8935C5.14077 18.1774 4.96626 18.5018 4.97136 18.8318C4.97645 19.1568 5.15733 19.4694 5.49424 19.7366C5.8165 19.992 6.20181 20.2126 6.60942 20.3742C8.64616 21.1827 10.7816 21.3069 12.9731 21.3691C13.2018 21.3567 13.4361 21.3461 13.6731 21.3355C14.2195 21.3107 14.7844 21.2858 15.3442 21.2361C16.8148 21.1068 17.9809 20.8757 19.012 20.5072C19.5534 20.3139 20.1686 20.0697 20.6176 19.6073C21.1074 19.1034 21.1105 18.5 20.6259 18.0314C20.3698 17.7847 20.038 17.589 19.717 17.4C19.6088 17.336 19.5088 17.3124 19.4349 17.3336C19.3789 17.3491 19.333 17.392 19.2973 17.4609C19.2617 17.5305 19.2018 17.6474 19.5107 17.827C19.7712 17.9786 20.0234 18.1302 20.2469 18.3247C20.4151 18.4714 20.5017 18.6298 20.5036 18.7964C20.5061 18.9648 20.4214 19.1295 20.252 19.2848C20.0552 19.4657 19.8419 19.6502 19.5827 19.7403C19.4457 19.7882 19.3094 19.8367 19.1725 19.8851C18.5267 20.1144 17.8593 20.3512 17.1746 20.4916C15.2818 20.8782 13.2629 20.9813 11.002 20.8073C9.81993 20.716 8.43344 20.5556 7.11828 20.0579C6.6852 19.8938 6.24512 19.6589 5.77319 19.3389C5.51971 19.1668 5.45794 18.9772 5.45093 18.848C5.44392 18.7137 5.48851 18.5087 5.74326 18.2943C5.93178 18.1358 6.14258 18.0109 6.34702 17.8904C6.40052 17.8587 6.45465 17.827 6.50751 17.7947C6.75972 17.6418 6.68903 17.5063 6.66164 17.4554C6.63871 17.4112 6.59668 17.3547 6.52726 17.3342C6.5107 17.3298 6.49096 17.3267 6.46994 17.3267Z" fill="white"/>
<path d="M25.7755 18.8129C25.7169 19.8725 25.1303 20.6244 24.3393 21.2508C23.1483 22.1947 21.7491 22.7329 20.2913 23.1275C19.4767 23.3481 18.6418 23.4978 17.8157 23.6793C17.7743 23.6886 17.7317 23.6917 17.6896 23.6961C17.3413 23.7284 17.1075 23.5792 17.077 23.3052C17.0489 23.0554 17.2375 22.8547 17.5654 22.7925C18.0329 22.7037 18.5042 22.631 18.9685 22.5284C20.3582 22.2221 21.723 21.8256 22.9382 21.0836C23.4776 20.7543 23.9871 20.3354 24.4017 19.8656C24.9978 19.1895 24.9507 18.4183 24.3966 17.7049C23.8897 17.0531 23.2063 16.6174 22.4701 16.2632C21.9682 16.0215 21.4415 15.8264 20.9218 15.6213C20.5626 15.4796 20.4193 15.2752 20.5142 14.9968C20.604 14.7339 20.8772 14.6438 21.2307 14.765C22.265 15.1186 23.2585 15.5542 24.14 16.2023C24.794 16.6827 25.3507 17.2463 25.6073 18.0287C25.6889 18.2816 25.7207 18.5513 25.7755 18.8129Z" fill="white"/>
<path d="M17.6051 23.9169C17.1905 23.9169 16.8962 23.6894 16.8561 23.3284C16.8154 22.9636 17.0835 22.6622 17.5229 22.5783C17.6885 22.5466 17.8548 22.5174 18.0216 22.4876C18.3178 22.4348 18.6241 22.3807 18.9202 22.3155C20.1424 22.0464 21.562 21.6673 22.8205 20.8986C23.3536 20.573 23.8421 20.1666 24.2331 19.7235C24.8713 18.9995 24.5777 18.298 24.2191 17.8362C23.7987 17.2962 23.2294 16.8706 22.3715 16.4579C21.9652 16.2628 21.5321 16.0938 21.113 15.9303C21.0213 15.8943 20.9296 15.8589 20.8379 15.8228C20.1927 15.5687 20.2252 15.1529 20.3023 14.928C20.359 14.7621 20.4691 14.6359 20.6214 14.5626C20.8099 14.4725 21.0462 14.4712 21.3041 14.5595C22.5435 14.9833 23.4873 15.45 24.2739 16.0279C24.7891 16.407 25.51 17.0197 25.8189 17.9618C25.8801 18.1494 25.9151 18.3408 25.9482 18.526C25.9629 18.6068 25.9775 18.6882 25.9941 18.7684L25.9998 18.7957L25.9985 18.8237C25.9431 19.8173 25.461 20.642 24.4802 21.4188C23.4198 22.2589 22.1467 22.8499 20.3513 23.3358C19.7794 23.4906 19.1916 23.6124 18.6228 23.7298C18.3738 23.7814 18.1165 23.8348 17.8649 23.8902C17.8114 23.902 17.7605 23.9063 17.7159 23.9107C17.6783 23.9156 17.6408 23.9169 17.6051 23.9169ZM20.9404 14.9305C20.8927 14.9305 20.8506 14.9385 20.8175 14.9541C20.7736 14.9752 20.743 15.0119 20.7245 15.0659C20.6971 15.1461 20.6513 15.281 21.0041 15.4201C21.0952 15.4562 21.1863 15.4916 21.278 15.527C21.7047 15.6936 22.146 15.8651 22.5683 16.0683C23.479 16.5064 24.1165 16.9849 24.5738 17.574C25.212 18.3949 25.2107 19.2823 24.5706 20.0081C24.1509 20.4841 23.6274 20.9197 23.0568 21.2684C21.7416 22.0719 20.2768 22.4634 19.0183 22.7411C18.7133 22.8083 18.4025 22.8636 18.1012 22.917C17.9369 22.9462 17.7726 22.9754 17.6083 23.0065C17.5299 23.0214 17.2771 23.0854 17.2994 23.2818C17.3204 23.4719 17.5121 23.4943 17.6694 23.48C17.7095 23.4763 17.742 23.4732 17.7681 23.4676C18.0222 23.4117 18.2808 23.3582 18.5311 23.3066C19.0928 23.1904 19.6743 23.0699 20.2329 22.9189C21.9664 22.4497 23.1899 21.8836 24.2 21.0832C25.0668 20.3965 25.4967 19.6794 25.5521 18.8293C25.5368 18.7541 25.5228 18.6789 25.5094 18.6031C25.4769 18.4241 25.4464 18.2551 25.3941 18.096C25.1859 17.4603 24.7573 16.9302 24.0051 16.3771C23.2568 15.8266 22.3511 15.3804 21.1563 14.9715C21.0774 14.9435 21.0035 14.9305 20.9404 14.9305Z" fill="white"/>
<path d="M8.39652 23.7672C7.37624 23.5273 6.39927 23.3347 5.44522 23.0656C4.07529 22.6791 2.76077 22.1534 1.63922 21.2629C0.906812 20.6806 0.327251 19.997 0.234266 19.0257C0.152746 18.1682 0.507488 17.4709 1.07941 16.8626C1.89398 15.9963 2.93782 15.4693 4.03071 15.0244C4.28482 14.9212 4.54467 14.8324 4.80579 14.7466C5.0943 14.6515 5.35478 14.7522 5.44395 14.9809C5.54394 15.2388 5.42611 15.4849 5.1185 15.5936C4.18929 15.9217 3.27983 16.2902 2.47672 16.8638C1.89589 17.2783 1.37683 17.7475 1.18959 18.4652C1.05329 18.9891 1.22334 19.4495 1.53669 19.8634C2.1086 20.6184 2.91044 21.0827 3.7594 21.4766C5.19684 22.1428 6.72408 22.5144 8.28316 22.7854C8.45957 22.8158 8.66656 22.8873 8.77674 23.0103C8.86145 23.1048 8.87864 23.3422 8.81432 23.4571C8.73916 23.592 8.54364 23.6647 8.39652 23.7672Z" fill="white"/>
<path d="M8.44306 24.0003L8.34434 23.9773C8.02654 23.9027 7.70873 23.8319 7.40176 23.7629C6.70437 23.6069 6.0452 23.4596 5.38348 23.2732C3.72823 22.8059 2.49332 22.2199 1.49915 21.4301C0.865454 20.9267 0.123489 20.2003 0.0126716 19.0444C-0.0669384 18.2074 0.227937 17.4449 0.915131 16.7141C1.80039 15.7726 2.94359 15.2295 3.94541 14.8225C4.21035 14.715 4.48166 14.623 4.7345 14.5391C5.13319 14.4074 5.51978 14.5608 5.65225 14.9026C5.72039 15.0785 5.71721 15.2618 5.64269 15.4197C5.56181 15.5912 5.40641 15.7217 5.19369 15.7969C4.3218 16.1051 3.40533 16.468 2.60732 17.0378C2.08572 17.4101 1.5794 17.8469 1.40489 18.5168C1.29853 18.9257 1.39661 19.3116 1.71505 19.7317C2.28506 20.4843 3.11619 20.9354 3.85433 21.2778C5.08288 21.8477 6.46045 22.2454 8.32141 22.5685C8.47936 22.5959 8.76978 22.6711 8.94364 22.8643C9.08758 23.024 9.11942 23.3615 9.00988 23.5584C8.92772 23.7057 8.78124 23.7902 8.65195 23.8648C8.60546 23.8915 8.56215 23.9164 8.52521 23.9425L8.44306 24.0003ZM5.01728 14.9281C4.97078 14.9281 4.92302 14.9368 4.87716 14.9517C4.63133 15.0325 4.36893 15.1214 4.11673 15.2239C3.16013 15.6129 2.07043 16.1293 1.24376 17.008C0.646368 17.6431 0.389068 18.2962 0.456577 19.004C0.530455 19.7802 0.938696 20.4246 1.78001 21.0926C2.72642 21.8446 3.91102 22.4045 5.50704 22.8556C6.15666 23.0389 6.80946 23.185 7.50111 23.3397C7.77943 23.4018 8.06602 23.4659 8.35453 23.533C8.37873 23.5187 8.4023 23.505 8.42586 23.4913C8.50547 23.4453 8.59591 23.3931 8.61884 23.3515C8.63922 23.3117 8.63157 23.1862 8.60673 23.1489C8.55069 23.0868 8.40675 23.0259 8.24371 22.9979C6.34199 22.6679 4.92939 22.259 3.66327 21.6718C2.87545 21.3064 1.98573 20.8211 1.35649 19.9915C0.957802 19.4657 0.832337 18.9487 0.97245 18.4106C1.18198 17.6052 1.7832 17.0876 2.34365 16.6874C3.18688 16.0852 4.13902 15.7067 5.04148 15.388C5.13956 15.3532 5.20707 15.3016 5.237 15.2382C5.26184 15.186 5.26057 15.1251 5.23445 15.0567C5.20006 14.9648 5.11281 14.9281 5.01728 14.9281Z" fill="white"/>
<path d="M8.99902 12.1457C9.04997 12.0556 9.11302 11.8518 9.2525 11.7343C9.34039 11.6604 9.57667 11.6623 9.68367 11.7275C9.8034 11.8008 9.90403 11.9779 9.92377 12.1215C10.0632 13.1412 10.5052 13.9659 11.4287 14.5165C11.6975 14.6762 11.7503 14.9291 11.607 15.154C11.4587 15.3871 11.2026 15.43 10.9141 15.2609C9.75564 14.5798 9.18563 13.5446 8.99902 12.1457Z" fill="white"/>
<path d="M11.2474 15.5822C11.1048 15.5822 10.9519 15.5381 10.7991 15.4486C9.62594 14.7582 8.98397 13.7186 8.77762 12.175L8.76807 12.1041L8.80373 12.0414C8.81201 12.0264 8.82475 11.9991 8.83749 11.9699C8.88844 11.8587 8.96486 11.6903 9.10561 11.5709C9.27821 11.4255 9.62722 11.4373 9.80172 11.5442C9.99342 11.6617 10.1189 11.9096 10.1444 12.0936C10.2851 13.122 10.743 13.8541 11.5442 14.3313C11.7276 14.4407 11.8474 14.5911 11.89 14.7669C11.9302 14.9322 11.8964 15.1112 11.7952 15.2697C11.6652 15.4753 11.4691 15.5822 11.2474 15.5822ZM9.22917 12.183C9.42533 13.5489 9.99852 14.4693 11.0296 15.0758C11.2952 15.2324 11.3844 15.0926 11.4181 15.0404C11.4449 14.9981 11.4735 14.9341 11.4576 14.8682C11.4391 14.7918 11.3691 14.7365 11.313 14.7035C10.3896 14.1536 9.86286 13.3184 9.70364 12.152C9.6909 12.0588 9.61766 11.945 9.56608 11.9134C9.53359 11.896 9.43169 11.8922 9.39221 11.9065C9.32979 11.9637 9.28394 12.0644 9.247 12.1464C9.23999 12.1588 9.2349 12.1712 9.22917 12.183Z" fill="white"/>
</svg>
