<svg width="18" height="15" viewBox="0 0 18 15" fill="none" xmlns="http://www.w3.org/2000/svg">
<path d="M16.7003 1.66667H15.8503V0.833333C15.8503 0.61232 15.7607 0.400358 15.6013 0.244078C15.4419 0.0877973 15.2257 0 15.0003 0C14.7749 0 14.5587 0.0877973 14.3993 0.244078C14.2398 0.400358 14.1503 0.61232 14.1503 0.833333V1.66667H3.95029V0.833333C3.95029 0.61232 3.86074 0.400358 3.70133 0.244078C3.54193 0.0877973 3.32573 0 3.10029 0C2.87486 0 2.65866 0.0877973 2.49925 0.244078C2.33985 0.400358 2.25029 0.61232 2.25029 0.833333V1.66667H1.40029C1.17486 1.66667 0.958658 1.75446 0.799252 1.91074C0.639846 2.06702 0.550293 2.27899 0.550293 2.5V7.5C0.550293 7.72101 0.639846 7.93297 0.799252 8.08926C0.958658 8.24554 1.17486 8.33333 1.40029 8.33333H2.25029V14.1667C2.25029 14.3877 2.33985 14.5996 2.49925 14.7559C2.65866 14.9122 2.87486 15 3.10029 15C3.32573 15 3.54193 14.9122 3.70133 14.7559C3.86074 14.5996 3.95029 14.3877 3.95029 14.1667V8.33333H14.1503V14.1667C14.1503 14.3877 14.2398 14.5996 14.3993 14.7559C14.5587 14.9122 14.7749 15 15.0003 15C15.2257 15 15.4419 14.9122 15.6013 14.7559C15.7607 14.5996 15.8503 14.3877 15.8503 14.1667V8.33333H16.7003C16.9257 8.33333 17.1419 8.24554 17.3013 8.08926C17.4607 7.93297 17.5503 7.72101 17.5503 7.5V2.5C17.5503 2.27899 17.4607 2.06702 17.3013 1.91074C17.1419 1.75446 16.9257 1.66667 16.7003 1.66667ZM2.25029 5.43333V3.33333H4.39229L2.25029 5.43333ZM3.38929 6.66667L6.78929 3.33333H9.61979L6.21979 6.66667H3.38929ZM8.61679 6.66667L12.0168 3.33333H14.7198L11.3198 6.66667H8.61679ZM15.8503 6.66667H13.7168L15.8503 4.575V6.66667Z" fill="#2274FF"/>
</svg>
