<svg width="12" height="14" viewBox="0 0 12 14" fill="none" xmlns="http://www.w3.org/2000/svg">
<path d="M11.25 12.6H0.75C0.551088 12.6 0.360322 12.6737 0.21967 12.805C0.0790178 12.9363 0 13.1143 0 13.3C0 13.4857 0.0790178 13.6637 0.21967 13.795C0.360322 13.9263 0.551088 14 0.75 14H11.25C11.4489 14 11.6397 13.9263 11.7803 13.795C11.921 13.6637 12 13.4857 12 13.3C12 13.1143 11.921 12.9363 11.7803 12.805C11.6397 12.6737 11.4489 12.6 11.25 12.6ZM5.4675 10.997C5.53883 11.0607 5.62294 11.1107 5.715 11.144C5.80478 11.181 5.90185 11.2002 6 11.2002C6.09815 11.2002 6.19522 11.181 6.285 11.144C6.37706 11.1107 6.46117 11.0607 6.5325 10.997L9.5325 8.197C9.67373 8.06519 9.75307 7.88641 9.75307 7.7C9.75307 7.51359 9.67373 7.33481 9.5325 7.203C9.39127 7.07119 9.19973 6.99714 9 6.99714C8.80027 6.99714 8.60873 7.07119 8.4675 7.203L6.75 8.813V0.7C6.75 0.514348 6.67098 0.336301 6.53033 0.205025C6.38968 0.0737498 6.19891 0 6 0C5.80109 0 5.61032 0.0737498 5.46967 0.205025C5.32902 0.336301 5.25 0.514348 5.25 0.7V8.813L3.5325 7.203C3.46257 7.13773 3.37955 7.08596 3.28819 7.05064C3.19682 7.01532 3.09889 6.99714 3 6.99714C2.90111 6.99714 2.80318 7.01532 2.71181 7.05064C2.62045 7.08596 2.53743 7.13773 2.4675 7.203C2.39757 7.26827 2.3421 7.34575 2.30426 7.43103C2.26641 7.5163 2.24693 7.6077 2.24693 7.7C2.24693 7.7923 2.26641 7.8837 2.30426 7.96897C2.3421 8.05425 2.39757 8.13173 2.4675 8.197L5.4675 10.997Z" fill="#2274FF"/>
</svg>
