<svg width="25" height="24" viewBox="0 0 25 24" fill="none" xmlns="http://www.w3.org/2000/svg">
<circle cx="13.718" cy="11.868" r="8.86087" fill="white"/>
<path d="M12.5002 0.359375C6.04656 0.359375 0.795654 5.61028 0.795654 12.0639C0.795654 18.5175 6.04656 23.7684 12.5002 23.7684C18.9538 23.7684 24.2047 18.5175 24.2047 12.0639C24.2047 5.61028 18.9538 0.359375 12.5002 0.359375ZM19.0418 8.98376L11.5615 16.4054C11.1215 16.8455 10.4174 16.8748 9.94807 16.4348L5.98789 12.8266C5.51853 12.3866 5.4892 11.6532 5.89988 11.1839C6.3399 10.7145 7.07327 10.6852 7.54263 11.1252L10.6814 14L17.3697 7.31169C17.8391 6.84233 18.5725 6.84233 19.0418 7.31169C19.5112 7.78104 19.5112 8.51441 19.0418 8.98376Z" fill="#19CE74"/>
</svg>
