<svg width="24" height="22" viewBox="0 0 24 22" fill="none" xmlns="http://www.w3.org/2000/svg">
<path d="M11.5973 15.3245C11.3928 15.3245 11.1929 15.3852 11.0229 15.4988C10.8529 15.6124 10.7203 15.7738 10.6421 15.9628C10.5638 16.1517 10.5434 16.3596 10.5832 16.5601C10.6231 16.7607 10.7216 16.9449 10.8662 17.0895C11.0108 17.2341 11.195 17.3325 11.3956 17.3724C11.5961 17.4123 11.804 17.3919 11.9929 17.3136C12.1819 17.2353 12.3433 17.1028 12.4569 16.9328C12.5705 16.7628 12.6312 16.5629 12.6312 16.3584C12.6312 16.0842 12.5222 15.8212 12.3283 15.6273C12.1345 15.4334 11.8715 15.3245 11.5973 15.3245ZM22.6289 16.8443L14.3061 2.36983C14.0371 1.88754 13.6442 1.48581 13.168 1.20615C12.6918 0.926497 12.1495 0.779053 11.5973 0.779053C11.045 0.779053 10.5028 0.926497 10.0266 1.20615C9.55039 1.48581 9.15749 1.88754 8.88848 2.36983L0.617331 16.8443C0.339003 17.3137 0.189447 17.8483 0.183762 18.394C0.178078 18.9396 0.316466 19.4772 0.584955 19.9523C0.853445 20.4274 1.24253 20.8232 1.71293 21.0999C2.18333 21.3765 2.71839 21.5241 3.2641 21.5279H19.9305C20.4805 21.5333 21.0222 21.3923 21.4998 21.1194C21.9774 20.8465 22.3739 20.4514 22.6485 19.9748C22.9232 19.4981 23.0661 18.957 23.0626 18.4069C23.0592 17.8568 22.9095 17.3175 22.6289 16.8443V16.8443ZM20.8403 18.9121C20.7497 19.0734 20.6174 19.2073 20.4574 19.3001C20.2974 19.3928 20.1154 19.4409 19.9305 19.4394H3.2641C3.07914 19.4409 2.89717 19.3928 2.73714 19.3001C2.57711 19.2073 2.4449 19.0734 2.35427 18.9121C2.26353 18.755 2.21576 18.5767 2.21576 18.3952C2.21576 18.2137 2.26353 18.0354 2.35427 17.8782L10.6254 3.40373C10.7122 3.23437 10.844 3.09225 11.0064 2.993C11.1687 2.89376 11.3553 2.84125 11.5456 2.84125C11.7359 2.84125 11.9225 2.89376 12.0848 2.993C12.2472 3.09225 12.379 3.23437 12.4657 3.40373L20.7886 17.8782C20.8912 18.0331 20.9501 18.2128 20.9592 18.3984C20.9683 18.584 20.9272 18.7686 20.8403 18.9328V18.9121ZM11.5973 7.05337C11.3231 7.05337 11.0601 7.1623 10.8662 7.35619C10.6723 7.55008 10.5634 7.81306 10.5634 8.08726V12.2228C10.5634 12.497 10.6723 12.76 10.8662 12.9539C11.0601 13.1478 11.3231 13.2567 11.5973 13.2567C11.8715 13.2567 12.1345 13.1478 12.3283 12.9539C12.5222 12.76 12.6312 12.497 12.6312 12.2228V8.08726C12.6312 7.81306 12.5222 7.55008 12.3283 7.35619C12.1345 7.1623 11.8715 7.05337 11.5973 7.05337Z" fill="white"/>
</svg>
