<svg width="30" height="30" viewBox="0 0 30 30" fill="none" xmlns="http://www.w3.org/2000/svg">
<path d="M23.0516 12.5833C22.7311 12.5833 22.4237 12.7106 22.1971 12.9372C21.9705 13.1638 21.8432 13.4712 21.8432 13.7916V17.8758L20.0549 16.0875C19.4234 15.461 18.57 15.1095 17.6805 15.1095C16.791 15.1095 15.9376 15.461 15.3061 16.0875L14.4603 16.9454L11.4636 13.9366C10.8322 13.3102 9.97875 12.9586 9.08926 12.9586C8.19978 12.9586 7.34633 13.3102 6.71489 13.9366L4.92655 15.737V8.95829C4.92655 8.63782 5.05386 8.33048 5.28047 8.10387C5.50707 7.87727 5.81442 7.74996 6.13489 7.74996H15.8016C16.122 7.74996 16.4294 7.62265 16.656 7.39605C16.8826 7.16944 17.0099 6.8621 17.0099 6.54163C17.0099 6.22116 16.8826 5.91381 16.656 5.68721C16.4294 5.4606 16.122 5.33329 15.8016 5.33329H6.13489C5.17348 5.33329 4.25145 5.71521 3.57163 6.39503C2.89181 7.07485 2.50989 7.99688 2.50989 8.95829V23.7241C2.51307 24.6141 2.86801 25.4666 3.49728 26.0959C4.12656 26.7252 4.97913 27.0801 5.86905 27.0833H20.9007C21.2282 27.0807 21.5536 27.0319 21.8674 26.9383C22.5651 26.7426 23.1794 26.3234 23.6159 25.745C24.0525 25.1665 24.2872 24.4609 24.2841 23.7362V13.7916C24.2841 13.6309 24.2521 13.4718 24.1898 13.3236C24.1276 13.1754 24.0364 13.0411 23.9216 12.9285C23.8069 12.816 23.6708 12.7275 23.5214 12.6682C23.372 12.609 23.2123 12.5801 23.0516 12.5833ZM6.13489 24.6666C5.81442 24.6666 5.50707 24.5393 5.28047 24.3127C5.05386 24.0861 4.92655 23.7788 4.92655 23.4583V19.1445L8.41864 15.6525C8.59524 15.4768 8.83417 15.3783 9.08322 15.3783C9.33228 15.3783 9.57121 15.4768 9.7478 15.6525L18.7741 24.6666H6.13489ZM21.8432 23.4583C21.8355 23.6923 21.7599 23.919 21.6257 24.1108L16.1641 18.625L17.022 17.7791C17.1086 17.6907 17.212 17.6205 17.3261 17.5725C17.4402 17.5246 17.5628 17.4999 17.6866 17.4999C17.8103 17.4999 17.9329 17.5246 18.047 17.5725C18.1611 17.6205 18.2645 17.6907 18.3511 17.7791L21.8432 21.2954V23.4583ZM25.4682 5.33329H24.2599V4.12496C24.2599 3.80449 24.1326 3.49715 23.906 3.27054C23.6794 3.04393 23.372 2.91663 23.0516 2.91663C22.7311 2.91663 22.4237 3.04393 22.1971 3.27054C21.9705 3.49715 21.8432 3.80449 21.8432 4.12496V5.33329H20.6349C20.3144 5.33329 20.0071 5.4606 19.7805 5.68721C19.5539 5.91381 19.4266 6.22116 19.4266 6.54163C19.4266 6.8621 19.5539 7.16944 19.7805 7.39605C20.0071 7.62265 20.3144 7.74996 20.6349 7.74996H21.8432V8.95829C21.8432 9.27876 21.9705 9.58611 22.1971 9.81271C22.4237 10.0393 22.7311 10.1666 23.0516 10.1666C23.372 10.1666 23.6794 10.0393 23.906 9.81271C24.1326 9.58611 24.2599 9.27876 24.2599 8.95829V7.74996H25.4682C25.7887 7.74996 26.096 7.62265 26.3226 7.39605C26.5492 7.16944 26.6766 6.8621 26.6766 6.54163C26.6766 6.22116 26.5492 5.91381 26.3226 5.68721C26.096 5.4606 25.7887 5.33329 25.4682 5.33329Z" fill="#2274FF"/>
</svg>
