<svg width="21" height="21" viewBox="0 0 21 21" fill="none" xmlns="http://www.w3.org/2000/svg">
<path d="M20.6352 18.3588L16.9252 14.6788C18.3653 12.8832 19.0627 10.6041 18.874 8.3101C18.6853 6.0161 17.6249 3.88158 15.9107 2.34544C14.1966 0.809304 11.959 -0.0116921 9.65812 0.0512683C7.35724 0.114229 5.16792 1.05636 3.54034 2.68394C1.91276 4.31152 0.970628 6.50084 0.907668 8.80172C0.844707 11.1026 1.6657 13.3402 3.20184 15.0543C4.73798 16.7685 6.8725 17.8289 9.1665 18.0176C11.4605 18.2063 13.7396 17.5089 15.5352 16.0688L19.2152 19.7488C19.3082 19.8425 19.4188 19.9169 19.5406 19.9677C19.6625 20.0185 19.7932 20.0446 19.9252 20.0446C20.0572 20.0446 20.1879 20.0185 20.3098 19.9677C20.4316 19.9169 20.5422 19.8425 20.6352 19.7488C20.8154 19.5623 20.9162 19.3131 20.9162 19.0538C20.9162 18.7945 20.8154 18.5453 20.6352 18.3588ZM9.9252 16.0688C8.54073 16.0688 7.18735 15.6583 6.03621 14.8891C4.88506 14.1199 3.98785 13.0267 3.45804 11.7476C2.92823 10.4685 2.7896 9.06103 3.0597 7.70317C3.3298 6.3453 3.99648 5.09802 4.97545 4.11905C5.95442 3.14008 7.2017 2.4734 8.55957 2.2033C9.91743 1.9332 11.3249 2.07183 12.604 2.60164C13.8831 3.13145 14.9763 4.02866 15.7455 5.17981C16.5147 6.33095 16.9252 7.68433 16.9252 9.0688C16.9252 10.9253 16.1877 12.7058 14.8749 14.0185C13.5622 15.3313 11.7817 16.0688 9.9252 16.0688Z" fill="#003287"/>
</svg>
