<svg width="21" height="20" viewBox="0 0 21 20" fill="none" xmlns="http://www.w3.org/2000/svg">
<path d="M20.5248 18.3109L16.8148 14.6309C18.2549 12.8353 18.9523 10.5562 18.7637 8.2622C18.575 5.9682 17.5145 3.83368 15.8004 2.29754C14.0862 0.761407 11.8487 -0.0595894 9.54777 0.00337096C7.24688 0.0663314 5.05757 1.00846 3.42999 2.63604C1.80241 4.26362 0.860277 6.45294 0.797316 8.75382C0.734356 11.0547 1.55535 13.2923 3.09149 15.0064C4.62763 16.7206 6.76215 17.781 9.05615 17.9697C11.3501 18.1584 13.6293 17.461 15.4248 16.0209L19.1048 19.7009C19.1978 19.7946 19.3084 19.869 19.4303 19.9198C19.5521 19.9706 19.6828 19.9967 19.8148 19.9967C19.9469 19.9967 20.0776 19.9706 20.1994 19.9198C20.3213 19.869 20.4319 19.7946 20.5248 19.7009C20.7051 19.5144 20.8058 19.2652 20.8058 19.0059C20.8058 18.7466 20.7051 18.4974 20.5248 18.3109ZM9.81485 16.0209C8.43038 16.0209 7.077 15.6104 5.92585 14.8412C4.77471 14.072 3.8775 12.9788 3.34769 11.6997C2.81788 10.4206 2.67925 9.01314 2.94935 7.65527C3.21945 6.2974 3.88613 5.05012 4.8651 4.07115C5.84407 3.09219 7.09135 2.4255 8.44921 2.1554C9.80708 1.88531 11.2145 2.02393 12.4936 2.55374C13.7727 3.08356 14.866 3.98076 15.6351 5.13191C16.4043 6.28305 16.8148 7.63643 16.8148 9.0209C16.8148 10.8774 16.0773 12.6579 14.7646 13.9706C13.4518 15.2834 11.6714 16.0209 9.81485 16.0209Z" fill="#003287"/>
</svg>
