<svg width="30" height="30" viewBox="0 0 30 30" fill="none" xmlns="http://www.w3.org/2000/svg">
<path d="M24.3512 13.1875C24.0307 13.1875 23.7233 13.3148 23.4967 13.5415C23.2701 13.7681 23.1428 14.0754 23.1428 14.3959V22.8542C23.1428 23.1747 23.0155 23.482 22.7889 23.7086C22.5623 23.9352 22.255 24.0625 21.9345 24.0625H5.01782C4.69735 24.0625 4.39001 23.9352 4.1634 23.7086C3.93679 23.482 3.80949 23.1747 3.80949 22.8542V13.1875C3.80949 12.8671 3.93679 12.5597 4.1634 12.3331C4.39001 12.1065 4.69735 11.9792 5.01782 11.9792H7.43449C7.69799 11.993 7.95874 11.9201 8.17693 11.7717C8.39512 11.6234 8.55875 11.4076 8.64282 11.1575L9.29532 9.17587C9.37638 8.93587 9.53082 8.72742 9.73681 8.57997C9.9428 8.43253 10.1899 8.35355 10.4432 8.35421H17.1012C17.4216 8.35421 17.729 8.2269 17.9556 8.00029C18.1822 7.77369 18.3095 7.46634 18.3095 7.14587C18.3095 6.8254 18.1822 6.51806 17.9556 6.29145C17.729 6.06485 17.4216 5.93754 17.1012 5.93754H10.3828C9.62344 5.93896 8.88368 6.17882 8.26796 6.62328C7.65223 7.06773 7.19162 7.69432 6.95116 8.41462L6.56449 9.62296H5.01782C4.05641 9.62296 3.13438 10.0049 2.45456 10.6847C1.77474 11.3645 1.39282 12.2865 1.39282 13.248V22.9146C1.39282 23.876 1.77474 24.7981 2.45456 25.4779C3.13438 26.1577 4.05641 26.5396 5.01782 26.5396H21.9345C22.8959 26.5396 23.8179 26.1577 24.4977 25.4779C25.1776 24.7981 25.5595 23.876 25.5595 22.9146V14.4563C25.5677 14.2926 25.5425 14.129 25.4854 13.9753C25.4284 13.8217 25.3407 13.6812 25.2277 13.5625C25.1146 13.4439 24.9786 13.3494 24.828 13.2849C24.6773 13.2205 24.515 13.1873 24.3512 13.1875ZM13.4762 11.9792C12.5202 11.9792 11.5857 12.2627 10.7909 12.7938C9.99606 13.3249 9.37656 14.0797 9.01074 14.9629C8.64491 15.8461 8.5492 16.8179 8.73569 17.7555C8.92219 18.6931 9.38252 19.5543 10.0585 20.2302C10.7344 20.9062 11.5956 21.3665 12.5332 21.553C13.4708 21.7395 14.4426 21.6438 15.3258 21.278C16.209 20.9121 16.9638 20.2926 17.4949 19.4978C18.026 18.703 18.3095 17.7685 18.3095 16.8125C18.3095 15.5307 17.8003 14.3013 16.8938 13.3949C15.9874 12.4884 14.758 11.9792 13.4762 11.9792ZM13.4762 19.2292C12.9982 19.2292 12.5309 19.0875 12.1335 18.8219C11.7361 18.5564 11.4264 18.1789 11.2434 17.7374C11.0605 17.2958 11.0127 16.8099 11.1059 16.3411C11.1992 15.8723 11.4293 15.4417 11.7673 15.1037C12.1053 14.7657 12.5359 14.5356 13.0047 14.4423C13.4735 14.3491 13.9594 14.3969 14.401 14.5798C14.8426 14.7627 15.22 15.0725 15.4855 15.4699C15.7511 15.8673 15.8928 16.3346 15.8928 16.8125C15.8928 17.4535 15.6382 18.0682 15.185 18.5214C14.7318 18.9746 14.1171 19.2292 13.4762 19.2292ZM26.7678 5.93754H25.5595V4.72921C25.5595 4.40874 25.4322 4.10139 25.2056 3.87479C24.979 3.64818 24.6716 3.52087 24.3512 3.52087C24.0307 3.52087 23.7233 3.64818 23.4967 3.87479C23.2701 4.10139 23.1428 4.40874 23.1428 4.72921V5.93754H21.9345C21.614 5.93754 21.3067 6.06485 21.0801 6.29145C20.8535 6.51806 20.7262 6.8254 20.7262 7.14587C20.7262 7.46634 20.8535 7.77369 21.0801 8.00029C21.3067 8.2269 21.614 8.35421 21.9345 8.35421H23.1428V9.56254C23.1428 9.88301 23.2701 10.1904 23.4967 10.417C23.7233 10.6436 24.0307 10.7709 24.3512 10.7709C24.6716 10.7709 24.979 10.6436 25.2056 10.417C25.4322 10.1904 25.5595 9.88301 25.5595 9.56254V8.35421H26.7678C27.0883 8.35421 27.3956 8.2269 27.6222 8.00029C27.8488 7.77369 27.9762 7.46634 27.9762 7.14587C27.9762 6.8254 27.8488 6.51806 27.6222 6.29145C27.3956 6.06485 27.0883 5.93754 26.7678 5.93754Z" fill="#2274FF"/>
</svg>
