<svg width="21" height="21" viewBox="0 0 21 21" fill="none" xmlns="http://www.w3.org/2000/svg">
<path d="M15.5851 10.5218C15.5857 10.3898 15.5601 10.259 15.5098 10.1369C15.4595 10.0148 15.3856 9.90393 15.2922 9.81058C15.1989 9.71724 15.088 9.64329 14.9659 9.59303C14.8438 9.54276 14.713 9.51716 14.581 9.5177L11.3354 9.52477L11.3425 6.27915C11.3425 6.01285 11.2367 5.75745 11.0484 5.56915C10.8601 5.38084 10.6047 5.27506 10.3384 5.27506C10.0721 5.27506 9.81668 5.38084 9.62838 5.56915C9.44008 5.75745 9.33429 6.01285 9.33429 6.27915L9.34136 9.52477L6.09574 9.5177C5.96373 9.51716 5.83292 9.54276 5.71085 9.59303C5.58878 9.64329 5.47788 9.71724 5.38453 9.81058C5.29119 9.90393 5.21724 10.0148 5.16698 10.1369C5.11671 10.259 5.09111 10.3898 5.09165 10.5218C5.09111 10.6538 5.11671 10.7846 5.16698 10.9067C5.21724 11.0287 5.29118 11.1396 5.38453 11.233C5.47788 11.3263 5.58878 11.4003 5.71085 11.4506C5.83292 11.5008 5.96373 11.5264 6.09574 11.5259L9.34136 11.5188L9.33429 14.7644C9.33375 14.8964 9.35935 15.0273 9.40962 15.1493C9.45989 15.2714 9.53383 15.3823 9.62717 15.4756C9.72052 15.569 9.83142 15.6429 9.95349 15.6932C10.0756 15.7435 10.2064 15.7691 10.3384 15.7685C10.4704 15.7691 10.6012 15.7435 10.7233 15.6932C10.8453 15.6429 10.9562 15.569 11.0496 15.4756C11.1429 15.3823 11.2169 15.2714 11.2671 15.1493C11.3174 15.0273 11.343 14.8964 11.3425 14.7644L11.3354 11.5188L14.581 11.5259C14.713 11.5264 14.8438 11.5008 14.9659 11.4506C15.088 11.4003 15.1989 11.3263 15.2922 11.233C15.3856 11.1396 15.4595 11.0287 15.5098 10.9067C15.56 10.7846 15.5857 10.6538 15.5851 10.5218ZM20.3369 10.5218C20.3599 9.19415 20.1184 7.8752 19.6263 6.64192C19.1342 5.40863 18.4014 4.2857 17.4706 3.33865C16.5399 2.3916 15.4299 1.63939 14.2053 1.12593C12.9808 0.612457 11.6662 0.348007 10.3384 0.348007C9.01054 0.348007 7.69599 0.612457 6.47144 1.12593C5.24689 1.63939 4.13687 2.3916 3.20613 3.33865C2.2754 4.2857 1.5426 5.40863 1.05049 6.64192C0.558379 7.8752 0.316813 9.19415 0.339889 10.5218C0.316813 11.8494 0.558378 13.1684 1.05049 14.4017C1.5426 15.6349 2.2754 16.7579 3.20613 17.7049C4.13687 18.652 5.24689 19.4042 6.47144 19.9177C7.69599 20.4311 9.01054 20.6956 10.3384 20.6956C11.6662 20.6956 12.9808 20.4311 14.2053 19.9177C15.4299 19.4042 16.5399 18.652 17.4706 17.7049C18.4014 16.7579 19.1342 15.6349 19.6263 14.4017C20.1184 13.1684 20.3599 11.8494 20.3369 10.5218ZM10.3384 18.5262C8.48762 18.5273 6.69375 17.8866 5.2624 16.7133C3.83106 15.54 2.85079 13.9068 2.48861 12.0918C2.12643 10.2768 2.40475 8.39238 3.27614 6.7596C4.14754 5.12681 5.5581 3.84666 7.26751 3.13726C8.97691 2.42785 10.8794 2.33308 12.6509 2.86909C14.4223 3.4051 15.9531 4.53873 16.9824 6.07683C18.0118 7.61493 18.476 9.46236 18.296 11.3043C18.116 13.1463 17.3029 14.8689 15.9952 16.1786C15.2544 16.9245 14.373 17.5161 13.402 17.9191C12.431 18.322 11.3897 18.5284 10.3384 18.5262Z" fill="#2274FF"/>
</svg>
