<svg width="17" height="15" viewBox="0 0 17 15" fill="none" xmlns="http://www.w3.org/2000/svg">
<path d="M5.36606 6.7497C5.20805 6.7497 5.0536 6.79369 4.92222 6.87609C4.79085 6.9585 4.68846 7.07563 4.62799 7.21267C4.56753 7.34971 4.55171 7.5005 4.58253 7.64598C4.61336 7.79146 4.68944 7.92509 4.80117 8.02997C4.91289 8.13486 5.05524 8.20629 5.2102 8.23522C5.36517 8.26416 5.5258 8.24931 5.67177 8.19255C5.81775 8.13578 5.94251 8.03966 6.03029 7.91633C6.11808 7.793 6.16493 7.648 6.16493 7.49967C6.16493 7.30076 6.08076 7.11001 5.93094 6.96936C5.78113 6.82872 5.57793 6.7497 5.36606 6.7497ZM8.56155 6.7497C8.40355 6.7497 8.2491 6.79369 8.11772 6.87609C7.98635 6.9585 7.88395 7.07563 7.82349 7.21267C7.76302 7.34971 7.7472 7.5005 7.77803 7.64598C7.80885 7.79146 7.88494 7.92509 7.99666 8.02997C8.10839 8.13486 8.25073 8.20629 8.4057 8.23522C8.56067 8.26416 8.72129 8.24931 8.86727 8.19255C9.01324 8.13578 9.13801 8.03966 9.22579 7.91633C9.31357 7.793 9.36043 7.648 9.36043 7.49967C9.36043 7.30076 9.27626 7.11001 9.12644 6.96936C8.97662 6.82872 8.77343 6.7497 8.56155 6.7497ZM11.757 6.7497C11.599 6.7497 11.4446 6.79369 11.3132 6.87609C11.1818 6.9585 11.0794 7.07563 11.019 7.21267C10.9585 7.34971 10.9427 7.5005 10.9735 7.64598C11.0043 7.79146 11.0804 7.92509 11.1922 8.02997C11.3039 8.13486 11.4462 8.20629 11.6012 8.23522C11.7562 8.26416 11.9168 8.24931 12.0628 8.19255C12.2087 8.13578 12.3335 8.03966 12.4213 7.91633C12.5091 7.793 12.5559 7.648 12.5559 7.49967C12.5559 7.30076 12.4718 7.11001 12.3219 6.96936C12.1721 6.82872 11.9689 6.7497 11.757 6.7497ZM8.56155 0C7.51246 0 6.47363 0.193985 5.50439 0.570878C4.53515 0.947772 3.65448 1.50019 2.91266 2.1966C1.41448 3.60306 0.57281 5.51063 0.57281 7.49967C0.565826 9.23144 1.20455 10.9109 2.37827 12.247L0.780518 13.7469C0.669668 13.8524 0.594577 13.9863 0.564719 14.1318C0.534862 14.2772 0.551577 14.4278 0.612754 14.5644C0.679107 14.6993 0.786672 14.8127 0.921796 14.8901C1.05692 14.9676 1.21351 15.0056 1.37168 14.9993H8.56155C10.6803 14.9993 12.7123 14.2092 14.2104 12.8027C15.7086 11.3963 16.5503 9.4887 16.5503 7.49967C16.5503 5.51063 15.7086 3.60306 14.2104 2.1966C12.7123 0.790141 10.6803 0 8.56155 0ZM8.56155 13.4994H3.29697L4.03992 12.8019C4.18872 12.6614 4.27223 12.4713 4.27223 12.2732C4.27223 12.0751 4.18872 11.885 4.03992 11.7445C2.99387 10.7636 2.34246 9.47248 2.19667 8.09124C2.05089 6.70999 2.41976 5.32402 3.24043 4.16946C4.0611 3.0149 5.2828 2.16317 6.69739 1.7594C8.11198 1.35563 9.63193 1.42479 10.9983 1.9551C12.3647 2.48541 13.4929 3.44405 14.1908 4.66771C14.8887 5.89137 15.113 7.30433 14.8256 8.66587C14.5382 10.0274 13.7569 11.2533 12.6147 12.1346C11.4725 13.016 10.0401 13.4983 8.56155 13.4994Z" fill="#2274FF"/>
</svg>
