<svg width="17" height="17" viewBox="0 0 17 17" fill="none" xmlns="http://www.w3.org/2000/svg">
<path d="M16.1606 15.4187L13.1944 12.32C14.3458 10.808 14.9033 8.88885 14.7525 6.95719C14.6016 5.02553 13.7538 3.22816 12.3833 1.93465C11.0128 0.641143 9.22377 -0.0501773 7.38415 0.00283852C5.54454 0.0558544 3.79413 0.849177 2.49283 2.21968C1.19154 3.59019 0.438287 5.4337 0.387949 7.37116C0.337611 9.30863 0.994017 11.1928 2.2222 12.6362C3.45038 14.0796 5.15698 14.9725 6.99109 15.1314C8.8252 15.2903 10.6474 14.703 12.083 13.4904L15.0253 16.5892C15.0996 16.6681 15.188 16.7307 15.2855 16.7735C15.3829 16.8162 15.4874 16.8382 15.5929 16.8382C15.6985 16.8382 15.803 16.8162 15.9004 16.7735C15.9978 16.7307 16.0863 16.6681 16.1606 16.5892C16.3047 16.4321 16.3853 16.2223 16.3853 16.0039C16.3853 15.7856 16.3047 15.5757 16.1606 15.4187ZM7.59769 13.4904C6.49077 13.4904 5.40871 13.1447 4.48834 12.497C3.56797 11.8494 2.85063 10.9288 2.42703 9.85173C2.00344 8.77468 1.8926 7.58952 2.10855 6.44613C2.3245 5.30273 2.85753 4.25246 3.64024 3.42812C4.42295 2.60378 5.42018 2.04239 6.50583 1.81496C7.59148 1.58752 8.71678 1.70425 9.73944 2.15038C10.7621 2.59651 11.6362 3.35201 12.2512 4.32133C12.8661 5.29065 13.1944 6.43026 13.1944 7.59606C13.1944 9.15934 12.6047 10.6586 11.5551 11.764C10.5056 12.8694 9.08202 13.4904 7.59769 13.4904Z" fill="white"/>
</svg>
