<svg width="19" height="21" viewBox="0 0 19 21" fill="none" xmlns="http://www.w3.org/2000/svg">
<path d="M17.6219 6.66748L11.5408 1.40749C10.9834 0.915532 10.2617 0.643555 9.51381 0.643555C8.7659 0.643555 8.04423 0.915532 7.48678 1.40749L1.4057 6.66748C1.08378 6.95156 0.826882 7.30004 0.652124 7.68973C0.477365 8.07942 0.388753 8.50137 0.392186 8.92748V17.6675C0.392186 18.4631 0.712528 19.2262 1.28274 19.7888C1.85295 20.3514 2.62632 20.6675 3.43273 20.6675H15.5949C16.4013 20.6675 17.1747 20.3514 17.7449 19.7888C18.3151 19.2262 18.6354 18.4631 18.6354 17.6675V8.91748C18.6374 8.49305 18.5481 8.07302 18.3734 7.68517C18.1987 7.29731 17.9426 6.95044 17.6219 6.66748ZM11.5408 18.6675H7.48678V13.6675C7.48678 13.4023 7.59356 13.1479 7.78363 12.9604C7.9737 12.7728 8.23149 12.6675 8.50029 12.6675H10.5273C10.7961 12.6675 11.0539 12.7728 11.244 12.9604C11.4341 13.1479 11.5408 13.4023 11.5408 13.6675V18.6675ZM16.6084 17.6675C16.6084 17.9327 16.5016 18.1871 16.3115 18.3746C16.1215 18.5621 15.8637 18.6675 15.5949 18.6675H13.5679V13.6675C13.5679 12.8718 13.2475 12.1088 12.6773 11.5462C12.1071 10.9836 11.3337 10.6675 10.5273 10.6675H8.50029C7.69389 10.6675 6.92052 10.9836 6.35031 11.5462C5.78009 12.1088 5.45975 12.8718 5.45975 13.6675V18.6675H3.43273C3.16393 18.6675 2.90613 18.5621 2.71606 18.3746C2.52599 18.1871 2.41921 17.9327 2.41921 17.6675V8.91748C2.41939 8.7755 2.45022 8.63518 2.50964 8.50586C2.56905 8.37655 2.6557 8.26119 2.76381 8.16748L8.84489 2.91749C9.02984 2.75717 9.26762 2.66875 9.51381 2.66875C9.76 2.66875 9.99777 2.75717 10.1827 2.91749L16.2638 8.16748C16.3719 8.26119 16.4586 8.37655 16.518 8.50586C16.5774 8.63518 16.6082 8.7755 16.6084 8.91748V17.6675Z" fill="white"/>
</svg>
