<svg width="17" height="22" viewBox="0 0 17 22" fill="none" xmlns="http://www.w3.org/2000/svg">
<path d="M8.40057 0.000998728C12.3744 0.0414218 15.7171 2.81968 16.5627 6.75689C16.9579 8.59637 16.6697 10.335 15.9112 12.0285C15.0899 13.8618 13.9999 15.5292 12.7529 17.09C11.6563 18.4629 10.4954 19.7845 9.3479 21.1166C8.83429 21.713 7.98112 21.7391 7.45895 21.1708C5.49011 19.0289 3.60734 16.817 2.07174 14.3336C1.26185 13.0244 0.559444 11.6619 0.204672 10.151C-0.228568 8.30485 0.0439308 6.52576 0.852393 4.83845C1.95761 2.53196 3.74906 0.999211 6.2201 0.288716C6.93155 0.0832716 7.65964 -0.0108904 8.40057 0.000998728ZM8.37061 19.9267C8.47048 19.8202 8.54419 19.7489 8.60982 19.6709C9.599 18.4953 10.6148 17.3411 11.5683 16.1369C12.6602 14.7578 13.6394 13.2978 14.3879 11.6971C14.8535 10.7022 15.2287 9.67686 15.2235 8.56023C15.2159 6.92476 14.7346 5.43434 13.7069 4.15697C12.0781 2.13296 9.94806 1.23509 7.37287 1.60508C5.20382 1.91658 3.5693 3.11167 2.48216 5.0068C1.63565 6.48248 1.30846 8.0742 1.6794 9.76199C1.93668 10.9324 2.46504 11.9962 3.06472 13.0234C4.14616 14.8767 5.45872 16.5626 6.8488 18.19C7.34149 18.7673 7.84891 19.3323 8.37061 19.9267Z" fill="white"/>
<path d="M8.3711 12.6724C5.99185 12.6667 4.06343 10.7407 4.06152 8.369C4.05962 5.97834 6.00469 4.04849 8.4101 4.05372C10.7722 4.05895 12.7102 6.01686 12.6959 8.38375C12.6816 10.7601 10.7475 12.6781 8.3711 12.6724ZM8.36492 11.1482C9.91526 11.1496 11.1589 9.9165 11.1708 8.36663C11.1822 6.85195 9.91289 5.57791 8.39203 5.57648C6.84834 5.57506 5.59047 6.82532 5.58714 8.36377C5.58381 9.89129 6.83598 11.1463 8.36492 11.1482Z" fill="white"/>
</svg>
