<svg width="16" height="16" viewBox="0 0 16 16" fill="none" xmlns="http://www.w3.org/2000/svg">
<path d="M6.1753 6.80183H8.0503C8.24921 6.80183 8.43997 6.71756 8.58063 6.56756C8.72128 6.41756 8.8003 6.21412 8.8003 6.00199C8.8003 5.78986 8.72128 5.58641 8.58063 5.43641C8.43997 5.28641 8.24921 5.20215 8.0503 5.20215H7.3003V4.80223C7.3003 4.59009 7.22128 4.38665 7.08063 4.23665C6.93997 4.08665 6.74921 4.00238 6.5503 4.00238C6.35138 4.00238 6.16062 4.08665 6.01997 4.23665C5.87931 4.38665 5.8003 4.59009 5.8003 4.80223V5.24214C5.34461 5.34082 4.93957 5.61654 4.66379 6.01579C4.38801 6.41505 4.26118 6.90934 4.30791 7.40271C4.35464 7.89608 4.5716 8.35333 4.91667 8.6857C5.26175 9.01807 5.71032 9.20185 6.1753 9.20135H6.9253C7.02475 9.20135 7.12014 9.24349 7.19046 9.31849C7.26079 9.39349 7.3003 9.49521 7.3003 9.60127C7.3003 9.70734 7.26079 9.80906 7.19046 9.88406C7.12014 9.95906 7.02475 10.0012 6.9253 10.0012H5.0503C4.85139 10.0012 4.66062 10.0855 4.51997 10.2355C4.37932 10.3855 4.3003 10.5889 4.3003 10.801C4.3003 11.0132 4.37932 11.2166 4.51997 11.3666C4.66062 11.5166 4.85139 11.6009 5.0503 11.6009H5.8003V12.0008C5.8003 12.2129 5.87931 12.4164 6.01997 12.5664C6.16062 12.7164 6.35138 12.8006 6.5503 12.8006C6.74921 12.8006 6.93997 12.7164 7.08063 12.5664C7.22128 12.4164 7.3003 12.2129 7.3003 12.0008V11.5609C7.75598 11.4622 8.16102 11.1865 8.4368 10.7872C8.71258 10.388 8.83942 9.89369 8.79269 9.40031C8.74596 8.90694 8.529 8.44969 8.18392 8.11732C7.83885 7.78495 7.39028 7.60117 6.9253 7.60167H6.1753C6.07584 7.60167 5.98046 7.55954 5.91013 7.48454C5.83981 7.40954 5.8003 7.30781 5.8003 7.20175C5.8003 7.09568 5.83981 6.99396 5.91013 6.91896C5.98046 6.84396 6.07584 6.80183 6.1753 6.80183ZM14.8003 8.00159H12.5503V0.80302C12.5508 0.66208 12.5164 0.523495 12.4506 0.401297C12.3847 0.279099 12.2897 0.177628 12.1753 0.107158C12.0613 0.0369577 11.9319 0 11.8003 0C11.6686 0 11.5393 0.0369577 11.4253 0.107158L9.17529 1.48288L6.9253 0.107158C6.81128 0.0369577 6.68195 0 6.5503 0C6.41864 0 6.28931 0.0369577 6.1753 0.107158L3.9253 1.48288L1.6753 0.107158C1.56128 0.0369577 1.43195 0 1.3003 0C1.16865 0 1.03931 0.0369577 0.925299 0.107158C0.810846 0.177628 0.715885 0.279099 0.650032 0.401297C0.58418 0.523495 0.549774 0.66208 0.550299 0.80302V13.6005C0.550299 14.2369 0.787352 14.8472 1.20931 15.2972C1.63127 15.7472 2.20356 16 2.8003 16H13.3003C13.897 16 14.4693 15.7472 14.8913 15.2972C15.3132 14.8472 15.5503 14.2369 15.5503 13.6005V8.80143C15.5503 8.5893 15.4713 8.38586 15.3306 8.23586C15.19 8.08586 14.9992 8.00159 14.8003 8.00159ZM2.8003 14.4003C2.60139 14.4003 2.41062 14.316 2.26997 14.1661C2.12932 14.0161 2.0503 13.8126 2.0503 13.6005V2.18674L3.5503 3.09856C3.66605 3.16304 3.79471 3.19671 3.9253 3.19671C4.05589 3.19671 4.18454 3.16304 4.3003 3.09856L6.5503 1.72284L8.8003 3.09856C8.91605 3.16304 9.0447 3.19671 9.17529 3.19671C9.30589 3.19671 9.43454 3.16304 9.55029 3.09856L11.0503 2.18674V13.6005C11.0523 13.8733 11.098 14.1438 11.1853 14.4003H2.8003ZM14.0503 13.6005C14.0503 13.8126 13.9713 14.0161 13.8306 14.1661C13.69 14.316 13.4992 14.4003 13.3003 14.4003C13.1014 14.4003 12.9106 14.316 12.77 14.1661C12.6293 14.0161 12.5503 13.8126 12.5503 13.6005V9.60127H14.0503V13.6005Z" fill="#2274FF"/>
</svg>
