<svg width="23" height="27" viewBox="0 0 23 27" fill="none" xmlns="http://www.w3.org/2000/svg">
<path d="M11.3013 11.8882C11.8452 11.8882 12.3769 11.7318 12.8291 11.4388C13.2813 11.1458 13.6338 10.7293 13.8419 10.2421C14.0501 9.75479 14.1045 9.21861 13.9984 8.70133C13.8923 8.18405 13.6304 7.70889 13.2458 7.33595C12.8612 6.96301 12.3712 6.70904 11.8378 6.60614C11.3043 6.50325 10.7514 6.55606 10.2489 6.75789C9.74639 6.95972 9.3169 7.30152 9.01473 7.74005C8.71255 8.17858 8.55127 8.69415 8.55127 9.22157C8.55127 9.92881 8.841 10.6071 9.35673 11.1072C9.87245 11.6073 10.5719 11.8882 11.3013 11.8882ZM10.325 21.1016C10.4528 21.2265 10.6049 21.3257 10.7725 21.3934C10.94 21.4611 11.1198 21.496 11.3013 21.496C11.4828 21.496 11.6625 21.4611 11.8301 21.3934C11.9976 21.3257 12.1497 21.2265 12.2775 21.1016L17.9013 15.6349C19.2075 14.369 20.0971 12.7558 20.4578 10.9995C20.8184 9.24321 20.6338 7.42264 19.9273 5.76809C19.2208 4.11353 18.0242 2.69932 16.4887 1.70431C14.9533 0.709311 13.148 0.178223 11.3013 0.178223C9.45452 0.178223 7.64926 0.709311 6.11382 1.70431C4.57838 2.69932 3.38173 4.11353 2.67523 5.76809C1.96874 7.42264 1.78413 9.24321 2.14477 10.9995C2.50541 12.7558 3.39508 14.369 4.70127 15.6349L10.325 21.1016ZM4.74252 8.60824C4.83647 7.65759 5.14817 6.73929 5.65486 5.92039C6.16156 5.10148 6.85046 4.40265 7.67127 3.8749C8.74955 3.18837 10.0113 2.82258 11.3013 2.82258C12.5912 2.82258 13.853 3.18837 14.9313 3.8749C15.7466 4.40084 16.4316 5.09544 16.937 5.90875C17.4424 6.72206 17.7557 7.63388 17.8543 8.57862C17.9529 9.52336 17.8344 10.4776 17.5073 11.3726C17.1802 12.2676 16.6526 13.0812 15.9625 13.7549L11.3013 18.2749L6.64002 13.7549C5.94911 13.0877 5.42029 12.2796 5.09205 11.3893C4.76381 10.499 4.6444 9.54893 4.74252 8.60824ZM20.9263 24.1549H1.67627C1.3116 24.1549 0.96186 24.2954 0.703998 24.5454C0.446135 24.7955 0.30127 25.1346 0.30127 25.4882C0.30127 25.8419 0.446135 26.181 0.703998 26.431C0.96186 26.6811 1.3116 26.8216 1.67627 26.8216H20.9263C21.2909 26.8216 21.6407 26.6811 21.8985 26.431C22.1564 26.181 22.3013 25.8419 22.3013 25.4882C22.3013 25.1346 22.1564 24.7955 21.8985 24.5454C21.6407 24.2954 21.2909 24.1549 20.9263 24.1549Z" fill="#2274FF"/>
</svg>
