<svg width="16" height="9" viewBox="0 0 16 9" fill="none" xmlns="http://www.w3.org/2000/svg">
<g clip-path="url(#clip0_603_930)">
<path d="M0 4.50123C1.33631 3.19518 2.66084 1.92595 4.28931 1.021C6.72826 -0.334484 9.19183 -0.316252 11.6608 0.938258C12.981 1.60899 14.0862 2.55636 15.1096 3.6012C15.41 3.90799 15.7007 4.22425 16.0004 4.5412C14.7529 5.76591 13.5172 6.97694 11.9889 7.83806C9.01953 9.51191 6.12254 9.37411 3.31544 7.45589C2.42326 6.84651 1.64773 6.10215 0.877553 5.35393C0.590029 5.07484 0.303219 4.7961 0 4.50123ZM11.2002 4.50509C11.2084 2.7492 9.77794 1.30781 8.01855 1.29869C6.24882 1.28958 4.8112 2.71554 4.80264 4.48791C4.79408 6.2431 6.22492 7.68554 7.9843 7.69466C9.75261 7.70412 11.1917 6.27711 11.2002 4.50509Z" fill="#2274FF"/>
<path d="M8.24486 2.65949C7.90383 3.18296 7.89241 3.69521 8.33618 4.16224C8.7054 4.55072 9.17699 4.57947 9.83801 4.28881C9.98249 4.9648 9.56226 5.77718 8.87805 6.14393C8.15996 6.5289 7.2767 6.40058 6.6938 5.82627C6.09664 5.23828 5.96287 4.32633 6.36633 3.59459C6.74054 2.91614 7.5446 2.51258 8.24486 2.65949Z" fill="#2274FF"/>
</g>
<defs>
<clipPath id="clip0_603_930">
<rect width="16" height="9" fill="white"/>
</clipPath>
</defs>
</svg>
