<svg width="19" height="15" viewBox="0 0 19 15" fill="none" xmlns="http://www.w3.org/2000/svg">
<path d="M10.5062 10.8091C9.64585 10.8091 8.80816 10.8091 7.95034 10.8091C7.95034 10.8824 7.95034 10.946 7.95034 11.0088C7.95034 12.0769 7.95034 13.1441 7.95034 14.2122C7.95034 14.5215 7.87906 14.5907 7.56377 14.5907C6.01584 14.5907 4.4679 14.5907 2.92081 14.5907C2.61055 14.5907 2.54095 14.5239 2.54095 14.2275C2.54095 11.9085 2.54179 9.59041 2.5376 7.27147C2.5376 7.1144 2.59378 7.0113 2.71872 6.91143C4.80416 5.24331 6.8854 3.57035 8.96748 1.89901C9.18969 1.721 9.26935 1.72261 9.49408 1.90304C11.5485 3.55102 13.6012 5.20142 15.6607 6.84377C15.8477 6.99278 15.929 7.14582 15.9282 7.38343C15.9189 9.64921 15.9231 11.9142 15.9231 14.18C15.9231 14.5303 15.8602 14.5907 15.4946 14.5907C13.9593 14.5907 12.4239 14.5907 10.8886 14.5907C10.5859 14.5907 10.5079 14.5158 10.5079 14.2259C10.5079 13.1699 10.5079 12.1139 10.5079 11.058C10.5062 10.9806 10.5062 10.9049 10.5062 10.8091Z" fill="white"/>
<path d="M2.99556 1.643C3.74605 1.643 4.46215 1.643 5.19503 1.643C5.19503 2.11823 5.19503 2.58137 5.19503 3.09123C5.27805 3.03002 5.3292 2.99458 5.37699 2.95672C6.47212 2.07393 7.56725 1.18953 8.66405 0.308344C8.76719 0.225381 8.88374 0.158527 8.99359 0.082008C9.15375 -0.0299519 9.31056 -0.0275355 9.46653 0.0908682C9.87573 0.401778 10.2984 0.697385 10.6916 1.02521C13.0814 3.0131 15.4646 5.00824 17.846 7.005C17.9374 7.08152 18.0204 7.19348 18.0523 7.30382C18.1009 7.47217 18.0187 7.61635 17.8586 7.70656C17.7051 7.79355 17.5223 7.7718 17.3647 7.64212C16.8381 7.20878 16.314 6.77302 15.7882 6.33807C13.6584 4.5749 11.5285 2.81174 9.3986 1.04937C9.34745 1.00749 9.29546 0.966411 9.23006 0.914861C9.13447 0.990575 9.03971 1.06226 8.94831 1.13798C6.35389 3.28616 3.75946 5.43514 1.1642 7.58171C1.08705 7.64615 0.999007 7.71059 0.904253 7.74039C0.719775 7.79919 0.523558 7.70897 0.435512 7.54788C0.352497 7.39484 0.389393 7.19428 0.538652 7.06541C0.884966 6.76497 1.23631 6.47017 1.58514 6.17295C2.01699 5.80485 2.44548 5.43434 2.88235 5.07188C2.9813 4.98972 3.01568 4.90434 3.01484 4.78271C3.00562 3.80407 3.00143 2.82462 2.9964 1.84518C2.99472 1.78074 2.99556 1.71791 2.99556 1.643Z" fill="white"/>
</svg>
