<svg width="22" height="22" viewBox="0 0 22 22" fill="none" xmlns="http://www.w3.org/2000/svg">
<path d="M13.2294 9.18689C12.6617 8.30633 11.919 7.15447 11 5.58594C10.081 7.15447 9.33831 8.30693 8.77057 9.18749C7.57844 11.038 7.13281 11.7304 7.13281 12.9339C7.13281 15.0663 8.8675 16.801 11 16.801C13.1325 16.801 14.8672 15.0663 14.8672 12.9339C14.8672 11.7279 14.4216 11.0361 13.2294 9.18689Z" fill="#19CE74"/>
<path d="M11 0C4.95877 0 0 4.95816 0 11C0 17.0418 4.95877 22 11 22C17.0412 22 22 17.0418 22 11C22 4.95816 17.0412 0 11 0ZM11 18.0898C8.15624 18.0898 5.84375 15.7767 5.84375 12.9336C5.84375 11.3506 6.42155 10.4543 7.68797 8.48921C8.35768 7.44876 9.27536 6.02439 10.4398 3.97813C10.6689 3.57655 11.3311 3.57655 11.5602 3.97813C12.7246 6.02439 13.6423 7.44816 14.3133 8.48796C15.5784 10.4518 16.1562 11.3487 16.1562 12.9336C16.1562 15.7767 13.8438 18.0898 11 18.0898Z" fill="#19CE74"/>
</svg>
