<svg width="22" height="21" viewBox="0 0 22 21" fill="none" xmlns="http://www.w3.org/2000/svg">
<path d="M20.9012 2.70984H19.8036V1.61224C19.8036 1.32114 19.6879 1.04197 19.4821 0.836126C19.2763 0.630288 18.9971 0.514648 18.706 0.514648C18.4149 0.514648 18.1357 0.630288 17.9299 0.836126C17.724 1.04197 17.6084 1.32114 17.6084 1.61224V2.70984H4.43725V1.61224C4.43725 1.32114 4.32162 1.04197 4.11578 0.836126C3.90994 0.630288 3.63076 0.514648 3.33966 0.514648C3.04856 0.514648 2.76938 0.630288 2.56354 0.836126C2.3577 1.04197 2.24206 1.32114 2.24206 1.61224V2.70984H1.14447C0.85337 2.70984 0.574192 2.82548 0.368353 3.03132C0.162514 3.23716 0.046875 3.51633 0.046875 3.80743V10.393C0.046875 10.6841 0.162514 10.9633 0.368353 11.1691C0.574192 11.375 0.85337 11.4906 1.14447 11.4906H2.24206V19.1738C2.24206 19.4649 2.3577 19.744 2.56354 19.9499C2.76938 20.1557 3.04856 20.2714 3.33966 20.2714C3.63076 20.2714 3.90994 20.1557 4.11578 19.9499C4.32162 19.744 4.43725 19.4649 4.43725 19.1738V11.4906H17.6084V19.1738C17.6084 19.4649 17.724 19.744 17.9299 19.9499C18.1357 20.1557 18.4149 20.2714 18.706 20.2714C18.9971 20.2714 19.2763 20.1557 19.4821 19.9499C19.6879 19.744 19.8036 19.4649 19.8036 19.1738V11.4906H20.9012C21.1923 11.4906 21.4715 11.375 21.6773 11.1691C21.8831 10.9633 21.9988 10.6841 21.9988 10.393V3.80743C21.9988 3.51633 21.8831 3.23716 21.6773 3.03132C21.4715 2.82548 21.1923 2.70984 20.9012 2.70984ZM2.24206 7.67097V4.90503H5.008L2.24206 7.67097ZM3.71284 9.29541L8.10322 4.90503H11.7582L7.36783 9.29541H3.71284ZM10.4631 9.29541L14.8534 4.90503H18.3438L13.9534 9.29541H10.4631ZM19.8036 9.29541H17.0486L19.8036 6.54044V9.29541Z" fill="white"/>
</svg>
