<svg width="20" height="24" viewBox="0 0 20 24" fill="none" xmlns="http://www.w3.org/2000/svg">
<path d="M10.9517 14.3333H6.28499C5.97557 14.3333 5.67883 14.4562 5.46004 14.675C5.24124 14.8938 5.11833 15.1906 5.11833 15.5C5.11833 15.8094 5.24124 16.1061 5.46004 16.3249C5.67883 16.5437 5.97557 16.6666 6.28499 16.6666H10.9517C11.2611 16.6666 11.5578 16.5437 11.7766 16.3249C11.9954 16.1061 12.1183 15.8094 12.1183 15.5C12.1183 15.1906 11.9954 14.8938 11.7766 14.675C11.5578 14.4562 11.2611 14.3333 10.9517 14.3333ZM15.6183 2.66665H14.2417C14.001 1.98584 13.5556 1.39614 12.9666 0.978408C12.3776 0.560671 11.6738 0.335342 10.9517 0.333313H8.61833C7.89622 0.335342 7.19243 0.560671 6.60342 0.978408C6.01441 1.39614 5.56903 1.98584 5.32833 2.66665H3.95166C3.0234 2.66665 2.13316 3.0354 1.47679 3.69177C0.820409 4.34815 0.45166 5.23839 0.45166 6.16665V20.1666C0.45166 21.0949 0.820409 21.9851 1.47679 22.6415C2.13316 23.2979 3.0234 23.6666 3.95166 23.6666H15.6183C16.5466 23.6666 17.4368 23.2979 18.0932 22.6415C18.7496 21.9851 19.1183 21.0949 19.1183 20.1666V6.16665C19.1183 5.23839 18.7496 4.34815 18.0932 3.69177C17.4368 3.0354 16.5466 2.66665 15.6183 2.66665ZM7.45166 3.83331C7.45166 3.52389 7.57458 3.22715 7.79337 3.00836C8.01216 2.78956 8.30891 2.66665 8.61833 2.66665H10.9517C11.2611 2.66665 11.5578 2.78956 11.7766 3.00836C11.9954 3.22715 12.1183 3.52389 12.1183 3.83331V4.99998H7.45166V3.83331ZM16.785 20.1666C16.785 20.4761 16.6621 20.7728 16.4433 20.9916C16.2245 21.2104 15.9277 21.3333 15.6183 21.3333H3.95166C3.64224 21.3333 3.34549 21.2104 3.1267 20.9916C2.90791 20.7728 2.78499 20.4761 2.78499 20.1666V6.16665C2.78499 5.85723 2.90791 5.56048 3.1267 5.34169C3.34549 5.1229 3.64224 4.99998 3.95166 4.99998H5.11833V6.16665C5.11833 6.47607 5.24124 6.77281 5.46004 6.9916C5.67883 7.2104 5.97557 7.33331 6.28499 7.33331H13.285C13.5944 7.33331 13.8912 7.2104 14.1099 6.9916C14.3287 6.77281 14.4517 6.47607 14.4517 6.16665V4.99998H15.6183C15.9277 4.99998 16.2245 5.1229 16.4433 5.34169C16.6621 5.56048 16.785 5.85723 16.785 6.16665V20.1666ZM13.285 9.66665H6.28499C5.97557 9.66665 5.67883 9.78956 5.46004 10.0084C5.24124 10.2271 5.11833 10.5239 5.11833 10.8333C5.11833 11.1427 5.24124 11.4395 5.46004 11.6583C5.67883 11.8771 5.97557 12 6.28499 12H13.285C13.5944 12 13.8912 11.8771 14.1099 11.6583C14.3287 11.4395 14.4517 11.1427 14.4517 10.8333C14.4517 10.5239 14.3287 10.2271 14.1099 10.0084C13.8912 9.78956 13.5944 9.66665 13.285 9.66665Z" fill="#2274FF"/>
</svg>
