<svg width="26" height="26" viewBox="0 0 26 26" fill="none" xmlns="http://www.w3.org/2000/svg">
<path d="M24.7186 10.8847L13.8436 1.21803C13.623 1.02432 13.3396 0.91748 13.0461 0.91748C12.7525 0.91748 12.4691 1.02432 12.2486 1.21803L1.37355 10.8847C1.18872 11.0482 1.05838 11.2644 1.00006 11.5042C0.941731 11.7439 0.958219 11.9958 1.0473 12.226C1.13493 12.453 1.2891 12.6484 1.48961 12.7864C1.69013 12.9244 1.92764 12.9986 2.17105 12.9993H3.37939V23.8743C3.37939 24.1948 3.50669 24.5021 3.7333 24.7287C3.95991 24.9553 4.26725 25.0826 4.58772 25.0826H21.5044C21.8249 25.0826 22.1322 24.9553 22.3588 24.7287C22.5854 24.5021 22.7127 24.1948 22.7127 23.8743V12.9993H23.9211C24.1645 12.9986 24.402 12.9244 24.6025 12.7864C24.803 12.6484 24.9572 12.453 25.0448 12.226C25.1339 11.9958 25.1504 11.7439 25.092 11.5042C25.0337 11.2644 24.9034 11.0482 24.7186 10.8847ZM14.2544 22.666H11.8377V19.041C11.8377 18.7205 11.965 18.4131 12.1916 18.1865C12.4182 17.9599 12.7256 17.8326 13.0461 17.8326C13.3665 17.8326 13.6739 17.9599 13.9005 18.1865C14.1271 18.4131 14.2544 18.7205 14.2544 19.041V22.666ZM20.2961 22.666H16.6711V19.041C16.6711 18.0795 16.2891 17.1575 15.6093 16.4777C14.9295 15.7979 14.0075 15.416 13.0461 15.416C12.0846 15.416 11.1626 15.7979 10.4828 16.4777C9.80297 17.1575 9.42105 18.0795 9.42105 19.041V22.666H5.79605V12.9993H20.2961V22.666ZM5.34897 10.5826L13.0461 3.74345L20.7431 10.5826H5.34897Z" fill="#2274FF"/>
</svg>
