<svg width="23" height="22" viewBox="0 0 23 22" fill="none" xmlns="http://www.w3.org/2000/svg">
<path d="M22.068 3.27344L15.318 1.02344H15.2393C15.1869 1.01818 15.1341 1.01818 15.0818 1.02344H14.823H14.6768H14.598L8.20801 3.21719L1.81801 1.02344C1.64883 0.967657 1.46882 0.952845 1.29279 0.980227C1.11676 1.00761 0.949755 1.0764 0.805512 1.18094C0.660115 1.28446 0.541435 1.42109 0.459276 1.57954C0.377117 1.73799 0.333837 1.91371 0.333012 2.09219V17.8422C0.332403 18.078 0.405933 18.3081 0.543209 18.4999C0.680485 18.6917 0.874563 18.8355 1.09801 18.9109L7.84801 21.1609C8.07464 21.2348 8.31888 21.2348 8.54551 21.1609L14.958 19.0234L21.348 21.2172C21.4675 21.2334 21.5886 21.2334 21.708 21.2172C21.9432 21.2205 22.1728 21.1453 22.3605 21.0034C22.5059 20.8999 22.6246 20.7633 22.7067 20.6048C22.7889 20.4464 22.8322 20.2707 22.833 20.0922V4.34219C22.8336 4.10634 22.7601 3.87627 22.6228 3.68449C22.4855 3.4927 22.2915 3.34892 22.068 3.27344ZM7.08301 18.5284L2.58301 17.0322V3.65594L7.08301 5.15219V18.5284ZM13.833 17.0322L9.33301 18.5284V5.15219L13.833 3.65594V17.0322ZM20.583 18.5284L16.083 17.0322V3.65594L20.583 5.15219V18.5284Z" fill="#2274FF"/>
</svg>
