<svg width="21" height="16" viewBox="0 0 21 16" fill="none" xmlns="http://www.w3.org/2000/svg">
<path d="M5.67676 10.5H8.67676C8.94197 10.5 9.19633 10.3946 9.38386 10.2071C9.5714 10.0196 9.67676 9.76522 9.67676 9.5C9.67676 9.23478 9.5714 8.98043 9.38386 8.79289C9.19633 8.60536 8.94197 8.5 8.67676 8.5H5.67676C5.41154 8.5 5.15719 8.60536 4.96965 8.79289C4.78211 8.98043 4.67676 9.23478 4.67676 9.5C4.67676 9.76522 4.78211 10.0196 4.96965 10.2071C5.15719 10.3946 5.41154 10.5 5.67676 10.5ZM17.6768 0.5H3.67676C2.88111 0.5 2.11805 0.816071 1.55544 1.37868C0.992828 1.94129 0.676758 2.70435 0.676758 3.5V12.5C0.676758 13.2956 0.992828 14.0587 1.55544 14.6213C2.11805 15.1839 2.88111 15.5 3.67676 15.5H17.6768C18.4724 15.5 19.2355 15.1839 19.7981 14.6213C20.3607 14.0587 20.6768 13.2956 20.6768 12.5V3.5C20.6768 2.70435 20.3607 1.94129 19.7981 1.37868C19.2355 0.816071 18.4724 0.5 17.6768 0.5ZM18.6768 12.5C18.6768 12.7652 18.5714 13.0196 18.3839 13.2071C18.1963 13.3946 17.942 13.5 17.6768 13.5H3.67676C3.41154 13.5 3.15719 13.3946 2.96965 13.2071C2.78211 13.0196 2.67676 12.7652 2.67676 12.5V6.5H18.6768V12.5ZM18.6768 4.5H2.67676V3.5C2.67676 3.23478 2.78211 2.98043 2.96965 2.79289C3.15719 2.60536 3.41154 2.5 3.67676 2.5H17.6768C17.942 2.5 18.1963 2.60536 18.3839 2.79289C18.5714 2.98043 18.6768 3.23478 18.6768 3.5V4.5Z" fill="white"/>
</svg>
